VirtuaGrotesk-Bold.ufo
<glyph name="quotedbl" format="2">
	<unicode hex="0022"/>
	<advance width="600"/>
	<outline>
		<contour>
			<point x="184" y="464" type="line"/>
			<point x="200" y="464" type="line"/>
			<point x="216" y="480" type="line"/>
			<point x="240" y="642" type="line"/>
			<point x="240" y="752" type="line"/>
			<point x="224" y="768" type="line"/>
			<point x="160" y="768" type="line"/>
			<point x="144" y="752" type="line"/>
			<point x="144" y="642" type="line"/>
			<point x="168" y="480" type="line"/>
		</contour>
		<contour>
			<point x="400" y="464" type="line"/>
			<point x="416" y="464" type="line"/>
			<point x="432" y="480" type="line"/>
			<point x="456" y="642" type="line"/>
			<point x="456" y="752" type="line"/>
			<point x="440" y="768" type="line"/>
			<point x="376" y="768" type="line"/>
			<point x="360" y="752" type="line"/>
			<point x="360" y="642" type="line"/>
			<point x="384" y="480" type="line"/>
		</contour>
	</outline>
</glyph>
<glyph name="numbersign" format="2">
	<unicode hex="0023"/>
	<advance width="600"/>
	<outline>
		<contour>
			<point x="164" y="0" type="line"/>
			<point x="92" y="0" type="line"/>
			<point x="122" y="224" type="line"/>
			<point x="8" y="224" type="line"/>
			<point x="18" y="306" type="line"/>
			<point x="134" y="306" type="line"/>
			<point x="158" y="476" type="line"/>
			<point x="44" y="476" type="line"/>
			<point x="56" y="558" type="line"/>
			<point x="168" y="558" type="line"/>
			<point x="198" y="770" type="line"/>
			<point x="274" y="770" type="line"/>
			<point x="246" y="558" type="line"/>
			<point x="398" y="558" type="line"/>
			<point x="428" y="770" type="line"/>
			<point x="504" y="770" type="line"/>
			<point x="474" y="556" type="line"/>
			<point x="588" y="556" type="line"/>
			<point x="574" y="476" type="line"/>
			<point x="462" y="476" type="line"/>
			<point x="438" y="302" type="line"/>
			<point x="550" y="302" type="line"/>
			<point x="538" y="222" type="line"/>
			<point x="426" y="222" type="line"/>
			<point x="394" y="0" type="line"/>
			<point x="320" y="0" type="line"/>
			<point x="350" y="222" type="line"/>
			<point x="200" y="220" type="line"/>
		</contour>
		<contour>
			<point x="234" y="476" type="line"/>
			<point x="210" y="302" type="line"/>
			<point x="362" y="302" type="line"/>
			<point x="386" y="476" type="line"/>
		</contour>
	</outline>
</glyph>
<glyph name="plus" format="2">
	<unicode hex="002B"/>
	<advance width="600"/>
	<outline>
		<contour>
			<point x="242" y="168" type="line"/>
			<point x="358" y="168" type="line"/>
			<point x="358" y="576" type="line"/>
			<point x="242" y="576" type="line"/>
		</contour>
		<contour>
			<point x="96" y="332" type="line"/>
			<point x="504" y="332" type="line"/>
			<point x="504" y="448" type="line"/>
			<point x="96" y="448" type="line"/>
		</contour>
	</outline>
</glyph>
<glyph name="equal" format="2">
	<unicode hex="003D" />
	<advance width="600" />
	<outline>
		<contour>
			<point x="96" y="416" type="line" />
			<point x="504" y="416" type="line" />
			<point x="504" y="532" type="line" />
			<point x="96" y="532" type="line" />
		</contour>
		<contour>
			<point x="96" y="232" type="line" />
			<point x="504" y="232" type="line" />
			<point x="504" y="348" type="line" />
			<point x="96" y="348" type="line" />
		</contour>
	</outline>
</glyph>
<glyph name="greater" format="2">
	<unicode hex="003E" />
	<advance width="600" />
	<outline>
		<contour>
			<point x="152" y="612" type="line" />
			<point x="88" y="520" type="line" />
			<point x="368" y="372" type="line" />
			<point x="88" y="224" type="line" />
			<point x="152" y="132" type="line" />
			<point x="488" y="328" type="line" />
			<point x="488" y="416" type="line" />
		</contour>
	</outline>
</glyph>
<glyph name="bracketleft" format="2">
	<unicode hex="005B" />
	<advance width="320" />
	<outline>
		<contour>
			<point x="80" y="-96" type="line" />
			<point x="196" y="-96" type="line" />
			<point x="196" y="800" type="line" />
			<point x="80" y="800" type="line" />
		</contour>
		<contour>
			<point x="80" y="-96" type="line" />
			<point x="304" y="-96" type="line" />
			<point x="304" y="20" type="line" />
			<point x="80" y="20" type="line" />
		</contour>
		<contour>
			<point x="80" y="684" type="line" />
			<point x="304" y="684" type="line" />
			<point x="304" y="800" type="line" />
			<point x="80" y="800" type="line" />
		</contour>
	</outline>
</glyph>
<glyph name="backslash" format="2">
  <advance width="600"/>
  <unicode hex="005C"/>
  <outline>
    <contour>
      <point x="116" y="584" type="line"/>
      <point x="404" y="0" type="line"/>
      <point x="520" y="0" type="line"/>
      <point x="232" y="584" type="line"/>
    </contour>
  </outline>
</glyph>
<glyph name="bracketright" format="2">
	<unicode hex="005D" />
	<advance width="320" />
	<outline>
		<contour>
			<point x="124" y="-96" type="line" />
			<point x="240" y="-96" type="line" />
			<point x="240" y="800" type="line" />
			<point x="124" y="800" type="line" />
		</contour>
		<contour>
			<point x="16" y="-96" type="line" />
			<point x="240" y="-96" type="line" />
			<point x="240" y="20" type="line" />
			<point x="16" y="20" type="line" />
		</contour>
		<contour>
			<point x="16" y="684" type="line" />
			<point x="240" y="684" type="line" />
			<point x="240" y="800" type="line" />
			<point x="16" y="800" type="line" />
		</contour>
	</outline>
</glyph>
<glyph name="underscore" format="2">
	<unicode hex="005F" />
	<advance width="600" />
	<outline>
		<contour>
			<point x="64" y="-96" type="line" />
			<point x="536" y="-96" type="line" />
			<point x="536" y="-12" type="line" />
			<point x="64" y="-12" type="line" />
		</contour>
	</outline>
</glyph>
<glyph name="grave" format="2">
  <advance width="300"/>
  <unicode hex="0060"/>
  <outline>
    <contour>
      <point x="64" y="744" type="line"/>
      <point x="184" y="520" type="line"/>
      <point x="264" y="520" type="line"/>
      <point x="144" y="744" type="line"/>
    </contour>
  </outline>
</glyph>
<glyph name="braceleft" format="2">
	<unicode hex="007B" />
	<advance width="360" />
	<outline>
		<contour>
			<point x="96" y="-96" type="line" />
			<point x="320" y="-96" type="line" />
			<point x="320" y="20" type="line" />
			<point x="212" y="20" type="line" />
			<point x="212" y="300" type="line" />
			<point x="276" y="300" type="line" />
			<point x="276" y="416" type="line" />
			<point x="212" y="416" type="line" />
			<point x="212" y="684" type="line" />
			<point x="320" y="684" type="line" />
			<point x="320" y="800" type="line" />
			<point x="212" y="800" type="line" />
			<point x="96" y="800" type="line" />
		</contour>
	</outline>
</glyph>
<glyph name="bar" format="2">
	<unicode hex="007C" />
	<advance width="320" />
	<outline>
		<contour>
			<point x="102" y="-96" type="line" />
			<point x="218" y="-96" type="line" />
			<point x="218" y="800" type="line" />
			<point x="102" y="800" type="line" />
		</contour>
	</outline>
</glyph>
<glyph name="braceright" format="2">
	<unicode hex="007D" />
	<advance width="360" />
	<outline>
		<contour>
			<point x="264" y="800" type="line" />
			<point x="148" y="800" type="line" />
			<point x="40" y="800" type="line" />
			<point x="40" y="684" type="line" />
			<point x="148" y="684" type="line" />
			<point x="148" y="416" type="line" />
			<point x="84" y="416" type="line" />
			<point x="84" y="300" type="line" />
			<point x="148" y="300" type="line" />
			<point x="148" y="20" type="line" />
			<point x="40" y="20" type="line" />
			<point x="40" y="-96" type="line" />
			<point x="264" y="-96" type="line" />
		</contour>
	</outline>
</glyph>
<glyph name="exclamdown" format="2">
	<unicode hex="00A1" />
	<advance width="600" />
	<outline>
		<contour>
			<point x="268" y="516" type="line" />
			<point x="332" y="516" type="line" />
			<point x="332" y="580" type="line" />
			<point x="268" y="580" type="line" />
		</contour>
		<contour>
			<point x="258" y="0" type="line" />
			<point x="342" y="0" type="line" />
			<point x="342" y="420" type="line" />
			<point x="258" y="420" type="line" />
		</contour>
	</outline>
</glyph>
<glyph name="sterling" format="2">
  <advance width="600"/>
  <unicode hex="00A3"/>
  <outline>
    <contour>
      <point x="144" y="308" type="line"/>
      <point x="144" y="424" type="line"/>
      <point x="424" y="424" type="line"/>
      <point x="424" y="308" type="line"/>
    </contour>
    <contour>
      <point x="452" y="584" type="line"/>
      <point x="252" y="584" type="line"/>
      <point x="184" y="464" type="line"/>
      <point x="184" y="132" type="line"/>
      <point x="120" y="68" type="line"/>
      <point x="500" y="68" type="line"/>
      <point x="500" y="132" type="line"/>
      <point x="284" y="132" type="line"/>
      <point x="284" y="464" type="line"/>
      <point x="316" y="520" type="line"/>
      <point x="388" y="520" type="line"/>
      <point x="500" y="520" type="line"/>
    </contour>
  </outline>
</glyph>
<glyph name="macron" format="2">
	<unicode hex="00AF" />
	<advance width="360" />
	<outline>
		<contour>
			<point x="48" y="676" type="line" />
			<point x="312" y="676" type="line" />
			<point x="312" y="724" type="line" />
			<point x="48" y="724" type="line" />
		</contour>
	</outline>
</glyph>
<glyph name="periodcentered" format="2">
	<unicode hex="00B7" />
	<advance width="600" />
	<outline>
		<contour>
			<point x="268" y="324" type="line" />
			<point x="332" y="324" type="line" />
			<point x="332" y="388" type="line" />
			<point x="268" y="388" type="line" />
		</contour>
	</outline>
</glyph>
<glyph name="cedilla" format="2">
	<unicode hex="00B8" />
	<advance width="260" />
	<outline>
		<contour>
			<point x="72" y="-168" type="line" />
			<point x="152" y="-168" type="line" />
			<point x="196" y="-92" type="line" />
			<point x="176" y="-16" type="line" />
			<point x="128" y="0" type="line" />
			<point x="96" y="-40" type="line" />
			<point x="124" y="-48" type="line" />
			<point x="140" y="-84" type="line" />
			<point x="116" y="-120" type="line" />
			<point x="72" y="-120" type="line" />
		</contour>
	</outline>
</glyph>
<glyph name="questiondown" format="2">
  <advance width="600"/>
  <unicode hex="00BF"/>
  <outline>
    <contour>
      <point x="270" y="518" type="line"/>
      <point x="330" y="518" type="line"/>
      <point x="330" y="578" type="line"/>
      <point x="270" y="578" type="line"/>
    </contour>
    <contour>
      <point x="468" y="148" type="line"/>
      <point x="396" y="164" type="line"/>
      <point x="308" y="164" type="line"/>
      <point x="284" y="212" type="line"/>
      <point x="328" y="256" type="line"/>
      <point x="400" y="308" type="line"/>
      <point x="400" y="420" type="line"/>
      <point x="320" y="420" type="line"/>
      <point x="320" y="352" type="line"/>
      <point x="272" y="316" type="line"/>
      <point x="204" y="248" type="line"/>
      <point x="204" y="152" type="line"/>
      <point x="288" y="84" type="line"/>
      <point x="416" y="84" type="line"/>
    </contour>
  </outline>
</glyph>
<glyph name="multiply" format="2">
	<unicode hex="00D7" />
	<advance width="600" />
	<outline>
		<contour>
			<point x="156" y="184" type="line" />
			<point x="240" y="184" type="line" />
			<point x="332" y="292" type="line" />
			<point x="424" y="184" type="line" />
			<point x="508" y="184" type="line" />
			<point x="384" y="372" type="line" />
			<point x="508" y="560" type="line" />
			<point x="424" y="560" type="line" />
			<point x="332" y="452" type="line" />
			<point x="240" y="560" type="line" />
			<point x="156" y="560" type="line" />
			<point x="280" y="372" type="line" />
		</contour>
	</outline>
</glyph>
<glyph name="germandbls" format="2">
	<unicode hex="00DF" />
	<advance width="660" />
	<outline>
		<contour>
			<point x="328" y="-16" type="curve"/>
			<point x="496" y="-16"/>
			<point x="588" y="52"/>
			<point x="588" y="168" type="curve"/>
			<point x="588" y="268"/>
			<point x="510" y="312"/>
			<point x="386" y="346" type="curve"/>
			<point x="354" y="354" type="line"/>
			<point x="288" y="372"/>
			<point x="264" y="392"/>
			<point x="264" y="448" type="curve"/>
			<point x="264" y="608"/>
			<point x="312" y="680"/>
			<point x="392" y="680" type="curve"/>
			<point x="432" y="680"/>
			<point x="476" y="648"/>
			<point x="476" y="596" type="curve"/>
			<point x="492" y="580" type="line"/>
			<point x="636" y="580" type="line"/>
			<point x="652" y="596" type="line"/>
			<point x="650" y="626" type="line"/>
			<point x="634" y="726"/>
			<point x="520" y="784"/>
			<point x="392" y="784" type="curve"/>
			<point x="208" y="784"/>
			<point x="72" y="672"/>
			<point x="72" y="448" type="curve"/>
			<point x="72" y="304"/>
			<point x="160" y="266"/>
			<point x="282" y="234" type="curve"/>
			<point x="314" y="226" type="line"/>
			<point x="380" y="210"/>
			<point x="396" y="200"/>
			<point x="396" y="176" type="curve"/>
			<point x="396" y="152"/>
			<point x="372" y="136"/>
			<point x="328" y="136" type="curve"/>
			<point x="284" y="136"/>
			<point x="240" y="156"/>
			<point x="240" y="204" type="curve"/>
			<point x="224" y="220" type="line"/>
			<point x="80" y="220" type="line"/>
			<point x="64" y="204" type="line"/>
			<point x="64" y="176" type="line"/>
			<point x="76" y="58"/>
			<point x="168" y="-16"/>
		</contour>
	</outline>
</glyph>
<glyph name="divide" format="2">
	<unicode hex="00F7" />
	<advance width="600" />
	<outline>
		<contour>
			<point x="96" y="332" type="line" />
			<point x="504" y="332" type="line" />
			<point x="504" y="448" type="line" />
			<point x="96" y="448" type="line" />
		</contour>
		<contour>
			<point x="264" y="524" type="line" />
			<point x="336" y="524" type="line" />
			<point x="336" y="596" type="line" />
			<point x="264" y="596" type="line" />
		</contour>
		<contour>
			<point x="264" y="164" type="line" />
			<point x="336" y="164" type="line" />
			<point x="336" y="236" type="line" />
			<point x="264" y="236" type="line" />
		</contour>
	</outline>
</glyph>
<glyph name="idotless" format="2">
	<unicode hex="0131"/>
	<advance width="296"/>
	<outline>
		<contour>
			<point x="68" y="0" type="line"/>
			<point x="228" y="0" type="line"/>
			<point x="244" y="16" type="line"/>
			<point x="244" y="560" type="line"/>
			<point x="228" y="576" type="line"/>
			<point x="68" y="576" type="line"/>
			<point x="52" y="560" type="line"/>
			<point x="52" y="16" type="line"/>
		</contour>
	</outline>
</glyph>
<glyph name="jdotless" format="2">
	<unicode hex="0237"/>
	<advance width="308"/>
	<anchor x="154" y="600" name="top"/>
	<outline>
		<contour>
			<point x="-16" y="-200" type="line"/>
			<point x="56" y="-200" type="line"/>
			<point x="188" y="-200"/>
			<point x="260" y="-156"/>
			<point x="260" y="-52" type="curve"/>
			<point x="260" y="560" type="line"/>
			<point x="244" y="576" type="line"/>
			<point x="84" y="576" type="line"/>
			<point x="68" y="560" type="line"/>
			<point x="68" y="-52" type="line"/>
			<point x="68" y="-68"/>
			<point x="64" y="-76"/>
			<point x="48" y="-76" type="curve"/>
			<point x="-16" y="-76" type="line"/>
			<point x="-32" y="-92" type="line"/>
			<point x="-32" y="-184" type="line"/>
		</contour>
	</outline>
</glyph>
<glyph name="caron" format="2">
	<unicode hex="02C7" />
	<advance width="420" />
	<outline>
		<contour>
			<point x="180" y="504" type="line" />
			<point x="244" y="504" type="line" />
			<point x="352" y="728" type="line" />
			<point x="288" y="808" type="line" />
			<point x="212" y="640" type="line" />
			<point x="136" y="808" type="line" />
			<point x="72" y="728" type="line" />
		</contour>
	</outline>
</glyph>
<glyph name="breve" format="2">
	<unicode hex="02D8" />
	<advance width="360" />
	<outline>
		<contour>
			<point x="76" y="652" type="line" />
			<point x="148" y="608" type="line" />
			<point x="212" y="608" type="line" />
			<point x="284" y="652" type="line" />
			<point x="312" y="760" type="line" />
			<point x="248" y="760" type="line" />
			<point x="224" y="704" type="line" />
			<point x="180" y="688" type="line" />
			<point x="136" y="704" type="line" />
			<point x="112" y="760" type="line" />
			<point x="48" y="760" type="line" />
		</contour>
	</outline>
</glyph>
<glyph name="dotaccent" format="2">
	<unicode hex="02D9" />
	<advance width="240" />
	<outline>
		<contour>
			<point x="80" y="640" type="line" />
			<point x="160" y="640" type="line" />
			<point x="160" y="720" type="line" />
			<point x="80" y="720" type="line" />
		</contour>
	</outline>
</glyph>
<glyph name="hungarumlaut" format="2">
	<unicode hex="02DD" />
	<advance width="440" />
	<outline>
		<contour>
			<point x="72" y="638" type="line" />
			<point x="116" y="638" type="line" />
			<point x="132" y="654" type="line" />
			<point x="224" y="800" type="line" />
			<point x="224" y="816" type="line" />
			<point x="208" y="832" type="line" />
			<point x="124" y="832" type="line" />
			<point x="108" y="816" type="line" />
			<point x="56" y="670" type="line" />
			<point x="56" y="654" type="line" />
		</contour>
		<contour>
			<point x="248" y="638" type="line" />
			<point x="292" y="638" type="line" />
			<point x="308" y="654" type="line" />
			<point x="400" y="800" type="line" />
			<point x="400" y="816" type="line" />
			<point x="384" y="832" type="line" />
			<point x="300" y="832" type="line" />
			<point x="284" y="816" type="line" />
			<point x="232" y="670" type="line" />
			<point x="232" y="654" type="line" />
		</contour>
	</outline>
</glyph>
<glyph name="arabicNumberSign" format="2">
  <unicode hex="0600"/>
  <outline>
    <contour>
      <point x="-168" y="596" type="line"/>
      <point x="-112" y="540" type="line"/>
      <point x="112" y="540" type="line"/>
      <point x="168" y="596" type="line"/>
      <point x="112" y="652" type="line"/>
      <point x="-112" y="652" type="line"/>
    </contour>
  </outline>
</glyph>
<glyph name="arabicSignSafha" format="2">
	<unicode hex="0603"/>
	<outline>
		<contour>
			<point x="-156" y="644" type="line"/>
			<point x="-100" y="540" type="line"/>
			<point x="0" y="588" type="line"/>
			<point x="100" y="540" type="line"/>
			<point x="156" y="644" type="line"/>
			<point x="0" y="700" type="line"/>
		</contour>
	</outline>
</glyph>
<glyph name="perMille-ar" format="2">
	<unicode hex="0609" />
	<advance width="600" />
	<outline>
		<contour>
			<point x="116" y="160" type="line" />
			<point x="232" y="160" type="line" />
			<point x="520" y="584" type="line" />
			<point x="404" y="584" type="line" />
		</contour>
		<contour>
			<point x="126" y="474" type="line" />
			<point x="186" y="474" type="line" />
			<point x="186" y="534" type="line" />
			<point x="126" y="534" type="line" />
		</contour>
		<contour>
			<point x="358" y="210" type="line" />
			<point x="418" y="210" type="line" />
			<point x="418" y="270" type="line" />
			<point x="358" y="270" type="line" />
		</contour>
		<contour>
			<point x="474" y="210" type="line" />
			<point x="534" y="210" type="line" />
			<point x="534" y="270" type="line" />
			<point x="474" y="270" type="line" />
		</contour>
	</outline>
</glyph>
<glyph name="dateSeparator-ar" format="2">
	<unicode hex="060D" />
	<advance width="300" />
	<outline>
		<contour>
			<point x="112" y="156" type="line" />
			<point x="188" y="156" type="line" />
			<point x="220" y="584" type="line" />
			<point x="144" y="584" type="line" />
		</contour>
	</outline>
</glyph>
<glyph name="smallHighTah-ar" format="2">
  <unicode hex="0615" />
  <advance width="0" />
  <anchor x="0" y="576" name="_top" />
  <anchor x="0" y="720" name="top" />
  <outline>
    <contour>
      <point x="-32" y="688" type="line" />
      <point x="32" y="688" type="line" />
      <point x="32" y="764" type="line" />
      <point x="-32" y="764" type="line" />
    </contour>
    <contour>
      <point x="-96" y="616" type="line" />
      <point x="96" y="616" type="line" />
      <point x="96" y="680" type="line" />
      <point x="-96" y="680" type="line" />
    </contour>
  </outline>
</glyph>
<glyph name="semicolon-ar" format="2">
  <advance width="280"/>
  <unicode hex="061B"/>
  <outline>
    <contour>
      <point x="112" y="328" type="line"/>
      <point x="168" y="328" type="line"/>
      <point x="168" y="384" type="line"/>
      <point x="112" y="384" type="line"/>
    </contour>
    <contour>
      <point x="116" y="132" type="line"/>
      <point x="76" y="-56" type="line"/>
      <point x="148" y="-56" type="line"/>
      <point x="188" y="132" type="line"/>
    </contour>
  </outline>
</glyph>
<glyph name="hamza-ar" format="2">
  <advance width="600"/>
  <unicode hex="0621"/>
  <outline>
    <contour>
      <point x="180" y="336" type="line"/>
      <point x="404" y="336" type="line"/>
      <point x="420" y="352" type="line"/>
      <point x="420" y="384" type="line"/>
      <point x="404" y="400" type="line"/>
      <point x="336" y="400" type="line"/>
      <point x="320" y="400" type="line"/>
      <point x="308" y="412" type="line"/>
      <point x="308" y="428" type="line"/>
      <point x="308" y="444" type="line"/>
      <point x="320" y="456" type="line"/>
      <point x="336" y="456" type="line"/>
      <point x="364" y="456" type="line"/>
      <point x="364" y="440" type="line"/>
      <point x="436" y="440" type="line"/>
      <point x="436" y="488" type="line"/>
      <point x="408" y="520" type="line"/>
      <point x="352" y="520" type="line"/>
      <point x="288" y="520" type="line"/>
      <point x="260" y="496" type="line"/>
      <point x="260" y="464" type="line"/>
      <point x="260" y="432" type="line"/>
      <point x="276" y="416" type="line"/>
      <point x="308" y="416" type="line"/>
      <point x="372" y="416" type="line"/>
      <point x="388" y="400" type="line"/>
      <point x="388" y="352" type="line"/>
      <point x="372" y="336" type="line"/>
    </contour>
  </outline>
</glyph>
<glyph name="hah-ar" format="2">
  <advance width="600"/>
  <unicode hex="062D"/>
  <anchor x="256" y="-354" name="bottom"/>
  <anchor x="366" y="0" name="center"/>
  <anchor x="236" y="662" name="top"/>
  <anchor x="252" y="574" name="topDots"/>
  <outline>
    <contour>
      <point x="324" y="-424" type="curve" smooth="yes"/>
      <point x="508" y="-424" type="line" smooth="yes"/>
      <point x="524" y="-424"/>
      <point x="532" y="-410"/>
      <point x="532" y="-388" type="curve" smooth="yes"/>
      <point x="532" y="-202" type="line" smooth="yes"/>
      <point x="532" y="-180"/>
      <point x="524" y="-168"/>
      <point x="506" y="-168" type="curve" smooth="yes"/>
      <point x="342" y="-168" type="line" smooth="yes"/>
      <point x="222" y="-168"/>
      <point x="174" y="-126"/>
      <point x="174" y="-40" type="curve" smooth="yes"/>
      <point x="174" y="104"/>
      <point x="396" y="186"/>
      <point x="490" y="214" type="curve"/>
      <point x="482" y="372" type="line"/>
      <point x="176" y="342"/>
      <point x="32" y="140"/>
      <point x="32" y="-78" type="curve" smooth="yes"/>
      <point x="32" y="-264"/>
      <point x="146" y="-424"/>
    </contour>
    <contour>
      <point x="472" y="212" type="line"/>
      <point x="546" y="212" type="line" smooth="yes"/>
      <point x="562" y="212"/>
      <point x="572" y="228"/>
      <point x="572" y="248" type="curve" smooth="yes"/>
      <point x="572" y="394" type="line" smooth="yes"/>
      <point x="572" y="416"/>
      <point x="568" y="428"/>
      <point x="550" y="428" type="curve" smooth="yes"/>
      <point x="522" y="428" type="line" smooth="yes"/>
      <point x="384" y="428"/>
      <point x="354" y="586"/>
      <point x="222" y="586" type="curve" smooth="yes"/>
      <point x="118" y="586"/>
      <point x="24" y="458"/>
      <point x="24" y="324" type="curve" smooth="yes"/>
      <point x="24" y="304"/>
      <point x="34" y="292"/>
      <point x="54" y="292" type="curve" smooth="yes"/>
      <point x="118" y="292" type="line" smooth="yes"/>
      <point x="142" y="292"/>
      <point x="146" y="296"/>
      <point x="162" y="322" type="curve" smooth="yes"/>
      <point x="176" y="342"/>
      <point x="200" y="348"/>
      <point x="222" y="348" type="curve" smooth="yes"/>
      <point x="324" y="342"/>
      <point x="344" y="244"/>
      <point x="472" y="244" type="curve"/>
    </contour>
  </outline>
</glyph>
<glyph name="reh-ar" format="2">
  <advance width="600"/>
  <unicode hex="0631"/>
  <anchor x="254" y="-224" name="bottom"/>
  <anchor x="280" y="576" name="top"/>
  <anchor x="292" y="448" name="topDots"/>
  <outline>
    <contour>
      <point x="-16" y="-284" type="curve" smooth="yes"/>
      <point x="42" y="-284" type="line" smooth="yes"/>
      <point x="364" y="-284"/>
      <point x="554" y="-130"/>
      <point x="554" y="90" type="curve" smooth="yes"/>
      <point x="554" y="202"/>
      <point x="520" y="326"/>
      <point x="482" y="428" type="curve" smooth="yes"/>
      <point x="472" y="458"/>
      <point x="452" y="466"/>
      <point x="414" y="460" type="curve" smooth="yes"/>
      <point x="244" y="430" type="line" smooth="yes"/>
      <point x="202" y="422"/>
      <point x="186" y="412"/>
      <point x="196" y="372" type="curve"/>
      <point x="230" y="282"/>
      <point x="260" y="182"/>
      <point x="260" y="112" type="curve" smooth="yes"/>
      <point x="260" y="2"/>
      <point x="194" y="-58"/>
      <point x="12" y="-58" type="curve" smooth="yes"/>
      <point x="-8" y="-58" type="line" smooth="yes"/>
      <point x="-46" y="-58"/>
      <point x="-72" y="-70"/>
      <point x="-72" y="-96" type="curve" smooth="yes"/>
      <point x="-72" y="-242" type="line" smooth="yes"/>
      <point x="-72" y="-266"/>
      <point x="-56" y="-284"/>
    </contour>
  </outline>
</glyph>
<glyph name="sad-ar" format="2">
  <advance width="600"/>
  <unicode hex="0635"/>
  <anchor x="384" y="0" name="bottom"/>
  <anchor x="334" y="576" name="top"/>
  <anchor x="486" y="550" name="topDots"/>
  <outline>
    <contour>
      <point x="160" y="-224" type="curve" smooth="yes"/>
      <point x="240" y="-224"/>
      <point x="298" y="-118"/>
      <point x="312" y="40" type="curve"/>
      <point x="336" y="12"/>
      <point x="376" y="-6"/>
      <point x="436" y="-6" type="curve" smooth="yes"/>
      <point x="536" y="-8"/>
      <point x="586" y="126"/>
      <point x="586" y="310" type="curve" smooth="yes"/>
      <point x="586" y="430"/>
      <point x="556" y="546"/>
      <point x="486" y="546" type="curve" smooth="yes"/>
      <point x="426" y="546"/>
      <point x="360" y="430"/>
      <point x="318" y="246" type="curve"/>
      <point x="316" y="276"/>
      <point x="312" y="308"/>
      <point x="310" y="338" type="curve" smooth="yes"/>
      <point x="300" y="408" type="line" smooth="yes"/>
      <point x="298" y="426"/>
      <point x="294" y="436"/>
      <point x="286" y="432" type="curve" smooth="yes"/>
      <point x="228" y="398" type="line" smooth="yes"/>
      <point x="218" y="392"/>
      <point x="214" y="378"/>
      <point x="218" y="354" type="curve" smooth="yes"/>
      <point x="226" y="282"/>
      <point x="230" y="222"/>
      <point x="232" y="172" type="curve" smooth="yes"/>
      <point x="232" y="66"/>
      <point x="214" y="8"/>
      <point x="166" y="8" type="curve" smooth="yes"/>
      <point x="118" y="8"/>
      <point x="96" y="72"/>
      <point x="96" y="162" type="curve" smooth="yes"/>
      <point x="96" y="198"/>
      <point x="98" y="238"/>
      <point x="106" y="278" type="curve" smooth="yes"/>
      <point x="110" y="304"/>
      <point x="110" y="316"/>
      <point x="98" y="324" type="curve" smooth="yes"/>
      <point x="54" y="352" type="line" smooth="yes"/>
      <point x="42" y="358"/>
      <point x="38" y="348"/>
      <point x="32" y="314" type="curve" smooth="yes"/>
      <point x="22" y="256"/>
      <point x="14" y="180"/>
      <point x="14" y="110" type="curve" smooth="yes"/>
      <point x="14" y="-84"/>
      <point x="70" y="-224"/>
    </contour>
    <contour>
      <point x="388" y="244" type="line"/>
      <point x="416" y="296"/>
      <point x="448" y="334"/>
      <point x="476" y="336" type="curve" smooth="yes"/>
      <point x="496" y="338"/>
      <point x="512" y="324"/>
      <point x="512" y="292" type="curve" smooth="yes"/>
      <point x="512" y="262"/>
      <point x="500" y="244"/>
      <point x="470" y="244" type="curve" smooth="yes"/>
    </contour>
  </outline>
</glyph>
<glyph name="tah-ar" format="2">
  <advance width="600"/>
  <unicode hex="0637"/>
  <anchor x="302" y="0" name="bottom"/>
  <anchor x="416" y="580" name="top"/>
  <anchor x="410" y="544" name="topDots"/>
  <outline>
    <contour>
      <point x="62" y="-12" type="curve" smooth="yes"/>
      <point x="326" y="-12" type="line" smooth="yes"/>
      <point x="494" y="-12"/>
      <point x="578" y="122"/>
      <point x="578" y="304" type="curve" smooth="yes"/>
      <point x="578" y="426"/>
      <point x="526" y="544"/>
      <point x="410" y="544" type="curve" smooth="yes"/>
      <point x="310" y="544"/>
      <point x="200" y="426"/>
      <point x="130" y="244" type="curve"/>
      <point x="48" y="244" type="line" smooth="yes"/>
      <point x="32" y="244"/>
      <point x="22" y="230"/>
      <point x="22" y="208" type="curve" smooth="yes"/>
      <point x="38" y="24" type="line" smooth="yes"/>
      <point x="40" y="2"/>
      <point x="46" y="-12"/>
    </contour>
    <contour>
      <point x="252" y="244" type="line"/>
      <point x="298" y="294"/>
      <point x="350" y="328"/>
      <point x="394" y="332" type="curve" smooth="yes"/>
      <point x="426" y="334"/>
      <point x="454" y="320"/>
      <point x="454" y="288" type="curve" smooth="yes"/>
      <point x="454" y="258"/>
      <point x="434" y="244"/>
      <point x="384" y="244" type="curve" smooth="yes"/>
    </contour>
    <contour>
      <point x="130" y="198" type="line"/>
      <point x="228" y="364" type="line"/>
      <point x="252" y="500"/>
      <point x="266" y="480"/>
      <point x="266" y="616" type="curve" smooth="yes"/>
      <point x="266" y="806" type="line" smooth="yes"/>
      <point x="266" y="820"/>
      <point x="260" y="830"/>
      <point x="250" y="830" type="curve" smooth="yes"/>
      <point x="146" y="830" type="line" smooth="yes"/>
      <point x="136" y="830"/>
      <point x="130" y="820"/>
      <point x="130" y="806" type="curve" smooth="yes"/>
    </contour>
  </outline>
</glyph>
<glyph name="ain-ar" format="2">
  <advance width="600"/>
  <unicode hex="0639"/>
  <anchor x="226" y="-354" name="bottom"/>
  <anchor x="318" y="680" name="top"/>
  <anchor x="320" y="652" name="topDots"/>
  <outline>
    <contour>
      <point x="316" y="-438" type="curve" smooth="yes"/>
      <point x="554" y="-438" type="line" smooth="yes"/>
      <point x="570" y="-438"/>
      <point x="580" y="-428"/>
      <point x="580" y="-408" type="curve" smooth="yes"/>
      <point x="580" y="-218" type="line" smooth="yes"/>
      <point x="580" y="-198"/>
      <point x="570" y="-188"/>
      <point x="554" y="-188" type="curve" smooth="yes"/>
      <point x="376" y="-188" type="line" smooth="yes"/>
      <point x="270" y="-188"/>
      <point x="202" y="-158"/>
      <point x="202" y="-86" type="curve" smooth="yes"/>
      <point x="202" y="-14"/>
      <point x="302" y="32"/>
      <point x="412" y="62" type="curve" smooth="yes"/>
      <point x="488" y="84" type="line" smooth="yes"/>
      <point x="514" y="90"/>
      <point x="516" y="106"/>
      <point x="520" y="128" type="curve" smooth="yes"/>
      <point x="544" y="312" type="line" smooth="yes"/>
      <point x="546" y="332"/>
      <point x="532" y="342"/>
      <point x="518" y="338" type="curve" smooth="yes"/>
      <point x="446" y="320"/>
      <point x="362" y="302"/>
      <point x="330" y="302" type="curve" smooth="yes"/>
      <point x="270" y="302"/>
      <point x="234" y="320"/>
      <point x="234" y="356" type="curve" smooth="yes"/>
      <point x="234" y="394"/>
      <point x="268" y="420"/>
      <point x="326" y="420" type="curve" smooth="yes"/>
      <point x="360" y="420"/>
      <point x="404" y="410"/>
      <point x="426" y="400" type="curve"/>
      <point x="450" y="392"/>
      <point x="458" y="402"/>
      <point x="462" y="434" type="curve" smooth="yes"/>
      <point x="488" y="584" type="line" smooth="yes"/>
      <point x="490" y="602"/>
      <point x="480" y="614"/>
      <point x="468" y="620" type="curve"/>
      <point x="416" y="642"/>
      <point x="366" y="652"/>
      <point x="320" y="652" type="curve" smooth="yes"/>
      <point x="174" y="652"/>
      <point x="64" y="542"/>
      <point x="64" y="384" type="curve" smooth="yes"/>
      <point x="64" y="290"/>
      <point x="124" y="198"/>
      <point x="192" y="158" type="curve"/>
      <point x="88" y="106"/>
      <point x="20" y="2"/>
      <point x="20" y="-120" type="curve" smooth="yes"/>
      <point x="20" y="-320"/>
      <point x="148" y="-438"/>
    </contour>
  </outline>
</glyph>
<glyph name="kaf-ar" format="2">
  <advance width="600"/>
  <unicode hex="0643"/>
  <anchor x="306" y="0" name="bottom"/>
  <anchor x="296" y="742" name="top"/>
  <outline>
    <contour>
      <point x="278" y="-12" type="curve" smooth="yes"/>
      <point x="346" y="-12" type="line" smooth="yes"/>
      <point x="538" y="-12"/>
      <point x="554" y="100"/>
      <point x="554" y="342" type="curve" smooth="yes"/>
      <point x="554" y="806" type="line" smooth="yes"/>
      <point x="554" y="820"/>
      <point x="548" y="830"/>
      <point x="538" y="830" type="curve" smooth="yes"/>
      <point x="442" y="830" type="line" smooth="yes"/>
      <point x="434" y="830"/>
      <point x="428" y="820"/>
      <point x="428" y="806" type="curve" smooth="yes"/>
      <point x="428" y="338" type="line" smooth="yes"/>
      <point x="428" y="262"/>
      <point x="394" y="244"/>
      <point x="344" y="244" type="curve" smooth="yes"/>
      <point x="294" y="244" type="line" smooth="yes"/>
      <point x="202" y="244"/>
      <point x="144" y="256"/>
      <point x="144" y="352" type="curve" smooth="yes"/>
      <point x="144" y="374"/>
      <point x="148" y="398"/>
      <point x="154" y="430" type="curve" smooth="yes"/>
      <point x="160" y="454"/>
      <point x="150" y="460"/>
      <point x="136" y="468" type="curve" smooth="yes"/>
      <point x="74" y="496" type="line" smooth="yes"/>
      <point x="60" y="500"/>
      <point x="52" y="492"/>
      <point x="46" y="470" type="curve" smooth="yes"/>
      <point x="28" y="404"/>
      <point x="20" y="342"/>
      <point x="20" y="286" type="curve" smooth="yes"/>
      <point x="20" y="100"/>
      <point x="120" y="-12"/>
    </contour>
    <contour>
      <point x="220" y="354" type="curve" smooth="yes"/>
      <point x="302" y="354" type="line" smooth="yes"/>
      <point x="354" y="354"/>
      <point x="384" y="388"/>
      <point x="384" y="466" type="curve" smooth="yes"/>
      <point x="384" y="502"/>
      <point x="380" y="542"/>
      <point x="342" y="576" type="curve" smooth="yes"/>
      <point x="312" y="602" type="line" smooth="yes"/>
      <point x="308" y="606"/>
      <point x="304" y="610"/>
      <point x="304" y="616" type="curve" smooth="yes"/>
      <point x="304" y="624"/>
      <point x="308" y="628"/>
      <point x="316" y="634" type="curve" smooth="yes"/>
      <point x="374" y="676" type="line" smooth="yes"/>
      <point x="384" y="686"/>
      <point x="388" y="698"/>
      <point x="382" y="716" type="curve" smooth="yes"/>
      <point x="370" y="758" type="line" smooth="yes"/>
      <point x="364" y="776"/>
      <point x="358" y="780"/>
      <point x="342" y="768" type="curve" smooth="yes"/>
      <point x="276" y="710" type="line" smooth="yes"/>
      <point x="250" y="688"/>
      <point x="236" y="664"/>
      <point x="236" y="616" type="curve" smooth="yes"/>
      <point x="236" y="580"/>
      <point x="248" y="554"/>
      <point x="270" y="532" type="curve" smooth="yes"/>
      <point x="300" y="504" type="line" smooth="yes"/>
      <point x="312" y="492"/>
      <point x="312" y="488"/>
      <point x="312" y="480" type="curve" smooth="yes"/>
      <point x="312" y="472"/>
      <point x="308" y="466"/>
      <point x="298" y="466" type="curve" smooth="yes"/>
      <point x="220" y="466" type="line" smooth="yes"/>
      <point x="210" y="466"/>
      <point x="204" y="456"/>
      <point x="204" y="436" type="curve" smooth="yes"/>
      <point x="204" y="378" type="line" smooth="yes"/>
      <point x="204" y="364"/>
      <point x="210" y="354"/>
    </contour>
  </outline>
</glyph>
<glyph name="meem-ar" format="2">
  <advance width="600"/>
  <unicode hex="0645"/>
  <anchor x="348" y="0" name="bottom"/>
  <anchor x="362" y="662" name="top"/>
  <outline>
    <contour>
      <point x="74" y="-376" type="curve" smooth="yes"/>
      <point x="182" y="-376" type="line" smooth="yes"/>
      <point x="194" y="-376"/>
      <point x="202" y="-366"/>
      <point x="202" y="-348" type="curve" smooth="yes"/>
      <point x="202" y="-34" type="line" smooth="yes"/>
      <point x="202" y="22"/>
      <point x="218" y="44"/>
      <point x="252" y="28" type="curve" smooth="yes"/>
      <point x="308" y="6" type="line" smooth="yes"/>
      <point x="460" y="-58"/>
      <point x="576" y="42"/>
      <point x="576" y="270" type="curve" smooth="yes"/>
      <point x="576" y="440"/>
      <point x="500" y="548"/>
      <point x="378" y="548" type="curve" smooth="yes"/>
      <point x="282" y="548"/>
      <point x="196" y="460"/>
      <point x="158" y="288" type="curve"/>
      <point x="90" y="268"/>
      <point x="54" y="190"/>
      <point x="54" y="52" type="curve" smooth="yes"/>
      <point x="54" y="-348" type="line" smooth="yes"/>
      <point x="54" y="-366"/>
      <point x="62" y="-376"/>
    </contour>
    <contour>
      <point x="376" y="218" type="curve" smooth="yes"/>
      <point x="348" y="218"/>
      <point x="328" y="226"/>
      <point x="288" y="250" type="curve"/>
      <point x="314" y="306"/>
      <point x="342" y="340"/>
      <point x="372" y="340" type="curve" smooth="yes"/>
      <point x="402" y="340"/>
      <point x="422" y="312"/>
      <point x="422" y="274" type="curve" smooth="yes"/>
      <point x="422" y="238"/>
      <point x="404" y="216"/>
    </contour>
  </outline>
</glyph>
<glyph name="heh-ar" format="2">
  <advance width="600"/>
  <unicode hex="0647"/>
  <anchor x="292" y="0" name="bottom"/>
  <anchor x="304" y="662" name="top"/>
  <anchor x="304" y="574" name="topDots"/>
  <outline>
    <contour>
      <point x="288" y="-6" type="curve" smooth="yes"/>
      <point x="312" y="-6" type="line" smooth="yes"/>
      <point x="440" y="-6"/>
      <point x="556" y="72"/>
      <point x="558" y="264" type="curve" smooth="yes"/>
      <point x="562" y="420"/>
      <point x="462" y="574"/>
      <point x="306" y="574" type="curve" smooth="yes"/>
      <point x="146" y="574"/>
      <point x="42" y="420"/>
      <point x="42" y="260" type="curve" smooth="yes"/>
      <point x="42" y="94"/>
      <point x="132" y="-6"/>
    </contour>
    <contour>
      <point x="294" y="230" type="line" smooth="yes"/>
      <point x="254" y="230"/>
      <point x="224" y="242"/>
      <point x="224" y="280" type="curve" smooth="yes"/>
      <point x="224" y="316"/>
      <point x="254" y="356"/>
      <point x="304" y="356" type="curve" smooth="yes"/>
      <point x="354" y="356"/>
      <point x="384" y="316"/>
      <point x="384" y="280" type="curve" smooth="yes"/>
      <point x="384" y="242"/>
      <point x="354" y="230"/>
      <point x="312" y="230" type="curve" smooth="yes"/>
    </contour>
  </outline>
</glyph>
<glyph name="alefMaksura-ar" format="2">
  <advance width="600"/>
  <unicode hex="0649"/>
  <anchor x="316" y="-224" name="bottom"/>
  <anchor x="316" y="-224" name="bottomDots"/>
  <anchor x="174" y="576" name="top"/>
  <outline>
    <contour>
      <point x="286" y="-224" type="curve" smooth="yes"/>
      <point x="336" y="-224" type="line" smooth="yes"/>
      <point x="466" y="-224"/>
      <point x="580" y="-166"/>
      <point x="580" y="84" type="curve" smooth="yes"/>
      <point x="580" y="204"/>
      <point x="528" y="270"/>
      <point x="428" y="292" type="curve" smooth="yes"/>
      <point x="362" y="308" type="line" smooth="yes"/>
      <point x="336" y="314"/>
      <point x="324" y="324"/>
      <point x="324" y="352" type="curve" smooth="yes"/>
      <point x="324" y="394"/>
      <point x="354" y="432"/>
      <point x="396" y="432" type="curve" smooth="yes"/>
      <point x="418" y="432"/>
      <point x="444" y="412"/>
      <point x="444" y="374" type="curve" smooth="yes"/>
      <point x="444" y="358"/>
      <point x="450" y="348"/>
      <point x="462" y="348" type="curve" smooth="yes"/>
      <point x="542" y="348" type="line" smooth="yes"/>
      <point x="558" y="348"/>
      <point x="560" y="358"/>
      <point x="560" y="386" type="curve" smooth="yes"/>
      <point x="560" y="506"/>
      <point x="490" y="630"/>
      <point x="394" y="630" type="curve" smooth="yes"/>
      <point x="286" y="630"/>
      <point x="208" y="508"/>
      <point x="208" y="344" type="curve" smooth="yes"/>
      <point x="208" y="238"/>
      <point x="240" y="148"/>
      <point x="332" y="134" type="curve" smooth="yes"/>
      <point x="400" y="124" type="line" smooth="yes"/>
      <point x="428" y="120"/>
      <point x="454" y="112"/>
      <point x="454" y="70" type="curve" smooth="yes"/>
      <point x="454" y="30"/>
      <point x="420" y="16"/>
      <point x="320" y="16" type="curve" smooth="yes"/>
      <point x="290" y="16" type="line" smooth="yes"/>
      <point x="202" y="16"/>
      <point x="146" y="88"/>
      <point x="146" y="204" type="curve" smooth="yes"/>
      <point x="144" y="246"/>
      <point x="150" y="292"/>
      <point x="162" y="342" type="curve" smooth="yes"/>
      <point x="170" y="372"/>
      <point x="166" y="382"/>
      <point x="144" y="394" type="curve" smooth="yes"/>
      <point x="90" y="422" type="line" smooth="yes"/>
      <point x="68" y="434"/>
      <point x="60" y="418"/>
      <point x="54" y="396" type="curve" smooth="yes"/>
      <point x="34" y="344"/>
      <point x="20" y="244"/>
      <point x="20" y="178" type="curve" smooth="yes"/>
      <point x="20" y="-56"/>
      <point x="126" y="-224"/>
    </contour>
  </outline>
</glyph>
<glyph name="fathatan-ar" format="2">
  <advance width="0" />
  <unicode hex="064B" />
  <outline>
    <contour>
      <point x="-84" y="0" type="line" />
      <point x="-28" y="0" type="line" />
      <point x="84" y="56" type="line" />
      <point x="28" y="56" type="line" />
    </contour>
    <contour>
      <point x="-84" y="56" type="line" />
      <point x="-28" y="56" type="line" />
      <point x="84" y="112" type="line" />
      <point x="28" y="112" type="line" />
    </contour>
  </outline>
  <anchor x="0" y="576" name="_top" />
  <anchor x="0" y="720" name="top" />
</glyph>
<glyph name="kasratan-ar" format="2">
  <advance width="0" />
  <unicode hex="064D" />
  <outline>
    <contour>
      <point x="-84" y="0" type="line" />
      <point x="-28" y="0" type="line" />
      <point x="84" y="56" type="line" />
      <point x="28" y="56" type="line" />
    </contour>
    <contour>
      <point x="-84" y="56" type="line" />
      <point x="-28" y="56" type="line" />
      <point x="84" y="112" type="line" />
      <point x="28" y="112" type="line" />
    </contour>
  </outline>
  <anchor x="0" y="0" name="_bottom" />
  <anchor x="0" y="-144" name="bottom" />
</glyph>
<glyph name="fatha-ar" format="2">
  <advance width="0" />
  <unicode hex="064E" />
  <outline>
    <contour>
      <point x="-84" y="0" type="line" />
      <point x="-28" y="0" type="line" />
      <point x="84" y="56" type="line" />
      <point x="28" y="56" type="line" />
    </contour>
  </outline>
  <anchor x="0" y="576" name="_top" />
  <anchor x="0" y="720" name="top" />
</glyph>
<glyph name="kasra-ar" format="2">
  <advance width="0" />
  <unicode hex="0650" />
  <outline>
    <contour>
      <point x="-84" y="0" type="line" />
      <point x="-28" y="0" type="line" />
      <point x="84" y="56" type="line" />
      <point x="28" y="56" type="line" />
    </contour>
  </outline>
  <anchor x="0" y="0" name="_bottom" />
  <anchor x="0" y="-144" name="bottom" />
</glyph>
<glyph name="shadda-ar" format="2">
  <unicode hex="0651"/>
  <anchor x="204" y="580" name="_top"/>
  <anchor x="204" y="806" name="top"/>
  <outline>
    <contour>
      <point x="156" y="678" type="curve" smooth="yes"/>
      <point x="178" y="682"/>
      <point x="192" y="694"/>
      <point x="204" y="718" type="curve"/>
      <point x="218" y="700"/>
      <point x="236" y="696"/>
      <point x="258" y="698" type="curve" smooth="yes"/>
      <point x="300" y="704"/>
      <point x="328" y="742"/>
      <point x="328" y="814" type="curve" smooth="yes"/>
      <point x="328" y="858" type="line" smooth="yes"/>
      <point x="328" y="870"/>
      <point x="320" y="876"/>
      <point x="310" y="872" type="curve" smooth="yes"/>
      <point x="290" y="868" type="line" smooth="yes"/>
      <point x="282" y="866"/>
      <point x="276" y="858"/>
      <point x="276" y="848" type="curve" smooth="yes"/>
      <point x="276" y="820" type="line" smooth="yes"/>
      <point x="276" y="794"/>
      <point x="272" y="784"/>
      <point x="252" y="782" type="curve" smooth="yes"/>
      <point x="236" y="780"/>
      <point x="230" y="784"/>
      <point x="230" y="806" type="curve" smooth="yes"/>
      <point x="230" y="836" type="line" smooth="yes"/>
      <point x="230" y="848"/>
      <point x="222" y="852"/>
      <point x="212" y="850" type="curve" smooth="yes"/>
      <point x="194" y="846" type="line" smooth="yes"/>
      <point x="184" y="844"/>
      <point x="180" y="836"/>
      <point x="180" y="826" type="curve" smooth="yes"/>
      <point x="180" y="796" type="line" smooth="yes"/>
      <point x="180" y="772"/>
      <point x="174" y="764"/>
      <point x="156" y="760" type="curve" smooth="yes"/>
      <point x="140" y="758"/>
      <point x="132" y="764"/>
      <point x="132" y="788" type="curve" smooth="yes"/>
      <point x="132" y="814" type="line" smooth="yes"/>
      <point x="132" y="826"/>
      <point x="124" y="832"/>
      <point x="114" y="828" type="curve" smooth="yes"/>
      <point x="96" y="824" type="line"/>
      <point x="88" y="820"/>
      <point x="82" y="814"/>
      <point x="82" y="804" type="curve" smooth="yes"/>
      <point x="82" y="760" type="line" smooth="yes"/>
      <point x="82" y="692"/>
      <point x="112" y="670"/>
    </contour>
  </outline>
</glyph>
<glyph name="noonGhunna-ar" format="2">
  <unicode hex="0658"/>
  <anchor x="0" y="576" name="_top"/>
  <anchor x="0" y="720" name="top"/>
  <outline>
    <contour>
      <point x="-112" y="592" type="line"/>
      <point x="-68" y="544" type="line"/>
      <point x="0" y="592" type="line"/>
      <point x="68" y="544" type="line"/>
      <point x="112" y="592" type="line"/>
      <point x="56" y="656" type="line"/>
      <point x="-56" y="656" type="line"/>
    </contour>
  </outline>
</glyph>
<glyph name="zero-ar" format="2">
	<unicode hex="0660" />
	<advance width="600" />
	<outline>
		<contour>
			<point x="262" y="346" type="line" />
			<point x="338" y="346" type="line" />
			<point x="338" y="422" type="line" />
			<point x="262" y="422" type="line" />
		</contour>
	</outline>
</glyph>
<glyph name="one-ar" format="2">
  <advance width="600"/>
  <unicode hex="0661"/>
  <outline>
    <contour>
      <point x="258" y="176" type="line"/>
      <point x="342" y="176" type="line"/>
      <point x="342" y="464" type="line"/>
      <point x="380" y="496" type="line"/>
      <point x="354" y="584" type="line"/>
      <point x="346" y="584" type="line"/>
      <point x="342" y="581" type="line"/>
      <point x="342" y="584" type="line"/>
      <point x="258" y="584" type="line"/>
      <point x="258" y="532" type="line"/>
      <point x="268" y="528" type="line"/>
      <point x="258" y="523" type="line"/>
    </contour>
  </outline>
</glyph>
<glyph name="two-ar" format="2">
  <advance width="600"/>
  <unicode hex="0662"/>
  <outline>
    <contour>
      <point x="132" y="500" type="line"/>
      <point x="360" y="492" type="line"/>
      <point x="384" y="424" type="line"/>
      <point x="328" y="372" type="line"/>
      <point x="188" y="340" type="line"/>
      <point x="112" y="260" type="line"/>
      <point x="112" y="176" type="line"/>
      <point x="480" y="176" type="line"/>
      <point x="480" y="260" type="line"/>
      <point x="188" y="260" type="line"/>
      <point x="252" y="312" type="line"/>
      <point x="384" y="340" type="line"/>
      <point x="468" y="416" type="line"/>
      <point x="468" y="508" type="line"/>
      <point x="384" y="584" type="line"/>
      <point x="204" y="584" type="line"/>
    </contour>
  </outline>
</glyph>
<glyph name="three-ar" format="2">
  <advance width="600"/>
  <unicode hex="0663"/>
  <outline>
    <contour>
      <point x="146" y="-6" type="curve" smooth="yes"/>
      <point x="262" y="-6" type="line" smooth="yes"/>
      <point x="274" y="-6"/>
      <point x="284" y="6"/>
      <point x="282" y="20" type="curve" smooth="yes"/>
      <point x="228" y="356" type="line"/>
      <point x="240" y="346"/>
      <point x="256" y="342"/>
      <point x="270" y="342" type="curve" smooth="yes"/>
      <point x="290" y="342"/>
      <point x="314" y="356"/>
      <point x="324" y="372" type="curve"/>
      <point x="342" y="354"/>
      <point x="372" y="338"/>
      <point x="416" y="338" type="curve" smooth="yes"/>
      <point x="494" y="338"/>
      <point x="556" y="398"/>
      <point x="556" y="564" type="curve" smooth="yes"/>
      <point x="556" y="644" type="line" smooth="yes"/>
      <point x="556" y="664"/>
      <point x="544" y="676"/>
      <point x="528" y="676" type="curve"/>
      <point x="452" y="674" type="line"/>
      <point x="438" y="674"/>
      <point x="426" y="658"/>
      <point x="426" y="640" type="curve" smooth="yes"/>
      <point x="428" y="576" type="line" smooth="yes"/>
      <point x="428" y="542"/>
      <point x="422" y="528"/>
      <point x="406" y="528" type="curve" smooth="yes"/>
      <point x="390" y="528"/>
      <point x="382" y="540"/>
      <point x="382" y="560" type="curve" smooth="yes"/>
      <point x="382" y="600" type="line" smooth="yes"/>
      <point x="382" y="622"/>
      <point x="370" y="638"/>
      <point x="356" y="638" type="curve"/>
      <point x="278" y="636" type="line"/>
      <point x="264" y="636"/>
      <point x="252" y="620"/>
      <point x="252" y="598" type="curve" smooth="yes"/>
      <point x="252" y="554" type="line" smooth="yes"/>
      <point x="252" y="526"/>
      <point x="240" y="520"/>
      <point x="228" y="520" type="curve" smooth="yes"/>
      <point x="214" y="522"/>
      <point x="204" y="532"/>
      <point x="200" y="552" type="curve" smooth="yes"/>
      <point x="186" y="652" type="line" smooth="yes"/>
      <point x="184" y="672"/>
      <point x="170" y="682"/>
      <point x="156" y="680" type="curve" smooth="yes"/>
      <point x="66" y="666" type="line" smooth="yes"/>
      <point x="50" y="664"/>
      <point x="42" y="646"/>
      <point x="44" y="626" type="curve" smooth="yes"/>
      <point x="126" y="20" type="line" smooth="yes"/>
      <point x="128" y="6"/>
      <point x="136" y="-6"/>
    </contour>
  </outline>
</glyph>
<glyph name="four-ar" format="2">
  <advance width="600"/>
  <unicode hex="0664"/>
  <outline>
    <contour>
      <point x="324" y="-14" type="curve" smooth="yes"/>
      <point x="502" y="-2" type="line" smooth="yes"/>
      <point x="528" y="-2"/>
      <point x="538" y="14"/>
      <point x="536" y="34" type="curve" smooth="yes"/>
      <point x="528" y="144" type="line" smooth="yes"/>
      <point x="528" y="162"/>
      <point x="516" y="176"/>
      <point x="494" y="174" type="curve" smooth="yes"/>
      <point x="306" y="160" type="line" smooth="yes"/>
      <point x="262" y="158"/>
      <point x="234" y="166"/>
      <point x="234" y="194" type="curve" smooth="yes"/>
      <point x="234" y="230"/>
      <point x="280" y="236"/>
      <point x="406" y="258" type="curve" smooth="yes"/>
      <point x="422" y="262"/>
      <point x="434" y="276"/>
      <point x="430" y="294" type="curve" smooth="yes"/>
      <point x="416" y="376" type="line" smooth="yes"/>
      <point x="412" y="392"/>
      <point x="402" y="406"/>
      <point x="386" y="404" type="curve" smooth="yes"/>
      <point x="354" y="400"/>
      <point x="320" y="388"/>
      <point x="286" y="388" type="curve" smooth="yes"/>
      <point x="264" y="388"/>
      <point x="246" y="400"/>
      <point x="246" y="418" type="curve" smooth="yes"/>
      <point x="246" y="438"/>
      <point x="260" y="452"/>
      <point x="312" y="468" type="curve" smooth="yes"/>
      <point x="462" y="516" type="line" smooth="yes"/>
      <point x="482" y="522"/>
      <point x="488" y="534"/>
      <point x="484" y="552" type="curve" smooth="yes"/>
      <point x="458" y="664" type="line" smooth="yes"/>
      <point x="454" y="682"/>
      <point x="440" y="696"/>
      <point x="418" y="690" type="curve" smooth="yes"/>
      <point x="304" y="660" type="line" smooth="yes"/>
      <point x="174" y="624"/>
      <point x="70" y="576"/>
      <point x="70" y="456" type="curve" smooth="yes"/>
      <point x="70" y="340"/>
      <point x="194" y="308"/>
      <point x="286" y="310" type="curve"/>
      <point x="286" y="354" type="line"/>
      <point x="146" y="326"/>
      <point x="64" y="260"/>
      <point x="64" y="160" type="curve" smooth="yes"/>
      <point x="64" y="18"/>
      <point x="196" y="-24"/>
    </contour>
  </outline>
</glyph>
<glyph name="five-ar" format="2">
  <advance width="600"/>
  <unicode hex="0665"/>
  <outline>
    <contour>
      <point x="290" y="-16" type="curve" smooth="yes"/>
      <point x="310" y="-16" type="line" smooth="yes"/>
      <point x="428" y="-16"/>
      <point x="536" y="66"/>
      <point x="538" y="242" type="curve" smooth="yes"/>
      <point x="540" y="386"/>
      <point x="436" y="528"/>
      <point x="306" y="528" type="curve" smooth="yes"/>
      <point x="170" y="528"/>
      <point x="62" y="386"/>
      <point x="62" y="240" type="curve" smooth="yes"/>
      <point x="62" y="86"/>
      <point x="148" y="-16"/>
    </contour>
    <contour>
      <point x="292" y="190" type="line" smooth="yes"/>
      <point x="248" y="190"/>
      <point x="220" y="202"/>
      <point x="220" y="246" type="curve" smooth="yes"/>
      <point x="220" y="290"/>
      <point x="252" y="332"/>
      <point x="304" y="332" type="curve" smooth="yes"/>
      <point x="356" y="332"/>
      <point x="386" y="290"/>
      <point x="386" y="244" type="curve" smooth="yes"/>
      <point x="386" y="202"/>
      <point x="356" y="190"/>
      <point x="312" y="190" type="curve" smooth="yes"/>
    </contour>
  </outline>
</glyph>
<glyph name="percent-ar" format="2">
	<unicode hex="066A" />
	<advance width="600" />
	<outline>
		<contour>
			<point x="116" y="160" type="line" />
			<point x="232" y="160" type="line" />
			<point x="520" y="584" type="line" />
			<point x="404" y="584" type="line" />
		</contour>
		<contour>
			<point x="128" y="492" type="line" />
			<point x="200" y="492" type="line" />
			<point x="200" y="564" type="line" />
			<point x="128" y="564" type="line" />
		</contour>
		<contour>
			<point x="420" y="196" type="line" />
			<point x="492" y="196" type="line" />
			<point x="492" y="268" type="line" />
			<point x="420" y="268" type="line" />
		</contour>
	</outline>
</glyph>
<glyph name="decimalseparator-ar" format="2">
	<unicode hex="066B" />
	<advance width="280" />
	<outline>
		<contour>
			<point x="112" y="92" type="line" />
			<point x="168" y="92" type="line" />
			<point x="168" y="148" type="line" />
			<point x="112" y="148" type="line" />
		</contour>
	</outline>
</glyph>
<glyph name="thousandseparator-ar" format="2">
	<unicode hex="066C" />
	<advance width="280" />
	<outline>
		<contour>
			<point x="112" y="444" type="line" />
			<point x="168" y="444" type="line" />
			<point x="168" y="500" type="line" />
			<point x="112" y="500" type="line" />
		</contour>
	</outline>
</glyph>
<glyph name="asterisk-ar" format="2">
  <advance width="600"/>
  <unicode hex="066D"/>
  <outline>
    <contour>
      <point x="258" y="232" type="line"/>
      <point x="342" y="232" type="line"/>
      <point x="342" y="584" type="line"/>
      <point x="258" y="584" type="line"/>
    </contour>
    <contour>
      <point x="124" y="342" type="line"/>
      <point x="476" y="342" type="line"/>
      <point x="476" y="426" type="line"/>
      <point x="124" y="426" type="line"/>
    </contour>
    <contour>
      <point x="160" y="244" type="line"/>
      <point x="212" y="220" type="line"/>
      <point x="440" y="524" type="line"/>
      <point x="388" y="548" type="line"/>
    </contour>
    <contour>
      <point x="160" y="524" type="line"/>
      <point x="388" y="220" type="line"/>
      <point x="440" y="244" type="line"/>
      <point x="212" y="548" type="line"/>
    </contour>
  </outline>
</glyph>
<glyph name="behDotless-ar" format="2">
  <advance width="600"/>
  <unicode hex="066E"/>
  <anchor x="298" y="0" name="bottom"/>
  <anchor x="300" y="-16" name="bottomDots"/>
  <anchor x="294" y="576" name="top"/>
  <anchor x="294" y="392" name="topDots"/>
  <outline>
    <contour>
      <point x="236" y="-12" type="curve" smooth="yes"/>
      <point x="358" y="-12" type="line" smooth="yes"/>
      <point x="494" y="-12"/>
      <point x="580" y="76"/>
      <point x="580" y="292" type="curve" smooth="yes"/>
      <point x="580" y="318"/>
      <point x="578" y="342"/>
      <point x="576" y="364" type="curve" smooth="yes"/>
      <point x="558" y="492" type="line" smooth="yes"/>
      <point x="556" y="512"/>
      <point x="548" y="526"/>
      <point x="536" y="520" type="curve" smooth="yes"/>
      <point x="454" y="490" type="line" smooth="yes"/>
      <point x="442" y="486"/>
      <point x="436" y="472"/>
      <point x="440" y="446" type="curve" smooth="yes"/>
      <point x="450" y="374" type="line" smooth="yes"/>
      <point x="454" y="348"/>
      <point x="456" y="328"/>
      <point x="456" y="312" type="curve" smooth="yes"/>
      <point x="456" y="260"/>
      <point x="436" y="244"/>
      <point x="374" y="244" type="curve" smooth="yes"/>
      <point x="254" y="244" type="line" smooth="yes"/>
      <point x="174" y="244"/>
      <point x="144" y="264"/>
      <point x="144" y="328" type="curve" smooth="yes"/>
      <point x="144" y="354"/>
      <point x="148" y="382"/>
      <point x="154" y="418" type="curve" smooth="yes"/>
      <point x="160" y="440"/>
      <point x="158" y="452"/>
      <point x="142" y="462" type="curve" smooth="yes"/>
      <point x="76" y="500" type="line" smooth="yes"/>
      <point x="60" y="510"/>
      <point x="56" y="498"/>
      <point x="52" y="482" type="curve" smooth="yes"/>
      <point x="34" y="416"/>
      <point x="20" y="344"/>
      <point x="20" y="272" type="curve" smooth="yes"/>
      <point x="20" y="74"/>
      <point x="112" y="-12"/>
    </contour>
  </outline>
</glyph>
<glyph name="qafDotless-ar" format="2">
  <advance width="600"/>
  <unicode hex="066F"/>
  <anchor x="388" y="544" name="topDots"/>
  <anchor x="300" y="-248" name="bottom"/>
  <anchor x="402" y="662" name="top"/>
  <outline>
    <contour>
      <point x="288" y="-286" type="curve" smooth="yes"/>
      <point x="302" y="-286" type="line" smooth="yes"/>
      <point x="518" y="-286"/>
      <point x="572" y="-62"/>
      <point x="572" y="228" type="curve"/>
      <point x="478" y="218" type="line"/>
      <point x="478" y="12"/>
      <point x="466" y="-46"/>
      <point x="322" y="-46" type="curve" smooth="yes"/>
      <point x="308" y="-46" type="line" smooth="yes"/>
      <point x="210" y="-46"/>
      <point x="146" y="16"/>
      <point x="146" y="152" type="curve" smooth="yes"/>
      <point x="146" y="190"/>
      <point x="150" y="222"/>
      <point x="162" y="266" type="curve" smooth="yes"/>
      <point x="170" y="302"/>
      <point x="164" y="314"/>
      <point x="142" y="322" type="curve" smooth="yes"/>
      <point x="84" y="346" type="line" smooth="yes"/>
      <point x="62" y="354"/>
      <point x="56" y="340"/>
      <point x="48" y="308" type="curve" smooth="yes"/>
      <point x="32" y="250"/>
      <point x="20" y="166"/>
      <point x="20" y="108" type="curve" smooth="yes"/>
      <point x="20" y="-144"/>
      <point x="136" y="-286"/>
    </contour>
    <contour>
      <point x="462" y="216" type="curve"/>
      <point x="572" y="218" type="line"/>
      <point x="572" y="418"/>
      <point x="502" y="544"/>
      <point x="398" y="544" type="curve" smooth="yes"/>
      <point x="292" y="544"/>
      <point x="234" y="402"/>
      <point x="234" y="260" type="curve" smooth="yes"/>
      <point x="234" y="126"/>
      <point x="284" y="38"/>
      <point x="360" y="28" type="curve" smooth="yes"/>
      <point x="418" y="20"/>
      <point x="474" y="56"/>
      <point x="492" y="114" type="curve"/>
      <point x="484" y="292" type="line"/>
      <point x="466" y="260"/>
      <point x="422" y="232"/>
      <point x="384" y="232" type="curve" smooth="yes"/>
      <point x="360" y="232"/>
      <point x="340" y="242"/>
      <point x="340" y="274" type="curve" smooth="yes"/>
      <point x="340" y="302"/>
      <point x="356" y="324"/>
      <point x="382" y="324" type="curve" smooth="yes"/>
      <point x="412" y="324"/>
      <point x="450" y="288"/>
    </contour>
  </outline>
</glyph>
<glyph name="tteheh-ar" format="2">
	<unicode hex="067A" />
	<advance width="600" />
	<outline>
		<contour>
			<point x="88" y="192" type="line" />
			<point x="132" y="128" type="line" />
			<point x="452" y="128" type="line" />
			<point x="520" y="192" type="line" />
			<point x="520" y="332" type="line" />
			<point x="440" y="252" type="line" />
			<point x="176" y="252" type="line" />
			<point x="88" y="332" type="line" />
		</contour>
		<contour>
			<point x="268" y="516" type="line" />
			<point x="332" y="516" type="line" />
			<point x="332" y="580" type="line" />
			<point x="268" y="580" type="line" />
		</contour>
		<contour>
			<point x="268" y="592" type="line" />
			<point x="332" y="592" type="line" />
			<point x="332" y="656" type="line" />
			<point x="268" y="656" type="line" />
		</contour>
	</outline>
</glyph>
<glyph name="tehRing-ar" format="2">
  <advance width="600"/>
  <unicode hex="067C"/>
  <outline>
    <contour>
      <point x="88" y="192" type="line"/>
      <point x="132" y="128" type="line"/>
      <point x="452" y="128" type="line"/>
      <point x="520" y="192" type="line"/>
      <point x="520" y="332" type="line"/>
      <point x="440" y="252" type="line"/>
      <point x="176" y="252" type="line"/>
      <point x="88" y="332" type="line"/>
    </contour>
    <contour>
      <point x="300" y="684" type="line"/>
      <point x="224" y="608" type="line"/>
      <point x="300" y="532" type="line"/>
      <point x="376" y="608" type="line"/>
    </contour>
    <contour>
      <point x="300" y="646" type="line"/>
      <point x="338" y="608" type="line"/>
      <point x="300" y="570" type="line"/>
      <point x="262" y="608" type="line"/>
    </contour>
  </outline>
</glyph>
<glyph name="tehThreedotsdown-ar" format="2">
	<unicode hex="067D" />
	<advance width="600" />
	<outline>
		<contour>
			<point x="88" y="192" type="line" />
			<point x="132" y="128" type="line" />
			<point x="452" y="128" type="line" />
			<point x="520" y="192" type="line" />
			<point x="520" y="332" type="line" />
			<point x="440" y="252" type="line" />
			<point x="176" y="252" type="line" />
			<point x="88" y="332" type="line" />
		</contour>
		<contour>
			<point x="212" y="572" type="line" />
			<point x="276" y="572" type="line" />
			<point x="276" y="636" type="line" />
			<point x="212" y="636" type="line" />
		</contour>
		<contour>
			<point x="324" y="572" type="line" />
			<point x="388" y="572" type="line" />
			<point x="388" y="636" type="line" />
			<point x="324" y="636" type="line" />
		</contour>
		<contour>
			<point x="268" y="644" type="line" />
			<point x="332" y="644" type="line" />
			<point x="332" y="708" type="line" />
			<point x="268" y="708" type="line" />
		</contour>
	</outline>
</glyph>
<glyph name="jeh-ar" format="2">
  <advance width="600"/>
  <unicode hex="0698"/>
  <outline>
    <contour>
      <point x="176" y="472" type="line"/>
      <point x="292" y="244" type="line"/>
      <point x="220" y="172" type="line"/>
      <point x="88" y="128" type="line"/>
      <point x="144" y="64" type="line"/>
      <point x="292" y="100" type="line"/>
      <point x="372" y="196" type="line"/>
      <point x="392" y="308" type="line"/>
      <point x="264" y="472" type="line"/>
    </contour>
    <contour>
      <point x="216" y="528" type="line"/>
      <point x="280" y="528" type="line"/>
      <point x="280" y="592" type="line"/>
      <point x="216" y="592" type="line"/>
    </contour>
    <contour>
      <point x="328" y="528" type="line"/>
      <point x="392" y="528" type="line"/>
      <point x="392" y="592" type="line"/>
      <point x="328" y="592" type="line"/>
    </contour>
    <contour>
      <point x="272" y="592" type="line"/>
      <point x="336" y="592" type="line"/>
      <point x="336" y="656" type="line"/>
      <point x="272" y="656" type="line"/>
    </contour>
  </outline>
</glyph>
<glyph name="seenSixdots-ar" format="2">
	<unicode hex="069C" />
	<advance width="864" />
	<outline>
		<contour>
			<point x="72" y="176" type="line" />
			<point x="144" y="112" type="line" />
			<point x="640" y="112" type="line" />
			<point x="776" y="196" type="line" />
			<point x="736" y="276" type="line" />
			<point x="592" y="220" type="line" />
			<point x="480" y="220" type="line" />
			<point x="480" y="340" type="line" />
			<point x="396" y="340" type="line" />
			<point x="396" y="220" type="line" />
			<point x="348" y="220" type="line" />
			<point x="348" y="340" type="line" />
			<point x="264" y="340" type="line" />
			<point x="264" y="220" type="line" />
			<point x="216" y="220" type="line" />
			<point x="216" y="340" type="line" />
			<point x="132" y="340" type="line" />
			<point x="132" y="220" type="line" />
			<point x="144" y="220" type="line" />
		</contour>
		<contour>
			<point x="272" y="572" type="line" />
			<point x="336" y="572" type="line" />
			<point x="336" y="636" type="line" />
			<point x="272" y="636" type="line" />
		</contour>
		<contour>
			<point x="384" y="572" type="line" />
			<point x="448" y="572" type="line" />
			<point x="448" y="636" type="line" />
			<point x="384" y="636" type="line" />
		</contour>
		<contour>
			<point x="328" y="644" type="line" />
			<point x="392" y="644" type="line" />
			<point x="392" y="708" type="line" />
			<point x="328" y="708" type="line" />
		</contour>
		<contour>
			<point x="272" y="-120" type="line" />
			<point x="336" y="-120" type="line" />
			<point x="336" y="-56" type="line" />
			<point x="272" y="-56" type="line" />
		</contour>
		<contour>
			<point x="384" y="-120" type="line" />
			<point x="448" y="-120" type="line" />
			<point x="448" y="-56" type="line" />
			<point x="384" y="-56" type="line" />
		</contour>
		<contour>
			<point x="328" y="-192" type="line" />
			<point x="392" y="-192" type="line" />
			<point x="392" y="-128" type="line" />
			<point x="328" y="-128" type="line" />
		</contour>
	</outline>
</glyph>
<glyph name="fehDotless-ar" format="2">
  <advance width="600"/>
  <unicode hex="06A1"/>
  <anchor x="258" y="0" name="bottom"/>
  <anchor x="434" y="774" name="top"/>
  <anchor x="434" y="764" name="topDots"/>
  <outline>
    <contour>
      <point x="216" y="-12" type="curve" smooth="yes"/>
      <point x="292" y="-12" type="line"/>
      <point x="292" y="244" type="line"/>
      <point x="226" y="244" type="line" smooth="yes"/>
      <point x="164" y="244"/>
      <point x="136" y="266"/>
      <point x="136" y="332" type="curve" smooth="yes"/>
      <point x="136" y="358"/>
      <point x="140" y="390"/>
      <point x="148" y="430" type="curve" smooth="yes"/>
      <point x="152" y="450"/>
      <point x="146" y="456"/>
      <point x="130" y="466" type="curve" smooth="yes"/>
      <point x="68" y="502" type="line" smooth="yes"/>
      <point x="56" y="508"/>
      <point x="50" y="500"/>
      <point x="46" y="484" type="curve" smooth="yes"/>
      <point x="30" y="424"/>
      <point x="18" y="342"/>
      <point x="18" y="274" type="curve" smooth="yes"/>
      <point x="18" y="84"/>
      <point x="108" y="-12"/>
    </contour>
    <contour>
      <point x="274" y="-12" type="curve" smooth="yes"/>
      <point x="390" y="-12" type="line" smooth="yes"/>
      <point x="546" y="-12"/>
      <point x="584" y="224"/>
      <point x="580" y="444" type="curve" smooth="yes"/>
      <point x="580" y="630"/>
      <point x="514" y="764"/>
      <point x="434" y="764" type="curve" smooth="yes"/>
      <point x="358" y="764"/>
      <point x="304" y="646"/>
      <point x="302" y="510" type="curve" smooth="yes"/>
      <point x="300" y="380"/>
      <point x="346" y="294"/>
      <point x="416" y="294" type="curve" smooth="yes"/>
      <point x="466" y="294"/>
      <point x="498" y="334"/>
      <point x="512" y="386" type="curve"/>
      <point x="486" y="438" type="line"/>
      <point x="502" y="294"/>
      <point x="484" y="244"/>
      <point x="406" y="244" type="curve" smooth="yes"/>
      <point x="274" y="244" type="line" smooth="yes"/>
      <point x="258" y="244"/>
      <point x="256" y="228"/>
      <point x="256" y="198" type="curve" smooth="yes"/>
      <point x="256" y="30" type="line" smooth="yes"/>
      <point x="256" y="16"/>
      <point x="252" y="-12"/>
    </contour>
    <contour>
      <point x="426" y="482" type="curve" smooth="yes"/>
      <point x="406" y="482"/>
      <point x="390" y="492"/>
      <point x="390" y="522" type="curve" smooth="yes"/>
      <point x="390" y="550"/>
      <point x="404" y="572"/>
      <point x="424" y="572" type="curve" smooth="yes"/>
      <point x="442" y="572"/>
      <point x="468" y="550"/>
      <point x="484" y="508" type="curve"/>
      <point x="466" y="492"/>
      <point x="444" y="482"/>
    </contour>
  </outline>
</glyph>
<glyph name="qafThreedotsabove-ar" format="2">
	<unicode hex="06A8" />
	<advance width="600" />
	<outline>
		<contour>
			<point x="72" y="192" type="line" />
			<point x="132" y="112" type="line" />
			<point x="460" y="112" type="line" />
			<point x="536" y="192" type="line" />
			<point x="536" y="348" type="line" />
			<point x="448" y="260" type="line" />
			<point x="172" y="260" type="line" />
			<point x="72" y="348" type="line" />
		</contour>
		<contour>
			<point x="212" y="572" type="line" />
			<point x="276" y="572" type="line" />
			<point x="276" y="636" type="line" />
			<point x="212" y="636" type="line" />
		</contour>
		<contour>
			<point x="324" y="572" type="line" />
			<point x="388" y="572" type="line" />
			<point x="388" y="636" type="line" />
			<point x="324" y="636" type="line" />
		</contour>
		<contour>
			<point x="268" y="644" type="line" />
			<point x="332" y="644" type="line" />
			<point x="332" y="708" type="line" />
			<point x="268" y="708" type="line" />
		</contour>
	</outline>
</glyph>
<glyph name="keheh-ar" format="2">
  <advance width="680"/>
  <unicode hex="06A9"/>
  <anchor x="350" y="0" name="bottom"/>
  <anchor x="344" y="732" name="gaf"/>
  <anchor x="284" y="776" name="top"/>
  <outline>
    <contour>
      <point x="264" y="-12" type="curve" smooth="yes"/>
      <point x="472" y="-12" type="line" smooth="yes"/>
      <point x="584" y="-12"/>
      <point x="662" y="94"/>
      <point x="662" y="260" type="curve" smooth="yes"/>
      <point x="662" y="382"/>
      <point x="620" y="434"/>
      <point x="520" y="506" type="curve" smooth="yes"/>
      <point x="428" y="570" type="line"/>
      <point x="626" y="650" type="line" smooth="yes"/>
      <point x="640" y="654"/>
      <point x="646" y="674"/>
      <point x="646" y="698" type="curve" smooth="yes"/>
      <point x="646" y="836" type="line" smooth="yes"/>
      <point x="646" y="862"/>
      <point x="638" y="870"/>
      <point x="622" y="862" type="curve" smooth="yes"/>
      <point x="344" y="732" type="line" smooth="yes"/>
      <point x="324" y="724"/>
      <point x="318" y="712"/>
      <point x="318" y="666" type="curve" smooth="yes"/>
      <point x="318" y="490" type="line" smooth="yes"/>
      <point x="318" y="446"/>
      <point x="330" y="432"/>
      <point x="346" y="418" type="curve" smooth="yes"/>
      <point x="490" y="310" type="line" smooth="yes"/>
      <point x="506" y="296"/>
      <point x="520" y="286"/>
      <point x="520" y="272" type="curve" smooth="yes"/>
      <point x="520" y="252"/>
      <point x="514" y="244"/>
      <point x="494" y="244" type="curve" smooth="yes"/>
      <point x="274" y="244" type="line" smooth="yes"/>
      <point x="198" y="244"/>
      <point x="164" y="266"/>
      <point x="164" y="332" type="curve" smooth="yes"/>
      <point x="164" y="358"/>
      <point x="170" y="390"/>
      <point x="180" y="430" type="curve" smooth="yes"/>
      <point x="184" y="450"/>
      <point x="178" y="456"/>
      <point x="158" y="466" type="curve" smooth="yes"/>
      <point x="82" y="502" type="line" smooth="yes"/>
      <point x="68" y="508"/>
      <point x="60" y="500"/>
      <point x="54" y="484" type="curve" smooth="yes"/>
      <point x="36" y="424"/>
      <point x="22" y="342"/>
      <point x="22" y="274" type="curve" smooth="yes"/>
      <point x="22" y="84"/>
      <point x="132" y="-12"/>
    </contour>
  </outline>
</glyph>
<glyph name="gaf-ar" format="2">
  <advance width="680"/>
  <unicode hex="06AF"/>
  <outline>
    <contour>
      <point x="112" y="160" type="line"/>
      <point x="568" y="160" type="line"/>
      <point x="568" y="240" type="line"/>
      <point x="268" y="240" type="line"/>
      <point x="392" y="372" type="line"/>
      <point x="540" y="372" type="line"/>
      <point x="540" y="452" type="line"/>
      <point x="348" y="452" type="line"/>
      <point x="184" y="288" type="line"/>
      <point x="112" y="288" type="line"/>
    </contour>
    <contour>
      <point x="248" y="544" type="line"/>
      <point x="280" y="468" type="line"/>
      <point x="592" y="564" type="line"/>
      <point x="560" y="640" type="line"/>
    </contour>
  </outline>
</glyph>
<glyph name="noonghunna-ar" format="2">
  <advance width="600"/>
  <unicode hex="06BA"/>
  <anchor x="272" y="-144" name="bottom"/>
  <anchor x="282" y="344" name="topDots"/>
  <outline>
    <contour>
      <point x="282" y="-172" type="curve" smooth="yes"/>
      <point x="466" y="-172"/>
      <point x="576" y="-6"/>
      <point x="576" y="194" type="curve" smooth="yes"/>
      <point x="576" y="290"/>
      <point x="560" y="376"/>
      <point x="538" y="470" type="curve" smooth="yes"/>
      <point x="532" y="498"/>
      <point x="522" y="496"/>
      <point x="506" y="490" type="curve" smooth="yes"/>
      <point x="406" y="454" type="line" smooth="yes"/>
      <point x="388" y="448"/>
      <point x="382" y="434"/>
      <point x="388" y="410" type="curve" smooth="yes"/>
      <point x="402" y="338"/>
      <point x="416" y="270"/>
      <point x="416" y="234" type="curve" smooth="yes"/>
      <point x="418" y="128"/>
      <point x="378" y="70"/>
      <point x="292" y="70" type="curve" smooth="yes"/>
      <point x="208" y="70"/>
      <point x="168" y="134"/>
      <point x="168" y="224" type="curve" smooth="yes"/>
      <point x="168" y="260"/>
      <point x="174" y="300"/>
      <point x="188" y="340" type="curve" smooth="yes"/>
      <point x="196" y="366"/>
      <point x="196" y="378"/>
      <point x="172" y="386" type="curve" smooth="yes"/>
      <point x="94" y="414" type="line" smooth="yes"/>
      <point x="76" y="420"/>
      <point x="68" y="410"/>
      <point x="56" y="376" type="curve" smooth="yes"/>
      <point x="38" y="318"/>
      <point x="24" y="242"/>
      <point x="24" y="172" type="curve" smooth="yes"/>
      <point x="24" y="-32"/>
      <point x="126" y="-172"/>
    </contour>
  </outline>
</glyph>
<glyph name="hehGoalHamzaabove-ar" format="2">
	<unicode hex="06C2" />
	<advance width="528" />
	<outline>
		<contour>
			<point x="104" y="176" type="line" />
			<point x="176" y="112" type="line" />
			<point x="360" y="112" type="line" />
			<point x="464" y="196" type="line" />
			<point x="464" y="328" type="line" />
			<point x="392" y="408" type="line" />
			<point x="272" y="408" type="line" />
			<point x="208" y="344" type="line" />
			<point x="236" y="288" type="line" />
			<point x="344" y="288" type="line" />
			<point x="376" y="236" type="line" />
			<point x="332" y="192" type="line" />
			<point x="184" y="192" type="line" />
		</contour>
		<contour>
			<point x="184" y="568" type="line" />
			<point x="328" y="568" type="line" />
			<point x="344" y="584" type="line" />
			<point x="344" y="616" type="line" />
			<point x="328" y="632" type="line" />
			<point x="280" y="632" type="line" />
			<point x="256" y="632" type="line" />
			<point x="240" y="648" type="line" />
			<point x="240" y="672" type="line" />
			<point x="336" y="672" type="line" />
			<point x="352" y="688" type="line" />
			<point x="352" y="720" type="line" />
			<point x="336" y="736" type="line" />
			<point x="216" y="736" type="line" />
			<point x="168" y="704" type="line" />
			<point x="168" y="656" type="line" />
			<point x="208" y="624" type="line" />
			<point x="184" y="624" type="line" />
		</contour>
	</outline>
</glyph>
<glyph name="yehBarree-ar" format="2">
	<unicode hex="06D2"/>
	<advance width="760"/>
	<outline>
		<contour>
			<point x="132" y="276" type="line"/>
			<point x="84" y="200" type="line"/>
			<point x="196" y="112" type="line"/>
			<point x="600" y="32" type="line"/>
			<point x="652" y="112" type="line"/>
			<point x="500" y="216" type="line"/>
			<point x="212" y="216" type="line"/>
		</contour>
		<contour>
			<point x="500" y="216" type="line"/>
			<point x="672" y="216" type="line"/>
			<point x="720" y="288" type="line"/>
			<point x="664" y="356" type="line"/>
			<point x="528" y="320" type="line"/>
		</contour>
	</outline>
</glyph>
<glyph name="smallHighThreeDots-ar" format="2">
  <unicode hex="06DB" />
  <advance width="0" />
  <anchor x="0" y="576" name="_top" />
  <anchor x="0" y="720" name="top" />
  <outline>
    <contour>
      <point x="-82" y="614" type="line" />
      <point x="-30" y="614" type="line" />
      <point x="-30" y="666" type="line" />
      <point x="-82" y="666" type="line" />
    </contour>
    <contour>
      <point x="30" y="614" type="line" />
      <point x="82" y="614" type="line" />
      <point x="82" y="666" type="line" />
      <point x="30" y="666" type="line" />
    </contour>
    <contour>
      <point x="-26" y="678" type="line" />
      <point x="26" y="678" type="line" />
      <point x="26" y="730" type="line" />
      <point x="-26" y="730" type="line" />
    </contour>
  </outline>
</glyph>
<glyph name="zeroFarsi-ar" format="2">
  <advance width="600"/>
  <unicode hex="06F0"/>
  <outline>
    <contour>
      <point x="300" y="520" type="line"/>
      <point x="196" y="520" type="line"/>
      <point x="120" y="444" type="line"/>
      <point x="120" y="340" type="line"/>
      <point x="196" y="264" type="line"/>
      <point x="300" y="264" type="line"/>
      <point x="404" y="264" type="line"/>
      <point x="480" y="340" type="line"/>
      <point x="480" y="444" type="line"/>
      <point x="404" y="520" type="line"/>
    </contour>
    <contour>
      <point x="300" y="444" type="line"/>
      <point x="356" y="444" type="line"/>
      <point x="404" y="396" type="line"/>
      <point x="356" y="340" type="line"/>
      <point x="300" y="340" type="line"/>
      <point x="244" y="340" type="line"/>
      <point x="196" y="396" type="line"/>
      <point x="244" y="444" type="line"/>
    </contour>
  </outline>
</glyph>
<glyph name="oneFarsi-ar" format="2">
  <advance width="600"/>
  <unicode hex="06F1"/>
  <outline>
    <contour>
      <point x="250" y="176" type="line"/>
      <point x="334" y="176" type="line"/>
      <point x="334" y="467" type="line"/>
      <point x="364" y="492" type="line"/>
      <point x="346" y="584" type="line"/>
      <point x="338" y="584" type="line"/>
      <point x="334" y="581" type="line"/>
      <point x="334" y="584" type="line"/>
      <point x="250" y="584" type="line"/>
      <point x="250" y="534" type="line"/>
      <point x="252" y="524" type="line"/>
      <point x="250" y="509" type="line"/>
    </contour>
  </outline>
</glyph>
<glyph name="fourFarsi-ar" format="2">
  <advance width="600"/>
  <unicode hex="06F4"/>
  <outline>
    <contour>
      <point x="170" y="-6" type="curve" smooth="yes"/>
      <point x="304" y="-6" type="line" smooth="yes"/>
      <point x="318" y="-6"/>
      <point x="330" y="6"/>
      <point x="328" y="20" type="curve" smooth="yes"/>
      <point x="216" y="652" type="line" smooth="yes"/>
      <point x="212" y="672"/>
      <point x="198" y="682"/>
      <point x="180" y="680" type="curve" smooth="yes"/>
      <point x="76" y="666" type="line" smooth="yes"/>
      <point x="58" y="664"/>
      <point x="48" y="646"/>
      <point x="52" y="626" type="curve" smooth="yes"/>
      <point x="148" y="20" type="line" smooth="yes"/>
      <point x="148" y="6"/>
      <point x="156" y="-6"/>
    </contour>
    <contour>
      <point x="196" y="342" type="line"/>
      <point x="524" y="342" type="line" smooth="yes"/>
      <point x="532" y="342"/>
      <point x="540" y="348"/>
      <point x="540" y="358" type="curve" smooth="yes"/>
      <point x="540" y="464" type="line" smooth="yes"/>
      <point x="540" y="472"/>
      <point x="532" y="480"/>
      <point x="524" y="480" type="curve" smooth="yes"/>
      <point x="444" y="480" type="line" smooth="yes"/>
      <point x="402" y="480"/>
      <point x="380" y="496"/>
      <point x="380" y="526" type="curve" smooth="yes"/>
      <point x="380" y="552"/>
      <point x="400" y="566"/>
      <point x="430" y="566" type="curve" smooth="yes"/>
      <point x="452" y="566"/>
      <point x="478" y="560"/>
      <point x="492" y="554" type="curve"/>
      <point x="508" y="550"/>
      <point x="510" y="554"/>
      <point x="516" y="574" type="curve" smooth="yes"/>
      <point x="532" y="650" type="line" smooth="yes"/>
      <point x="536" y="660"/>
      <point x="528" y="666"/>
      <point x="518" y="670" type="curve"/>
      <point x="488" y="684"/>
      <point x="456" y="692"/>
      <point x="426" y="692" type="curve" smooth="yes"/>
      <point x="336" y="692"/>
      <point x="266" y="636"/>
      <point x="266" y="556" type="curve" smooth="yes"/>
      <point x="266" y="524"/>
      <point x="280" y="494"/>
      <point x="296" y="480" type="curve"/>
      <point x="196" y="480" type="line"/>
    </contour>
  </outline>
</glyph>
<glyph name="fiveFarsi-ar" format="2">
  <advance width="600"/>
  <unicode hex="06F5"/>
  <outline>
    <contour>
      <point x="196" y="-6" type="curve" smooth="yes"/>
      <point x="246" y="-6"/>
      <point x="282" y="14"/>
      <point x="300" y="82" type="curve"/>
      <point x="318" y="14"/>
      <point x="352" y="-6"/>
      <point x="398" y="-6" type="curve" smooth="yes"/>
      <point x="474" y="-6"/>
      <point x="546" y="74"/>
      <point x="546" y="244" type="curve" smooth="yes"/>
      <point x="546" y="480"/>
      <point x="418" y="614"/>
      <point x="302" y="614" type="curve" smooth="yes"/>
      <point x="174" y="614"/>
      <point x="54" y="480"/>
      <point x="54" y="244" type="curve" smooth="yes"/>
      <point x="54" y="74"/>
      <point x="124" y="-6"/>
    </contour>
    <contour>
      <point x="222" y="202" type="curve" smooth="yes"/>
      <point x="196" y="202"/>
      <point x="184" y="218"/>
      <point x="184" y="262" type="curve" smooth="yes"/>
      <point x="184" y="352"/>
      <point x="236" y="418"/>
      <point x="300" y="418" type="curve" smooth="yes"/>
      <point x="358" y="418"/>
      <point x="416" y="352"/>
      <point x="416" y="262" type="curve" smooth="yes"/>
      <point x="416" y="218"/>
      <point x="404" y="202"/>
      <point x="378" y="202" type="curve" smooth="yes"/>
      <point x="352" y="202"/>
      <point x="344" y="218"/>
      <point x="344" y="258" type="curve" smooth="yes"/>
      <point x="344" y="290" type="line" smooth="yes"/>
      <point x="344" y="304"/>
      <point x="336" y="316"/>
      <point x="324" y="316" type="curve" smooth="yes"/>
      <point x="278" y="316" type="line" smooth="yes"/>
      <point x="266" y="316"/>
      <point x="256" y="304"/>
      <point x="256" y="290" type="curve" smooth="yes"/>
      <point x="256" y="258" type="line" smooth="yes"/>
      <point x="256" y="218"/>
      <point x="248" y="202"/>
    </contour>
  </outline>
</glyph>
<glyph name="sixFarsi-ar" format="2">
  <advance width="600"/>
  <unicode hex="06F6"/>
  <outline>
    <contour>
      <point x="392" y="584" type="line"/>
      <point x="196" y="296" type="line"/>
      <point x="232" y="232" type="line"/>
      <point x="324" y="232" type="line"/>
      <point x="520" y="520" type="line"/>
      <point x="484" y="584" type="line"/>
    </contour>
    <contour>
      <point x="152" y="232" type="line"/>
      <point x="208" y="232" type="line"/>
      <point x="208" y="288" type="line"/>
      <point x="152" y="288" type="line"/>
    </contour>
  </outline>
</glyph>
<glyph name="eightFarsi-ar" format="2">
  <advance width="600"/>
  <unicode hex="06F8"/>
  <outline>
    <contour>
      <point x="220" y="668" type="curve" smooth="yes"/>
      <point x="378" y="668" type="line" smooth="yes"/>
      <point x="392" y="668"/>
      <point x="398" y="660"/>
      <point x="404" y="642" type="curve" smooth="yes"/>
      <point x="554" y="46" type="line" smooth="yes"/>
      <point x="558" y="24"/>
      <point x="548" y="6"/>
      <point x="530" y="4" type="curve" smooth="yes"/>
      <point x="428" y="-16" type="line" smooth="yes"/>
      <point x="416" y="-18"/>
      <point x="402" y="-8"/>
      <point x="398" y="8" type="curve" smooth="yes"/>
      <point x="300" y="450" type="line"/>
      <point x="202" y="10" type="line" smooth="yes"/>
      <point x="198" y="-8"/>
      <point x="184" y="-16"/>
      <point x="172" y="-14" type="curve" smooth="yes"/>
      <point x="70" y="4" type="line" smooth="yes"/>
      <point x="52" y="8"/>
      <point x="42" y="26"/>
      <point x="46" y="46" type="curve" smooth="yes"/>
      <point x="196" y="644" type="line" smooth="yes"/>
      <point x="200" y="658"/>
      <point x="208" y="668"/>
    </contour>
  </outline>
</glyph>
<glyph name="nineFarsi-ar" format="2">
  <advance width="600"/>
  <unicode hex="06F9"/>
  <outline>
    <contour>
      <point x="398" y="-6" type="curve" smooth="yes"/>
      <point x="526" y="-6" type="line" smooth="yes"/>
      <point x="540" y="-6"/>
      <point x="554" y="0"/>
      <point x="552" y="32" type="curve" smooth="yes"/>
      <point x="520" y="452" type="line" smooth="yes"/>
      <point x="506" y="630"/>
      <point x="372" y="700"/>
      <point x="272" y="700" type="curve" smooth="yes"/>
      <point x="132" y="700"/>
      <point x="40" y="586"/>
      <point x="40" y="446" type="curve" smooth="yes"/>
      <point x="40" y="286"/>
      <point x="142" y="218"/>
      <point x="246" y="218" type="curve" smooth="yes"/>
      <point x="284" y="218"/>
      <point x="324" y="228"/>
      <point x="356" y="246" type="curve"/>
      <point x="374" y="20" type="line" smooth="yes"/>
      <point x="376" y="6"/>
      <point x="384" y="-6"/>
    </contour>
    <contour>
      <point x="264" y="400" type="curve" smooth="yes"/>
      <point x="224" y="400"/>
      <point x="184" y="416"/>
      <point x="184" y="458" type="curve" smooth="yes"/>
      <point x="184" y="498"/>
      <point x="216" y="520"/>
      <point x="258" y="520" type="curve" smooth="yes"/>
      <point x="290" y="520"/>
      <point x="316" y="504"/>
      <point x="332" y="480" type="curve" smooth="yes"/>
      <point x="344" y="460"/>
      <point x="350" y="440"/>
      <point x="352" y="416" type="curve"/>
      <point x="324" y="408"/>
      <point x="300" y="400"/>
    </contour>
  </outline>
</glyph>
<glyph name="kehehThreedotsabove-ar" format="2">
	<unicode hex="0763" />
	<advance width="680" />
	<outline>
		<contour>
			<point x="112" y="160" type="line" />
			<point x="568" y="160" type="line" />
			<point x="568" y="240" type="line" />
			<point x="268" y="240" type="line" />
			<point x="392" y="372" type="line" />
			<point x="540" y="372" type="line" />
			<point x="540" y="452" type="line" />
			<point x="348" y="452" type="line" />
			<point x="184" y="288" type="line" />
			<point x="112" y="288" type="line" />
		</contour>
		<contour>
			<point x="324" y="572" type="line" />
			<point x="388" y="572" type="line" />
			<point x="388" y="636" type="line" />
			<point x="324" y="636" type="line" />
		</contour>
		<contour>
			<point x="436" y="572" type="line" />
			<point x="500" y="572" type="line" />
			<point x="500" y="636" type="line" />
			<point x="436" y="636" type="line" />
		</contour>
		<contour>
			<point x="380" y="636" type="line" />
			<point x="444" y="636" type="line" />
			<point x="444" y="700" type="line" />
			<point x="380" y="700" type="line" />
		</contour>
	</outline>
</glyph>
<glyph name="bullet" format="2">
	<unicode hex="2022" />
	<advance width="600" />
	<outline>
		<contour>
			<point x="242" y="298" type="line" />
			<point x="358" y="298" type="line" />
			<point x="358" y="414" type="line" />
			<point x="242" y="414" type="line" />
		</contour>
	</outline>
</glyph>
<glyph name="ellipsis" format="2">
	<unicode hex="2026" />
	<advance width="600" />
	<outline>
		<contour>
			<point x="124" y="32" type="line" />
			<point x="188" y="32" type="line" />
			<point x="188" y="96" type="line" />
			<point x="124" y="96" type="line" />
		</contour>
		<contour>
			<point x="268" y="32" type="line" />
			<point x="332" y="32" type="line" />
			<point x="332" y="96" type="line" />
			<point x="268" y="96" type="line" />
		</contour>
		<contour>
			<point x="412" y="32" type="line" />
			<point x="476" y="32" type="line" />
			<point x="476" y="96" type="line" />
			<point x="412" y="96" type="line" />
		</contour>
	</outline>
</glyph>
<glyph name="euro" format="2">
	<unicode hex="20AC"/>
	<advance width="600"/>
	<outline>
		<contour>
			<point x="100" y="388" type="line"/>
			<point x="412" y="388" type="line"/>
			<point x="412" y="472" type="line"/>
			<point x="100" y="472" type="line"/>
		</contour>
		<contour>
			<point x="100" y="292" type="line"/>
			<point x="380" y="292" type="line"/>
			<point x="380" y="376" type="line"/>
			<point x="100" y="376" type="line"/>
		</contour>
		<contour>
			<point x="520" y="552" type="line"/>
			<point x="328" y="552" type="line"/>
			<point x="164" y="432" type="line"/>
			<point x="164" y="292" type="line"/>
			<point x="328" y="172" type="line"/>
			<point x="520" y="172" type="line"/>
			<point x="568" y="236" type="line"/>
			<point x="444" y="236" type="line"/>
			<point x="344" y="236" type="line"/>
			<point x="252" y="304" type="line"/>
			<point x="252" y="420" type="line"/>
			<point x="344" y="488" type="line"/>
			<point x="444" y="488" type="line"/>
			<point x="568" y="488" type="line"/>
		</contour>
	</outline>
</glyph>
<glyph name="uni20B9" format="2">
	<unicode hex="20B9" />
	<advance width="600" />
	<outline>
		<contour>
			<point x="88" y="552" type="line" />
			<point x="528" y="552" type="line" />
			<point x="528" y="632" type="line" />
			<point x="88" y="632" type="line" />
		</contour>
		<contour>
			<point x="88" y="432" type="line" />
			<point x="496" y="432" type="line" />
			<point x="496" y="512" type="line" />
			<point x="88" y="512" type="line" />
		</contour>
		<contour>
			<point x="136" y="96" type="line" />
			<point x="248" y="96" type="line" />
			<point x="248" y="568" type="line" />
			<point x="136" y="568" type="line" />
		</contour>
		<contour>
			<point x="190" y="328" type="line" />
			<point x="476" y="80" type="line" />
			<point x="544" y="156" type="line" />
			<point x="286" y="408" type="line" />
		</contour>
	</outline>
</glyph>
<glyph name="trademark" format="2">
  <advance width="760"/>
  <unicode hex="2122"/>
  <outline>
    <contour>
      <point x="64" y="528" type="line"/>
      <point x="288" y="528" type="line"/>
      <point x="288" y="612" type="line"/>
      <point x="64" y="612" type="line"/>
    </contour>
    <contour>
      <point x="102" y="316" type="line"/>
      <point x="186" y="316" type="line"/>
      <point x="186" y="528" type="line"/>
      <point x="102" y="528" type="line"/>
    </contour>
    <contour>
      <point x="352" y="316" type="line"/>
      <point x="352" y="584" type="line"/>
      <point x="436" y="584" type="line"/>
      <point x="436" y="316" type="line"/>
    </contour>
    <contour>
      <point x="592" y="316" type="line"/>
      <point x="676" y="316" type="line"/>
      <point x="676" y="584" type="line"/>
      <point x="592" y="584" type="line"/>
    </contour>
    <contour>
      <point x="352" y="584" type="line"/>
      <point x="444" y="316" type="line"/>
      <point x="500" y="316" type="line"/>
      <point x="592" y="584" type="line"/>
      <point x="528" y="584" type="line"/>
      <point x="472" y="440" type="line"/>
      <point x="416" y="584" type="line"/>
    </contour>
  </outline>
</glyph>
<glyph name="minus" format="2">
	<unicode hex="2212"/>
	<advance width="600"/>
	<outline>
		<contour>
			<point x="80" y="256" type="line"/>
			<point x="520" y="256" type="line"/>
			<point x="536" y="272" type="line"/>
			<point x="536" y="328" type="line"/>
			<point x="520" y="344" type="line"/>
			<point x="80" y="344" type="line"/>
			<point x="64" y="328" type="line"/>
			<point x="64" y="272" type="line"/>
		</contour>
	</outline>
</glyph>
<glyph name="dottedCircle" format="2">
  <unicode hex="25CC" />
  <advance width="600" />
  <anchor x="300" y="576" name="top" />
  <anchor x="300" y="0" name="bottom" />
  <outline>
    <contour>
      <point x="272" y="632" type="line" />
      <point x="328" y="632" type="line" />
      <point x="328" y="688" type="line" />
      <point x="272" y="688" type="line" />
    </contour>
    <contour>
      <point x="420" y="576" type="line" />
      <point x="476" y="576" type="line" />
      <point x="476" y="632" type="line" />
      <point x="420" y="632" type="line" />
    </contour>
    <contour>
      <point x="492" y="428" type="line" />
      <point x="548" y="428" type="line" />
      <point x="548" y="484" type="line" />
      <point x="492" y="484" type="line" />
    </contour>
    <contour>
      <point x="456" y="264" type="line" />
      <point x="512" y="264" type="line" />
      <point x="512" y="320" type="line" />
      <point x="456" y="320" type="line" />
    </contour>
    <contour>
      <point x="316" y="176" type="line" />
      <point x="372" y="176" type="line" />
      <point x="372" y="232" type="line" />
      <point x="316" y="232" type="line" />
    </contour>
    <contour>
      <point x="156" y="208" type="line" />
      <point x="212" y="208" type="line" />
      <point x="212" y="264" type="line" />
      <point x="156" y="264" type="line" />
    </contour>
    <contour>
      <point x="52" y="336" type="line" />
      <point x="108" y="336" type="line" />
      <point x="108" y="392" type="line" />
      <point x="52" y="392" type="line" />
    </contour>
    <contour>
      <point x="80" y="504" type="line" />
      <point x="136" y="504" type="line" />
      <point x="136" y="560" type="line" />
      <point x="80" y="560" type="line" />
    </contour>
  </outline>
</glyph>
<glyph name="keheh-ar.init" format="2">
  <advance width="416"/>
  <unicode hex="FB90"/>
  <anchor x="204" y="0" name="bottom"/>
  <anchor x="186" y="776" name="top"/>
  <anchor x="70" y="732" name="gaf"/>
  <outline>
    <contour>
      <point x="-4" y="-12" type="curve" smooth="yes"/>
      <point x="204" y="-12" type="line" smooth="yes"/>
      <point x="316" y="-12"/>
      <point x="398" y="94"/>
      <point x="398" y="260" type="curve" smooth="yes"/>
      <point x="398" y="382"/>
      <point x="354" y="434"/>
      <point x="252" y="506" type="curve" smooth="yes"/>
      <point x="156" y="570" type="line"/>
      <point x="362" y="650" type="line" smooth="yes"/>
      <point x="376" y="654"/>
      <point x="382" y="674"/>
      <point x="382" y="698" type="curve" smooth="yes"/>
      <point x="382" y="836" type="line" smooth="yes"/>
      <point x="382" y="862"/>
      <point x="372" y="870"/>
      <point x="358" y="862" type="curve" smooth="yes"/>
      <point x="70" y="732" type="line" smooth="yes"/>
      <point x="52" y="724"/>
      <point x="44" y="712"/>
      <point x="44" y="666" type="curve" smooth="yes"/>
      <point x="44" y="490" type="line" smooth="yes"/>
      <point x="44" y="446"/>
      <point x="56" y="432"/>
      <point x="74" y="418" type="curve" smooth="yes"/>
      <point x="220" y="310" type="line" smooth="yes"/>
      <point x="238" y="296"/>
      <point x="252" y="286"/>
      <point x="252" y="272" type="curve" smooth="yes"/>
      <point x="252" y="252"/>
      <point x="246" y="244"/>
      <point x="224" y="244" type="curve" smooth="yes"/>
      <point x="8" y="244" type="line" smooth="yes"/>
      <point x="-6" y="244"/>
      <point x="-14" y="232"/>
      <point x="-14" y="210" type="curve" smooth="yes"/>
      <point x="-14" y="6" type="line" smooth="yes"/>
      <point x="-14" y="-4"/>
      <point x="-10" y="-12"/>
    </contour>
  </outline>
</glyph>
<glyph name="keheh-ar.medi" format="2">
  <advance width="416"/>
  <unicode hex="FB91"/>
  <anchor x="210" y="0" name="bottom"/>
  <anchor x="192" y="776" name="top"/>
  <outline>
    <contour>
      <point x="-4" y="-12" type="curve" smooth="yes"/>
      <point x="70" y="-12" type="line" smooth="yes"/>
      <point x="152" y="-12"/>
      <point x="206" y="34"/>
      <point x="226" y="118" type="curve"/>
      <point x="292" y="8"/>
      <point x="324" y="-12"/>
      <point x="412" y="-12" type="curve" smooth="yes"/>
      <point x="426" y="-12"/>
      <point x="434" y="2"/>
      <point x="434" y="22" type="curve" smooth="yes"/>
      <point x="434" y="228" type="line" smooth="yes"/>
      <point x="434" y="238"/>
      <point x="430" y="244"/>
      <point x="424" y="244" type="curve" smooth="yes"/>
      <point x="368" y="244"/>
      <point x="364" y="244"/>
      <point x="318" y="314" type="curve" smooth="yes"/>
      <point x="180" y="522" type="line"/>
      <point x="360" y="628" type="line" smooth="yes"/>
      <point x="376" y="636"/>
      <point x="382" y="654"/>
      <point x="382" y="676" type="curve" smooth="yes"/>
      <point x="382" y="832" type="line" smooth="yes"/>
      <point x="382" y="854"/>
      <point x="372" y="860"/>
      <point x="358" y="852" type="curve" smooth="yes"/>
      <point x="56" y="672" type="line" smooth="yes"/>
      <point x="48" y="668"/>
      <point x="44" y="658"/>
      <point x="44" y="646" type="curve" smooth="yes"/>
      <point x="44" y="500" type="line" smooth="yes"/>
      <point x="44" y="458"/>
      <point x="48" y="454"/>
      <point x="64" y="428" type="curve" smooth="yes"/>
      <point x="140" y="316" type="line" smooth="yes"/>
      <point x="154" y="296"/>
      <point x="152" y="290"/>
      <point x="152" y="280" type="curve" smooth="yes"/>
      <point x="152" y="252"/>
      <point x="142" y="244"/>
      <point x="116" y="244" type="curve" smooth="yes"/>
      <point x="8" y="244" type="line" smooth="yes"/>
      <point x="-6" y="244"/>
      <point x="-14" y="232"/>
      <point x="-14" y="210" type="curve" smooth="yes"/>
      <point x="-14" y="6" type="line" smooth="yes"/>
      <point x="-14" y="-4"/>
      <point x="-10" y="-12"/>
    </contour>
  </outline>
</glyph>
<glyph name="noonghunna-ar.fina" format="2">
  <advance width="600"/>
  <unicode hex="FB9F"/>
  <anchor x="260" y="-144" name="bottom"/>
  <anchor x="268" y="344" name="topDots"/>
  <outline>
    <contour>
      <point x="268" y="-210" type="curve" smooth="yes"/>
      <point x="396" y="-210"/>
      <point x="488" y="-104"/>
      <point x="512" y="34" type="curve"/>
      <point x="534" y="-4"/>
      <point x="572" y="-12"/>
      <point x="594" y="-12" type="curve" smooth="yes"/>
      <point x="612" y="-12"/>
      <point x="620" y="2"/>
      <point x="620" y="22" type="curve" smooth="yes"/>
      <point x="620" y="228" type="line" smooth="yes"/>
      <point x="620" y="238"/>
      <point x="616" y="244"/>
      <point x="608" y="244" type="curve" smooth="yes"/>
      <point x="594" y="244" type="line" smooth="yes"/>
      <point x="568" y="244"/>
      <point x="550" y="250"/>
      <point x="544" y="286" type="curve" smooth="yes"/>
      <point x="536" y="340"/>
      <point x="532" y="376"/>
      <point x="520" y="432" type="curve" smooth="yes"/>
      <point x="516" y="450"/>
      <point x="508" y="460"/>
      <point x="494" y="456" type="curve" smooth="yes"/>
      <point x="394" y="422" type="line" smooth="yes"/>
      <point x="376" y="416"/>
      <point x="370" y="402"/>
      <point x="376" y="378" type="curve" smooth="yes"/>
      <point x="390" y="306"/>
      <point x="398" y="246"/>
      <point x="400" y="196" type="curve" smooth="yes"/>
      <point x="400" y="90"/>
      <point x="362" y="34"/>
      <point x="278" y="34" type="curve" smooth="yes"/>
      <point x="196" y="34"/>
      <point x="156" y="96"/>
      <point x="156" y="188" type="curve" smooth="yes"/>
      <point x="156" y="222"/>
      <point x="162" y="262"/>
      <point x="176" y="302" type="curve" smooth="yes"/>
      <point x="184" y="328"/>
      <point x="184" y="340"/>
      <point x="160" y="348" type="curve" smooth="yes"/>
      <point x="84" y="376" type="line" smooth="yes"/>
      <point x="66" y="384"/>
      <point x="58" y="374"/>
      <point x="46" y="338" type="curve" smooth="yes"/>
      <point x="28" y="280"/>
      <point x="16" y="204"/>
      <point x="16" y="134" type="curve" smooth="yes"/>
      <point x="16" y="-70"/>
      <point x="114" y="-210"/>
    </contour>
  </outline>
</glyph>
<glyph name="parenright-ar" format="2">
	<unicode hex="FD3F" />
	<advance width="600" />
	<outline>
		<contour>
			<point x="72" y="-96" type="line" />
			<point x="152" y="-96" type="line" />
			<point x="252" y="96" type="line" />
			<point x="280" y="352" type="line" />
			<point x="244" y="608" type="line" />
			<point x="140" y="800" type="line" />
			<point x="60" y="800" type="line" />
			<point x="144" y="604" type="line" />
			<point x="176" y="352" type="line" />
			<point x="152" y="100" type="line" />
		</contour>
	</outline>
</glyph>
<glyph name="ain-ar.fina" format="2">
  <advance width="600"/>
  <anchor x="246" y="-354" name="bottom"/>
  <anchor x="298" y="662" name="top"/>
  <anchor x="298" y="614" name="topDots"/>
  <outline>
    <contour>
      <point x="308" y="-438" type="curve" smooth="yes"/>
      <point x="520" y="-438" type="line" smooth="yes"/>
      <point x="536" y="-438"/>
      <point x="544" y="-428"/>
      <point x="544" y="-408" type="curve" smooth="yes"/>
      <point x="544" y="-218" type="line" smooth="yes"/>
      <point x="544" y="-198"/>
      <point x="536" y="-188"/>
      <point x="520" y="-188" type="curve" smooth="yes"/>
      <point x="362" y="-188" type="line" smooth="yes"/>
      <point x="252" y="-188"/>
      <point x="192" y="-170"/>
      <point x="192" y="-90" type="curve" smooth="yes"/>
      <point x="192" y="-22"/>
      <point x="266" y="48"/>
      <point x="348" y="118" type="curve"/>
      <point x="254" y="252" type="line"/>
      <point x="118" y="142"/>
      <point x="26" y="42"/>
      <point x="26" y="-120" type="curve" smooth="yes"/>
      <point x="26" y="-320"/>
      <point x="140" y="-438"/>
    </contour>
    <contour>
      <point x="592" y="-12" type="curve" smooth="yes"/>
      <point x="610" y="-12"/>
      <point x="622" y="2"/>
      <point x="622" y="26" type="curve" smooth="yes"/>
      <point x="622" y="224" type="line" smooth="yes"/>
      <point x="622" y="236"/>
      <point x="616" y="244"/>
      <point x="606" y="244" type="curve" smooth="yes"/>
      <point x="486" y="244" type="line" smooth="yes"/>
      <point x="362" y="244"/>
      <point x="352" y="260"/>
      <point x="298" y="320" type="curve" smooth="yes"/>
      <point x="214" y="412" type="line"/>
      <point x="248" y="422"/>
      <point x="276" y="428"/>
      <point x="306" y="428" type="curve" smooth="yes"/>
      <point x="368" y="428"/>
      <point x="376" y="406"/>
      <point x="376" y="386" type="curve" smooth="yes"/>
      <point x="374" y="364"/>
      <point x="346" y="334"/>
      <point x="288" y="282" type="curve"/>
      <point x="368" y="148" type="line"/>
      <point x="508" y="270"/>
      <point x="542" y="354"/>
      <point x="542" y="446" type="curve" smooth="yes"/>
      <point x="542" y="554"/>
      <point x="472" y="614"/>
      <point x="298" y="614" type="curve" smooth="yes"/>
      <point x="230" y="614"/>
      <point x="156" y="598"/>
      <point x="88" y="564" type="curve" smooth="yes"/>
      <point x="66" y="554"/>
      <point x="56" y="542"/>
      <point x="56" y="510" type="curve" smooth="yes"/>
      <point x="56" y="374" type="line" smooth="yes"/>
      <point x="56" y="344"/>
      <point x="62" y="330"/>
      <point x="80" y="310" type="curve" smooth="yes"/>
      <point x="164" y="208" type="line" smooth="yes"/>
      <point x="252" y="104"/>
      <point x="306" y="50"/>
      <point x="366" y="16" type="curve" smooth="yes"/>
      <point x="424" y="-18"/>
      <point x="492" y="-12"/>
    </contour>
  </outline>
</glyph>
<glyph name="alefMaksura-ar.fina" format="2">
  <advance width="600"/>
  <anchor x="298" y="-260" name="bottom"/>
  <anchor x="298" y="-264" name="bottomDots"/>
  <anchor x="312" y="388" name="top"/>
  <outline>
    <contour>
      <point x="274" y="-280" type="curve" smooth="yes"/>
      <point x="330" y="-280" type="line" smooth="yes"/>
      <point x="470" y="-280"/>
      <point x="572" y="-212"/>
      <point x="572" y="-18" type="curve" smooth="yes"/>
      <point x="572" y="16"/>
      <point x="566" y="32"/>
      <point x="536" y="54" type="curve"/>
      <point x="554" y="-12" type="line"/>
      <point x="596" y="-12" type="line" smooth="yes"/>
      <point x="612" y="-12"/>
      <point x="620" y="2"/>
      <point x="620" y="22" type="curve" smooth="yes"/>
      <point x="620" y="228" type="line" smooth="yes"/>
      <point x="620" y="238"/>
      <point x="616" y="244"/>
      <point x="608" y="244" type="curve" smooth="yes"/>
      <point x="370" y="244" type="line" smooth="yes"/>
      <point x="358" y="244"/>
      <point x="350" y="234"/>
      <point x="350" y="218" type="curve" smooth="yes"/>
      <point x="350" y="34" type="line" smooth="yes"/>
      <point x="350" y="16"/>
      <point x="358" y="8"/>
      <point x="370" y="8" type="curve" smooth="yes"/>
      <point x="424" y="8" type="line" smooth="yes"/>
      <point x="436" y="8"/>
      <point x="440" y="2"/>
      <point x="440" y="-8" type="curve" smooth="yes"/>
      <point x="440" y="-26"/>
      <point x="410" y="-38"/>
      <point x="340" y="-38" type="curve" smooth="yes"/>
      <point x="298" y="-38" type="line" smooth="yes"/>
      <point x="218" y="-38"/>
      <point x="178" y="24"/>
      <point x="178" y="112" type="curve" smooth="yes"/>
      <point x="178" y="158"/>
      <point x="186" y="208"/>
      <point x="204" y="262" type="curve" smooth="yes"/>
      <point x="214" y="292"/>
      <point x="218" y="306"/>
      <point x="190" y="316" type="curve" smooth="yes"/>
      <point x="110" y="352" type="line" smooth="yes"/>
      <point x="92" y="358"/>
      <point x="82" y="352"/>
      <point x="70" y="320" type="curve" smooth="yes"/>
      <point x="40" y="248"/>
      <point x="24" y="160"/>
      <point x="24" y="78" type="curve" smooth="yes"/>
      <point x="24" y="-100"/>
      <point x="98" y="-280"/>
    </contour>
  </outline>
</glyph>
<glyph name="beeh-ar.fina" format="2">
	<advance width="600" />
	<outline>
		<contour>
			<point x="88" y="192" type="line" />
			<point x="132" y="128" type="line" />
			<point x="452" y="128" type="line" />
			<point x="520" y="192" type="line" />
			<point x="520" y="332" type="line" />
			<point x="440" y="252" type="line" />
			<point x="176" y="252" type="line" />
			<point x="88" y="332" type="line" />
		</contour>
		<contour>
			<point x="268" y="-144" type="line" />
			<point x="332" y="-144" type="line" />
			<point x="332" y="-80" type="line" />
			<point x="268" y="-80" type="line" />
		</contour>
		<contour>
			<point x="268" y="-68" type="line" />
			<point x="332" y="-68" type="line" />
			<point x="332" y="-4" type="line" />
			<point x="268" y="-4" type="line" />
		</contour>
	</outline>
</glyph>
<glyph name="beeh-ar.medi" format="2">
	<advance width="600" />
	<outline>
		<contour>
			<point x="-24" y="128" type="line" />
			<point x="624" y="128" type="line" />
			<point x="624" y="212" type="line" />
			<point x="-24" y="212" type="line" />
		</contour>
		<contour>
			<point x="96" y="176" type="line" />
			<point x="176" y="128" type="line" />
			<point x="416" y="128" type="line" />
			<point x="496" y="196" type="line" />
			<point x="456" y="264" type="line" />
			<point x="208" y="264" type="line" />
		</contour>
		<contour>
			<point x="268" y="-144" type="line" />
			<point x="332" y="-144" type="line" />
			<point x="332" y="-80" type="line" />
			<point x="268" y="-80" type="line" />
		</contour>
		<contour>
			<point x="268" y="-68" type="line" />
			<point x="332" y="-68" type="line" />
			<point x="332" y="-4" type="line" />
			<point x="268" y="-4" type="line" />
		</contour>
	</outline>
</glyph>
<glyph name="behDotless-ar.fina" format="2">
  <advance width="600"/>
  <anchor x="266" y="0" name="bottom"/>
  <anchor x="284" y="-18" name="bottomDots"/>
  <anchor x="278" y="576" name="top"/>
  <anchor x="304" y="392" name="topDots"/>
  <outline>
    <contour>
      <point x="224" y="-12" type="curve" smooth="yes"/>
      <point x="324" y="-12" type="line" smooth="yes"/>
      <point x="416" y="-12"/>
      <point x="464" y="16"/>
      <point x="494" y="100" type="curve"/>
      <point x="518" y="16"/>
      <point x="554" y="-12"/>
      <point x="596" y="-12" type="curve" smooth="yes"/>
      <point x="608" y="-12"/>
      <point x="616" y="2"/>
      <point x="616" y="22" type="curve" smooth="yes"/>
      <point x="616" y="228" type="line" smooth="yes"/>
      <point x="616" y="238"/>
      <point x="612" y="244"/>
      <point x="606" y="244" type="curve" smooth="yes"/>
      <point x="604" y="244" type="line" smooth="yes"/>
      <point x="570" y="244"/>
      <point x="556" y="262"/>
      <point x="556" y="322" type="curve" smooth="yes"/>
      <point x="556" y="428" type="line" smooth="yes"/>
      <point x="556" y="450"/>
      <point x="550" y="464"/>
      <point x="538" y="464" type="curve" smooth="yes"/>
      <point x="464" y="464" type="line" smooth="yes"/>
      <point x="452" y="464"/>
      <point x="446" y="450"/>
      <point x="446" y="428" type="curve" smooth="yes"/>
      <point x="446" y="366" type="line" smooth="yes"/>
      <point x="446" y="278"/>
      <point x="426" y="244"/>
      <point x="358" y="244" type="curve" smooth="yes"/>
      <point x="220" y="244" type="line" smooth="yes"/>
      <point x="172" y="244"/>
      <point x="138" y="260"/>
      <point x="138" y="332" type="curve" smooth="yes"/>
      <point x="138" y="356"/>
      <point x="140" y="384"/>
      <point x="148" y="422" type="curve" smooth="yes"/>
      <point x="154" y="446"/>
      <point x="150" y="454"/>
      <point x="140" y="460" type="curve"/>
      <point x="72" y="500" type="line" smooth="yes"/>
      <point x="60" y="508"/>
      <point x="54" y="498"/>
      <point x="48" y="480" type="curve" smooth="yes"/>
      <point x="28" y="408"/>
      <point x="18" y="342"/>
      <point x="18" y="280" type="curve" smooth="yes"/>
      <point x="18" y="106"/>
      <point x="94" y="-12"/>
    </contour>
  </outline>
</glyph>
<glyph name="commaaccent" format="2">
	<advance width="260" />
	<outline>
		<contour>
			<point x="92" y="-192" type="line" />
			<point x="156" y="-192" type="line" />
			<point x="188" y="-72" type="line" />
			<point x="172" y="-40" type="line" />
			<point x="108" y="-40" type="line" />
			<point x="124" y="-72" type="line" />
		</contour>
	</outline>
</glyph>
<glyph name="doublestroke-ar" format="2">
	<advance width="600" />
	<outline>
		<contour>
			<point x="228" y="120" type="line" />
			<point x="312" y="120" type="line" />
			<point x="312" y="640" type="line" />
			<point x="228" y="640" type="line" />
		</contour>
		<contour>
			<point x="324" y="120" type="line" />
			<point x="408" y="120" type="line" />
			<point x="408" y="640" type="line" />
			<point x="324" y="640" type="line" />
		</contour>
	</outline>
</glyph>
<glyph name="fehDotless-ar.fina" format="2">
  <advance width="600"/>
  <anchor x="322" y="0" name="bottom"/>
  <anchor x="450" y="576" name="top"/>
  <anchor x="448" y="624" name="topDots"/>
  <outline>
    <contour>
      <point x="200" y="-12" type="curve" smooth="yes"/>
      <point x="300" y="-12" type="line" smooth="yes"/>
      <point x="394" y="-12"/>
      <point x="410" y="2"/>
      <point x="444" y="50" type="curve"/>
      <point x="490" y="-4"/>
      <point x="502" y="-12"/>
      <point x="592" y="-12" type="curve" smooth="yes"/>
      <point x="606" y="-12"/>
      <point x="614" y="6"/>
      <point x="614" y="34" type="curve" smooth="yes"/>
      <point x="614" y="222" type="line" smooth="yes"/>
      <point x="614" y="234"/>
      <point x="608" y="244"/>
      <point x="602" y="244" type="curve" smooth="yes"/>
      <point x="584" y="244"/>
      <point x="566" y="244"/>
      <point x="546" y="244" type="curve"/>
      <point x="560" y="286"/>
      <point x="568" y="334"/>
      <point x="568" y="384" type="curve" smooth="yes"/>
      <point x="568" y="506"/>
      <point x="524" y="624"/>
      <point x="448" y="624" type="curve" smooth="yes"/>
      <point x="368" y="624"/>
      <point x="320" y="508"/>
      <point x="320" y="386" type="curve" smooth="yes"/>
      <point x="320" y="338"/>
      <point x="328" y="288"/>
      <point x="344" y="244" type="curve"/>
      <point x="336" y="244"/>
      <point x="314" y="244"/>
      <point x="300" y="244" type="curve" smooth="yes"/>
      <point x="210" y="244" type="line" smooth="yes"/>
      <point x="152" y="244"/>
      <point x="124" y="262"/>
      <point x="124" y="330" type="curve" smooth="yes"/>
      <point x="124" y="356"/>
      <point x="128" y="388"/>
      <point x="136" y="428" type="curve"/>
      <point x="138" y="450"/>
      <point x="134" y="456"/>
      <point x="118" y="466" type="curve" smooth="yes"/>
      <point x="64" y="500" type="line"/>
      <point x="52" y="506"/>
      <point x="48" y="502"/>
      <point x="40" y="476" type="curve" smooth="yes"/>
      <point x="22" y="394"/>
      <point x="16" y="326"/>
      <point x="16" y="276" type="curve" smooth="yes"/>
      <point x="16" y="78"/>
      <point x="102" y="-12"/>
    </contour>
    <contour>
      <point x="446" y="284" type="curve"/>
      <point x="422" y="312"/>
      <point x="416" y="338"/>
      <point x="416" y="368" type="curve" smooth="yes"/>
      <point x="416" y="402"/>
      <point x="428" y="426"/>
      <point x="446" y="426" type="curve" smooth="yes"/>
      <point x="464" y="426"/>
      <point x="476" y="400"/>
      <point x="476" y="364" type="curve" smooth="yes"/>
      <point x="476" y="336"/>
      <point x="466" y="310"/>
    </contour>
  </outline>
</glyph>
<glyph name="fehDotmovedbelow-ar.fina" format="2">
	<advance width="600" />
	<outline>
		<contour>
			<point x="72" y="192" type="line" />
			<point x="132" y="112" type="line" />
			<point x="460" y="112" type="line" />
			<point x="536" y="192" type="line" />
			<point x="536" y="348" type="line" />
			<point x="448" y="260" type="line" />
			<point x="172" y="260" type="line" />
			<point x="72" y="348" type="line" />
		</contour>
		<contour>
			<point x="268" y="-120" type="line" />
			<point x="332" y="-120" type="line" />
			<point x="332" y="-56" type="line" />
			<point x="268" y="-56" type="line" />
		</contour>
	</outline>
</glyph>
<glyph name="fehThreedotsbelow-ar.fina" format="2">
	<advance width="600" />
	<outline>
		<contour>
			<point x="72" y="192" type="line" />
			<point x="132" y="112" type="line" />
			<point x="460" y="112" type="line" />
			<point x="536" y="192" type="line" />
			<point x="536" y="348" type="line" />
			<point x="448" y="260" type="line" />
			<point x="172" y="260" type="line" />
			<point x="72" y="348" type="line" />
		</contour>
		<contour>
			<point x="212" y="-120" type="line" />
			<point x="276" y="-120" type="line" />
			<point x="276" y="-56" type="line" />
			<point x="212" y="-56" type="line" />
		</contour>
		<contour>
			<point x="324" y="-120" type="line" />
			<point x="388" y="-120" type="line" />
			<point x="388" y="-56" type="line" />
			<point x="324" y="-56" type="line" />
		</contour>
		<contour>
			<point x="268" y="-184" type="line" />
			<point x="332" y="-184" type="line" />
			<point x="332" y="-120" type="line" />
			<point x="268" y="-120" type="line" />
		</contour>
	</outline>
</glyph>
<glyph name="five.tf" format="2">
	<advance width="712"/>
	<outline>
		<contour>
			<point x="350" y="-16" type="curve"/>
			<point x="520" y="-16"/>
			<point x="646" y="72"/>
			<point x="646" y="268" type="curve"/>
			<point x="646" y="414"/>
			<point x="540" y="520"/>
			<point x="376" y="520" type="curve"/>
			<point x="310" y="520"/>
			<point x="264" y="496"/>
			<point x="230" y="470" type="curve"/>
			<point x="222" y="470" type="line"/>
			<point x="256" y="616" type="line"/>
			<point x="264" y="624" type="line"/>
			<point x="586" y="624" type="line"/>
			<point x="602" y="640" type="line"/>
			<point x="602" y="728" type="line"/>
			<point x="586" y="744" type="line"/>
			<point x="166" y="744" type="line"/>
			<point x="150" y="728" type="line"/>
			<point x="70" y="364" type="line"/>
			<point x="70" y="348" type="line"/>
			<point x="86" y="332" type="line"/>
			<point x="222" y="332" type="line"/>
			<point x="246" y="372"/>
			<point x="288" y="392"/>
			<point x="356" y="392" type="curve"/>
			<point x="436" y="392"/>
			<point x="482" y="344"/>
			<point x="482" y="268" type="curve"/>
			<point x="482" y="188"/>
			<point x="444" y="128"/>
			<point x="350" y="128" type="curve"/>
			<point x="280" y="128"/>
			<point x="230" y="164"/>
			<point x="214" y="228" type="curve"/>
			<point x="198" y="244" type="line"/>
			<point x="54" y="244" type="line"/>
			<point x="38" y="228" type="line"/>
			<point x="38" y="100"/>
			<point x="158" y="-16"/>
		</contour>
	</outline>
</glyph>
<glyph name="four.tf" format="2">
	<advance width="712"/>
	<outline>
		<contour>
			<point x="449" y="0" type="line"/>
			<point x="609" y="0" type="line"/>
			<point x="625" y="16" type="line"/>
			<point x="625" y="150" type="line"/>
			<point x="633" y="158" type="line"/>
			<point x="667" y="158" type="line"/>
			<point x="683" y="174" type="line"/>
			<point x="683" y="278" type="line"/>
			<point x="667" y="294" type="line"/>
			<point x="633" y="294" type="line"/>
			<point x="625" y="302" type="line"/>
			<point x="625" y="728" type="line"/>
			<point x="609" y="744" type="line"/>
			<point x="481" y="744" type="line"/>
			<point x="29" y="286" type="line"/>
			<point x="29" y="174" type="line"/>
			<point x="45" y="158" type="line"/>
			<point x="441" y="158" type="line"/>
			<point x="449" y="150" type="line"/>
			<point x="449" y="16" type="line"/>
		</contour>
		<contour>
			<point x="209" y="294" type="line"/>
			<point x="209" y="302" type="line"/>
			<point x="441" y="560" type="line"/>
			<point x="449" y="560" type="line"/>
			<point x="449" y="302" type="line"/>
			<point x="441" y="294" type="line"/>
		</contour>
	</outline>
</glyph>
<glyph name="gaf-ar.init" format="2">
  <advance width="416"/>
  <outline>
    <contour>
      <point x="-24" y="128" type="line"/>
      <point x="440" y="128" type="line"/>
      <point x="440" y="212" type="line"/>
      <point x="-24" y="212" type="line"/>
    </contour>
    <contour>
      <point x="88" y="168" type="line"/>
      <point x="356" y="168" type="line"/>
      <point x="356" y="244" type="line"/>
      <point x="224" y="244" type="line"/>
      <point x="324" y="352" type="line"/>
      <point x="396" y="352" type="line"/>
      <point x="396" y="428" type="line"/>
      <point x="288" y="428" type="line"/>
      <point x="116" y="248" type="line"/>
    </contour>
    <contour>
      <point x="144" y="520" type="line"/>
      <point x="172" y="448" type="line"/>
      <point x="420" y="532" type="line"/>
      <point x="392" y="604" type="line"/>
    </contour>
  </outline>
</glyph>
<glyph name="gafsarkashabove-ar" format="2">
  <advance width="600"/>
  <outline>
    <contour>
      <point x="144" y="572" type="line"/>
      <point x="176" y="496" type="line"/>
      <point x="488" y="592" type="line"/>
      <point x="456" y="668" type="line"/>
    </contour>
  </outline>
</glyph>
<glyph name="gafsarkashcenter-ar" format="2">
  <advance width="600"/>
  <outline>
    <contour>
      <point x="144" y="420" type="line"/>
      <point x="176" y="344" type="line"/>
      <point x="488" y="440" type="line"/>
      <point x="456" y="516" type="line"/>
    </contour>
  </outline>
</glyph>
<glyph name="hah-ar.fina" format="2">
  <advance width="600"/>
  <anchor x="250" y="-354" name="bottom"/>
  <anchor x="306" y="32" name="center"/>
  <anchor x="224" y="662" name="top"/>
  <anchor x="264" y="594" name="topDots"/>
  <outline>
    <contour>
      <point x="316" y="-378" type="curve" smooth="yes"/>
      <point x="498" y="-378" type="line" smooth="yes"/>
      <point x="514" y="-378"/>
      <point x="522" y="-366"/>
      <point x="522" y="-344" type="curve" smooth="yes"/>
      <point x="522" y="-158" type="line" smooth="yes"/>
      <point x="522" y="-136"/>
      <point x="514" y="-122"/>
      <point x="496" y="-122" type="curve" smooth="yes"/>
      <point x="334" y="-122" type="line" smooth="yes"/>
      <point x="218" y="-122"/>
      <point x="172" y="-80"/>
      <point x="172" y="4" type="curve" smooth="yes"/>
      <point x="172" y="148"/>
      <point x="308" y="224"/>
      <point x="500" y="286" type="curve"/>
      <point x="472" y="416" type="line"/>
      <point x="154" y="380"/>
      <point x="32" y="184"/>
      <point x="32" y="-34" type="curve" smooth="yes"/>
      <point x="32" y="-220"/>
      <point x="144" y="-378"/>
    </contour>
    <contour>
      <point x="554" y="-12" type="curve" smooth="yes"/>
      <point x="596" y="-12" type="line" smooth="yes"/>
      <point x="610" y="-12"/>
      <point x="620" y="2"/>
      <point x="620" y="22" type="curve" smooth="yes"/>
      <point x="620" y="228" type="line" smooth="yes"/>
      <point x="620" y="238"/>
      <point x="614" y="244"/>
      <point x="608" y="244" type="curve" smooth="yes"/>
      <point x="526" y="244" type="line" smooth="yes"/>
      <point x="464" y="244"/>
      <point x="460" y="254"/>
      <point x="458" y="308" type="curve"/>
      <point x="370" y="270" type="line"/>
      <point x="370" y="62"/>
      <point x="440" y="-12"/>
    </contour>
    <contour>
      <point x="446" y="272" type="line"/>
      <point x="542" y="272" type="line" smooth="yes"/>
      <point x="558" y="272"/>
      <point x="568" y="286"/>
      <point x="568" y="306" type="curve" smooth="yes"/>
      <point x="568" y="446" type="line" smooth="yes"/>
      <point x="568" y="468"/>
      <point x="564" y="480"/>
      <point x="546" y="480" type="curve" smooth="yes"/>
      <point x="512" y="480" type="line" smooth="yes"/>
      <point x="378" y="480"/>
      <point x="348" y="638"/>
      <point x="216" y="638" type="curve" smooth="yes"/>
      <point x="116" y="638"/>
      <point x="24" y="510"/>
      <point x="24" y="376" type="curve" smooth="yes"/>
      <point x="24" y="356"/>
      <point x="32" y="344"/>
      <point x="54" y="344" type="curve" smooth="yes"/>
      <point x="116" y="344" type="line" smooth="yes"/>
      <point x="138" y="344"/>
      <point x="142" y="348"/>
      <point x="160" y="374" type="curve" smooth="yes"/>
      <point x="172" y="394"/>
      <point x="196" y="400"/>
      <point x="216" y="400" type="curve" smooth="yes"/>
      <point x="316" y="400"/>
      <point x="336" y="292"/>
      <point x="446" y="294" type="curve"/>
    </contour>
  </outline>
</glyph>
<glyph name="hah-ar.medi" format="2">
  <advance width="600"/>
  <anchor x="272" y="0" name="bottom"/>
  <anchor x="372" y="66" name="bottomDots"/>
  <anchor x="216" y="662" name="top"/>
  <anchor x="248" y="570" name="topDots"/>
  <outline>
    <contour>
      <point x="-4" y="-12" type="curve" smooth="yes"/>
      <point x="138" y="-12" type="line" smooth="yes"/>
      <point x="270" y="-12"/>
      <point x="376" y="94"/>
      <point x="422" y="174" type="curve" smooth="yes"/>
      <point x="504" y="322" type="line"/>
      <point x="460" y="388" type="line"/>
      <point x="390" y="316" type="line" smooth="yes"/>
      <point x="334" y="260"/>
      <point x="286" y="244"/>
      <point x="210" y="244" type="curve" smooth="yes"/>
      <point x="8" y="244" type="line" smooth="yes"/>
      <point x="-8" y="244"/>
      <point x="-16" y="232"/>
      <point x="-16" y="210" type="curve" smooth="yes"/>
      <point x="-16" y="6" type="line" smooth="yes"/>
      <point x="-16" y="-4"/>
      <point x="-10" y="-12"/>
    </contour>
    <contour>
      <point x="576" y="-12" type="curve" smooth="yes"/>
      <point x="596" y="-12" type="line" smooth="yes"/>
      <point x="610" y="-12"/>
      <point x="620" y="2"/>
      <point x="620" y="22" type="curve" smooth="yes"/>
      <point x="620" y="228" type="line" smooth="yes"/>
      <point x="620" y="238"/>
      <point x="614" y="244"/>
      <point x="608" y="244" type="curve" smooth="yes"/>
      <point x="518" y="244" type="line" smooth="yes"/>
      <point x="478" y="244"/>
      <point x="472" y="254"/>
      <point x="472" y="330" type="curve"/>
      <point x="386" y="208" type="line"/>
      <point x="424" y="46"/>
      <point x="480" y="-12"/>
    </contour>
    <contour>
      <point x="462" y="282" type="line"/>
      <point x="536" y="282" type="line" smooth="yes"/>
      <point x="550" y="282"/>
      <point x="560" y="296"/>
      <point x="560" y="316" type="curve" smooth="yes"/>
      <point x="560" y="452" type="line" smooth="yes"/>
      <point x="560" y="476"/>
      <point x="558" y="486"/>
      <point x="540" y="486" type="curve" smooth="yes"/>
      <point x="512" y="486" type="line" smooth="yes"/>
      <point x="378" y="486"/>
      <point x="348" y="582"/>
      <point x="218" y="582" type="curve" smooth="yes"/>
      <point x="118" y="582"/>
      <point x="24" y="478"/>
      <point x="24" y="344" type="curve" smooth="yes"/>
      <point x="24" y="324"/>
      <point x="34" y="312"/>
      <point x="54" y="312" type="curve" smooth="yes"/>
      <point x="118" y="312" type="line" smooth="yes"/>
      <point x="140" y="312"/>
      <point x="142" y="316"/>
      <point x="160" y="342" type="curve" smooth="yes"/>
      <point x="174" y="362"/>
      <point x="196" y="368"/>
      <point x="218" y="368" type="curve" smooth="yes"/>
      <point x="318" y="368"/>
      <point x="336" y="282"/>
      <point x="464" y="284" type="curve"/>
    </contour>
  </outline>
</glyph>
<glyph name="hamzaaboveDamma-ar" format="2">
	<advance width="0" />
	<outline>
		<contour>
			<point x="180" y="604" type="line" />
			<point x="372" y="604" type="line" />
			<point x="388" y="620" type="line" />
			<point x="388" y="660" type="line" />
			<point x="372" y="676" type="line" />
			<point x="308" y="676" type="line" />
			<point x="276" y="676" type="line" />
			<point x="260" y="692" type="line" />
			<point x="260" y="716" type="line" />
			<point x="392" y="716" type="line" />
			<point x="408" y="732" type="line" />
			<point x="408" y="772" type="line" />
			<point x="392" y="788" type="line" />
			<point x="244" y="788" type="line" />
			<point x="188" y="756" type="line" />
			<point x="188" y="700" type="line" />
			<point x="228" y="660" type="line" />
			<point x="180" y="660" type="line" />
		</contour>
		<contour>
			<point x="426" y="674" type="line" />
			<point x="470" y="674" type="line" />
			<point x="470" y="718" type="line" />
			<point x="426" y="718" type="line" />
		</contour>
	</outline>
</glyph>
<glyph name="hamzaaboveFathatan-ar" format="2">
	<advance width="0" />
	<outline>
		<contour>
			<point x="180" y="568" type="line" />
			<point x="372" y="568" type="line" />
			<point x="388" y="584" type="line" />
			<point x="388" y="624" type="line" />
			<point x="372" y="640" type="line" />
			<point x="308" y="640" type="line" />
			<point x="276" y="640" type="line" />
			<point x="260" y="656" type="line" />
			<point x="260" y="680" type="line" />
			<point x="392" y="680" type="line" />
			<point x="408" y="696" type="line" />
			<point x="408" y="736" type="line" />
			<point x="392" y="752" type="line" />
			<point x="244" y="752" type="line" />
			<point x="188" y="720" type="line" />
			<point x="188" y="664" type="line" />
			<point x="228" y="624" type="line" />
			<point x="180" y="624" type="line" />
		</contour>
		<contour>
			<point x="160" y="788" type="line" />
			<point x="368" y="788" type="line" />
			<point x="368" y="830" type="line" />
			<point x="160" y="830" type="line" />
		</contour>
		<contour>
			<point x="160" y="850" type="line" />
			<point x="368" y="850" type="line" />
			<point x="368" y="892" type="line" />
			<point x="160" y="892" type="line" />
		</contour>
	</outline>
</glyph>
<glyph name="hamzaaboveSukun-ar" format="2">
	<advance width="0" />
	<outline>
		<contour>
			<point x="180" y="568" type="line" />
			<point x="372" y="568" type="line" />
			<point x="388" y="584" type="line" />
			<point x="388" y="624" type="line" />
			<point x="372" y="640" type="line" />
			<point x="308" y="640" type="line" />
			<point x="276" y="640" type="line" />
			<point x="260" y="656" type="line" />
			<point x="260" y="680" type="line" />
			<point x="392" y="680" type="line" />
			<point x="408" y="696" type="line" />
			<point x="408" y="736" type="line" />
			<point x="392" y="752" type="line" />
			<point x="244" y="752" type="line" />
			<point x="188" y="720" type="line" />
			<point x="188" y="664" type="line" />
			<point x="228" y="624" type="line" />
			<point x="180" y="624" type="line" />
		</contour>
		<contour>
			<point x="392" y="780" type="line" />
			<point x="504" y="780" type="line" />
			<point x="504" y="892" type="line" />
			<point x="392" y="892" type="line" />
		</contour>
		<contour>
			<point x="426" y="858" type="line" />
			<point x="470" y="858" type="line" />
			<point x="470" y="814" type="line" />
			<point x="426" y="814" type="line" />
		</contour>
	</outline>
</glyph>
<glyph name="hamzabelowKasra-ar" format="2">
	<advance width="0" />
	<outline>
		<contour>
			<point x="180" y="-100" type="line" />
			<point x="372" y="-100" type="line" />
			<point x="388" y="-84" type="line" />
			<point x="388" y="-44" type="line" />
			<point x="372" y="-28" type="line" />
			<point x="308" y="-28" type="line" />
			<point x="276" y="-28" type="line" />
			<point x="260" y="-12" type="line" />
			<point x="260" y="12" type="line" />
			<point x="392" y="12" type="line" />
			<point x="408" y="28" type="line" />
			<point x="408" y="68" type="line" />
			<point x="392" y="84" type="line" />
			<point x="244" y="84" type="line" />
			<point x="188" y="52" type="line" />
			<point x="188" y="-4" type="line" />
			<point x="228" y="-44" type="line" />
			<point x="180" y="-44" type="line" />
		</contour>
		<contour>
			<point x="160" y="-164" type="line" />
			<point x="368" y="-164" type="line" />
			<point x="368" y="-122" type="line" />
			<point x="160" y="-122" type="line" />
		</contour>
	</outline>
</glyph>
<glyph name="heh-ar.init" format="2">
  <advance width="600"/>
  <outline>
    <contour>
      <point x="-24" y="128" type="line"/>
      <point x="624" y="128" type="line"/>
      <point x="624" y="212" type="line"/>
      <point x="-24" y="212" type="line"/>
    </contour>
    <contour>
      <point x="148" y="260" type="line"/>
      <point x="260" y="216" type="line"/>
      <point x="428" y="228" type="line"/>
      <point x="480" y="300" type="line"/>
      <point x="388" y="416" type="line"/>
      <point x="244" y="416" type="line"/>
    </contour>
    <contour>
      <point x="268" y="332" type="line"/>
      <point x="340" y="332" type="line"/>
      <point x="372" y="280" type="line"/>
      <point x="324" y="236" type="line"/>
      <point x="252" y="244" type="line"/>
    </contour>
  </outline>
</glyph>
<glyph name="hehDoachashmee-ar.init" format="2">
	<advance width="416"/>
	<outline>
		<contour>
			<point x="-24" y="128" type="line"/>
			<point x="440" y="128" type="line"/>
			<point x="440" y="212" type="line"/>
			<point x="-24" y="212" type="line"/>
		</contour>
		<contour>
			<point x="104" y="168" type="line"/>
			<point x="160" y="208" type="line"/>
			<point x="228" y="152" type="line"/>
			<point x="372" y="152" type="line"/>
			<point x="424" y="232" type="line"/>
			<point x="344" y="312" type="line"/>
			<point x="220" y="312" type="line"/>
		</contour>
		<contour>
			<point x="252" y="252" type="line"/>
			<point x="324" y="252" type="line"/>
			<point x="344" y="216" type="line"/>
			<point x="292" y="196" type="line"/>
			<point x="240" y="216" type="line"/>
		</contour>
	</outline>
</glyph>
<glyph name="hehGoalHamzaabove-ar.init" format="2">
  <advance width="416"/>
  <outline>
    <contour>
      <point x="-24" y="128" type="line"/>
      <point x="440" y="128" type="line"/>
      <point x="440" y="212" type="line"/>
      <point x="-24" y="212" type="line"/>
    </contour>
    <contour>
      <point x="88" y="168" type="line"/>
      <point x="168" y="220" type="line"/>
      <point x="236" y="172" type="line"/>
      <point x="388" y="172" type="line"/>
      <point x="416" y="248" type="line"/>
      <point x="336" y="320" type="line"/>
      <point x="196" y="320" type="line"/>
    </contour>
    <contour>
      <point x="128" y="568" type="line"/>
      <point x="272" y="568" type="line"/>
      <point x="288" y="584" type="line"/>
      <point x="288" y="616" type="line"/>
      <point x="272" y="632" type="line"/>
      <point x="224" y="632" type="line"/>
      <point x="200" y="632" type="line"/>
      <point x="184" y="648" type="line"/>
      <point x="184" y="672" type="line"/>
      <point x="280" y="672" type="line"/>
      <point x="296" y="688" type="line"/>
      <point x="296" y="720" type="line"/>
      <point x="280" y="736" type="line"/>
      <point x="160" y="736" type="line"/>
      <point x="112" y="704" type="line"/>
      <point x="112" y="656" type="line"/>
      <point x="152" y="624" type="line"/>
      <point x="128" y="624" type="line"/>
    </contour>
  </outline>
</glyph>
<glyph name="hehGoalHamzaabove-ar.medi" format="2">
  <advance width="600"/>
  <outline>
    <contour>
      <point x="-24" y="128" type="line"/>
      <point x="624" y="128" type="line"/>
      <point x="624" y="212" type="line"/>
      <point x="-24" y="212" type="line"/>
    </contour>
    <contour>
      <point x="88" y="168" type="line"/>
      <point x="168" y="220" type="line"/>
      <point x="236" y="172" type="line"/>
      <point x="388" y="172" type="line"/>
      <point x="416" y="248" type="line"/>
      <point x="336" y="320" type="line"/>
      <point x="196" y="320" type="line"/>
    </contour>
    <contour>
      <point x="220" y="568" type="line"/>
      <point x="364" y="568" type="line"/>
      <point x="380" y="584" type="line"/>
      <point x="380" y="616" type="line"/>
      <point x="364" y="632" type="line"/>
      <point x="316" y="632" type="line"/>
      <point x="292" y="632" type="line"/>
      <point x="276" y="648" type="line"/>
      <point x="276" y="672" type="line"/>
      <point x="372" y="672" type="line"/>
      <point x="388" y="688" type="line"/>
      <point x="388" y="720" type="line"/>
      <point x="372" y="736" type="line"/>
      <point x="252" y="736" type="line"/>
      <point x="204" y="704" type="line"/>
      <point x="204" y="656" type="line"/>
      <point x="244" y="624" type="line"/>
      <point x="220" y="624" type="line"/>
    </contour>
  </outline>
</glyph>
<glyph name="kaf-ar.init" format="2">
  <advance width="600"/>
  <anchor x="294" y="0" name="bottom"/>
  <anchor x="268" y="776" name="top"/>
  <outline>
    <contour>
      <point x="-6" y="-12" type="curve" smooth="yes"/>
      <point x="294" y="-12" type="line" smooth="yes"/>
      <point x="456" y="-12"/>
      <point x="574" y="94"/>
      <point x="574" y="260" type="curve" smooth="yes"/>
      <point x="574" y="382"/>
      <point x="512" y="434"/>
      <point x="362" y="506" type="curve" smooth="yes"/>
      <point x="226" y="570" type="line"/>
      <point x="520" y="650" type="line" smooth="yes"/>
      <point x="542" y="654"/>
      <point x="550" y="674"/>
      <point x="550" y="698" type="curve" smooth="yes"/>
      <point x="550" y="836" type="line" smooth="yes"/>
      <point x="550" y="862"/>
      <point x="536" y="870"/>
      <point x="516" y="862" type="curve" smooth="yes"/>
      <point x="102" y="732" type="line" smooth="yes"/>
      <point x="74" y="724"/>
      <point x="64" y="712"/>
      <point x="64" y="666" type="curve" smooth="yes"/>
      <point x="64" y="490" type="line" smooth="yes"/>
      <point x="64" y="446"/>
      <point x="82" y="432"/>
      <point x="106" y="418" type="curve" smooth="yes"/>
      <point x="318" y="310" type="line" smooth="yes"/>
      <point x="344" y="296"/>
      <point x="362" y="286"/>
      <point x="362" y="272" type="curve" smooth="yes"/>
      <point x="362" y="252"/>
      <point x="354" y="244"/>
      <point x="324" y="244" type="curve" smooth="yes"/>
      <point x="10" y="244" type="line" smooth="yes"/>
      <point x="-10" y="244"/>
      <point x="-22" y="232"/>
      <point x="-22" y="210" type="curve" smooth="yes"/>
      <point x="-22" y="6" type="line" smooth="yes"/>
      <point x="-22" y="-4"/>
      <point x="-14" y="-12"/>
    </contour>
  </outline>
</glyph>
<glyph name="kaf-ar.medi" format="2">
  <advance width="600"/>
  <anchor x="302" y="0" name="bottom"/>
  <anchor x="276" y="776" name="top"/>
  <outline>
    <contour>
      <point x="-6" y="-12" type="curve" smooth="yes"/>
      <point x="100" y="-12" type="line" smooth="yes"/>
      <point x="220" y="-12"/>
      <point x="296" y="34"/>
      <point x="326" y="118" type="curve"/>
      <point x="420" y="8"/>
      <point x="466" y="-12"/>
      <point x="594" y="-12" type="curve" smooth="yes"/>
      <point x="614" y="-12"/>
      <point x="626" y="2"/>
      <point x="626" y="22" type="curve" smooth="yes"/>
      <point x="626" y="228" type="line" smooth="yes"/>
      <point x="626" y="238"/>
      <point x="620" y="244"/>
      <point x="610" y="244" type="curve" smooth="yes"/>
      <point x="532" y="244"/>
      <point x="524" y="244"/>
      <point x="458" y="314" type="curve" smooth="yes"/>
      <point x="260" y="522" type="line"/>
      <point x="520" y="628" type="line" smooth="yes"/>
      <point x="542" y="636"/>
      <point x="550" y="654"/>
      <point x="550" y="676" type="curve" smooth="yes"/>
      <point x="550" y="832" type="line" smooth="yes"/>
      <point x="550" y="854"/>
      <point x="536" y="860"/>
      <point x="516" y="852" type="curve" smooth="yes"/>
      <point x="80" y="672" type="line" smooth="yes"/>
      <point x="68" y="668"/>
      <point x="64" y="658"/>
      <point x="64" y="646" type="curve" smooth="yes"/>
      <point x="64" y="500" type="line" smooth="yes"/>
      <point x="64" y="458"/>
      <point x="68" y="454"/>
      <point x="94" y="428" type="curve" smooth="yes"/>
      <point x="202" y="316" type="line" smooth="yes"/>
      <point x="222" y="296"/>
      <point x="220" y="290"/>
      <point x="220" y="280" type="curve" smooth="yes"/>
      <point x="220" y="252"/>
      <point x="206" y="244"/>
      <point x="166" y="244" type="curve" smooth="yes"/>
      <point x="10" y="244" type="line" smooth="yes"/>
      <point x="-10" y="244"/>
      <point x="-22" y="232"/>
      <point x="-22" y="210" type="curve" smooth="yes"/>
      <point x="-22" y="6" type="line" smooth="yes"/>
      <point x="-22" y="-4"/>
      <point x="-14" y="-12"/>
    </contour>
  </outline>
</glyph>
<glyph name="kehehThreedotsabove-ar.medi" format="2">
	<advance width="416" />
	<outline>
		<contour>
			<point x="-24" y="128" type="line" />
			<point x="440" y="128" type="line" />
			<point x="440" y="212" type="line" />
			<point x="-24" y="212" type="line" />
		</contour>
		<contour>
			<point x="88" y="168" type="line" />
			<point x="356" y="168" type="line" />
			<point x="356" y="244" type="line" />
			<point x="224" y="244" type="line" />
			<point x="324" y="352" type="line" />
			<point x="396" y="352" type="line" />
			<point x="396" y="428" type="line" />
			<point x="288" y="428" type="line" />
			<point x="116" y="248" type="line" />
		</contour>
		<contour>
			<point x="200" y="572" type="line" />
			<point x="264" y="572" type="line" />
			<point x="264" y="636" type="line" />
			<point x="200" y="636" type="line" />
		</contour>
		<contour>
			<point x="312" y="572" type="line" />
			<point x="376" y="572" type="line" />
			<point x="376" y="636" type="line" />
			<point x="312" y="636" type="line" />
		</contour>
		<contour>
			<point x="256" y="636" type="line" />
			<point x="320" y="636" type="line" />
			<point x="320" y="700" type="line" />
			<point x="256" y="700" type="line" />
		</contour>
	</outline>
</glyph>
<glyph name="lam_alef-ar" format="2">
  <advance width="600"/>
  <anchor x="450" y="0" name="bottom_1"/>
  <anchor x="184" y="0" name="bottom_2"/>
  <anchor x="300" y="0" name="caret_1"/>
  <anchor x="450" y="776" name="top_1"/>
  <anchor x="116" y="688" name="top_2"/>
  <outline>
    <contour>
      <point x="88" y="-12" type="curve"/>
      <point x="292" y="-12" type="line" smooth="yes"/>
      <point x="454" y="-12"/>
      <point x="558" y="72"/>
      <point x="558" y="244" type="curve" smooth="yes"/>
      <point x="558" y="322"/>
      <point x="542" y="404"/>
      <point x="434" y="498" type="curve" smooth="yes"/>
      <point x="132" y="746" type="line" smooth="yes"/>
      <point x="116" y="758"/>
      <point x="104" y="756"/>
      <point x="92" y="734" type="curve" smooth="yes"/>
      <point x="30" y="622" type="line" smooth="yes"/>
      <point x="18" y="600"/>
      <point x="24" y="582"/>
      <point x="42" y="568" type="curve" smooth="yes"/>
      <point x="382" y="306" type="line" smooth="yes"/>
      <point x="406" y="288"/>
      <point x="416" y="274"/>
      <point x="416" y="262" type="curve" smooth="yes"/>
      <point x="416" y="250"/>
      <point x="402" y="244"/>
      <point x="374" y="244" type="curve" smooth="yes"/>
      <point x="246" y="244" type="line"/>
      <point x="392" y="374" type="line"/>
      <point x="294" y="448" type="line"/>
      <point x="96" y="282" type="line" smooth="yes"/>
      <point x="76" y="266"/>
      <point x="70" y="254"/>
      <point x="70" y="222" type="curve" smooth="yes"/>
      <point x="70" y="18" type="line" smooth="yes"/>
      <point x="70" y="4"/>
      <point x="76" y="-6"/>
    </contour>
    <contour>
      <point x="416" y="428" type="line"/>
      <point x="462" y="428"/>
      <point x="524" y="484"/>
      <point x="524" y="590" type="curve" smooth="yes"/>
      <point x="524" y="806" type="line" smooth="yes"/>
      <point x="524" y="820"/>
      <point x="516" y="830"/>
      <point x="502" y="830" type="curve" smooth="yes"/>
      <point x="376" y="830" type="line" smooth="yes"/>
      <point x="364" y="830"/>
      <point x="354" y="820"/>
      <point x="354" y="806" type="curve" smooth="yes"/>
      <point x="354" y="566" type="line" smooth="yes"/>
      <point x="354" y="522"/>
      <point x="352" y="506"/>
      <point x="322" y="492" type="curve"/>
    </contour>
  </outline>
</glyph>
<glyph name="lam_alefHamzabelow-ar" format="2">
	<advance width="600" />
	<outline>
		<contour>
			<point x="192" y="112" type="line" />
			<point x="472" y="112" type="line" />
			<point x="472" y="680" type="line" />
			<point x="388" y="680" type="line" />
			<point x="388" y="196" type="line" />
			<point x="276" y="196" type="line" />
			<point x="276" y="680" type="line" />
			<point x="192" y="680" type="line" />
		</contour>
		<contour>
			<point x="248" y="736" type="line" />
			<point x="392" y="736" type="line" />
			<point x="408" y="752" type="line" />
			<point x="408" y="784" type="line" />
			<point x="392" y="800" type="line" />
			<point x="344" y="800" type="line" />
			<point x="320" y="800" type="line" />
			<point x="304" y="816" type="line" />
			<point x="304" y="840" type="line" />
			<point x="400" y="840" type="line" />
			<point x="416" y="856" type="line" />
			<point x="416" y="888" type="line" />
			<point x="400" y="904" type="line" />
			<point x="280" y="904" type="line" />
			<point x="232" y="872" type="line" />
			<point x="232" y="824" type="line" />
			<point x="272" y="792" type="line" />
			<point x="248" y="792" type="line" />
		</contour>
	</outline>
</glyph>
<glyph name="lam_alefMadda-ar.fina" format="2">
  <advance width="600"/>
  <outline>
    <contour>
      <point x="192" y="112" type="line"/>
      <point x="276" y="112" type="line"/>
      <point x="276" y="680" type="line"/>
      <point x="192" y="680" type="line"/>
    </contour>
    <contour>
      <point x="388" y="112" type="line"/>
      <point x="472" y="112" type="line"/>
      <point x="472" y="680" type="line"/>
      <point x="388" y="680" type="line"/>
    </contour>
    <contour>
      <point x="192" y="112" type="line"/>
      <point x="472" y="112" type="line"/>
      <point x="472" y="196" type="line"/>
      <point x="192" y="196" type="line"/>
    </contour>
    <contour>
      <point x="220" y="760" type="line"/>
      <point x="252" y="704" type="line"/>
      <point x="308" y="744" type="line"/>
      <point x="404" y="704" type="line"/>
      <point x="500" y="760" type="line"/>
      <point x="460" y="824" type="line"/>
      <point x="404" y="776" type="line"/>
      <point x="308" y="816" type="line"/>
    </contour>
  </outline>
</glyph>
<glyph name="lam_alefWasla-ar" format="2">
  <advance width="600"/>
  <outline>
    <contour>
      <point x="192" y="112" type="line"/>
      <point x="276" y="112" type="line"/>
      <point x="276" y="680" type="line"/>
      <point x="192" y="680" type="line"/>
    </contour>
    <contour>
      <point x="388" y="112" type="line"/>
      <point x="472" y="112" type="line"/>
      <point x="472" y="680" type="line"/>
      <point x="388" y="680" type="line"/>
    </contour>
    <contour>
      <point x="220" y="760" type="line"/>
      <point x="248" y="712" type="line"/>
      <point x="292" y="744" type="line"/>
      <point x="364" y="744" type="line"/>
      <point x="420" y="688" type="line"/>
      <point x="468" y="744" type="line"/>
      <point x="400" y="816" type="line"/>
      <point x="300" y="816" type="line"/>
    </contour>
  </outline>
</glyph>
<glyph name="meem-ar.fina" format="2">
  <advance width="600"/>
  <anchor x="332" y="0" name="bottom"/>
  <anchor x="326" y="662" name="top"/>
  <outline>
    <contour>
      <point x="62" y="-352" type="curve" smooth="yes"/>
      <point x="174" y="-352" type="line" smooth="yes"/>
      <point x="184" y="-352"/>
      <point x="192" y="-342"/>
      <point x="192" y="-326" type="curve" smooth="yes"/>
      <point x="192" y="-16" type="line" smooth="yes"/>
      <point x="192" y="26"/>
      <point x="204" y="38"/>
      <point x="230" y="28" type="curve" smooth="yes"/>
      <point x="274" y="8" type="line" smooth="yes"/>
      <point x="380" y="-38"/>
      <point x="458" y="0"/>
      <point x="488" y="58" type="curve"/>
      <point x="518" y="6"/>
      <point x="546" y="-12"/>
      <point x="596" y="-12" type="curve" smooth="yes"/>
      <point x="612" y="-12"/>
      <point x="620" y="2"/>
      <point x="620" y="22" type="curve" smooth="yes"/>
      <point x="620" y="228" type="line" smooth="yes"/>
      <point x="620" y="238"/>
      <point x="616" y="244"/>
      <point x="608" y="244" type="curve" smooth="yes"/>
      <point x="566" y="244"/>
      <point x="548" y="262"/>
      <point x="530" y="332" type="curve" smooth="yes"/>
      <point x="500" y="454"/>
      <point x="444" y="508"/>
      <point x="358" y="512" type="curve" smooth="yes"/>
      <point x="264" y="516"/>
      <point x="178" y="438"/>
      <point x="140" y="270" type="curve"/>
      <point x="76" y="250"/>
      <point x="42" y="180"/>
      <point x="42" y="48" type="curve" smooth="yes"/>
      <point x="42" y="-326" type="line" smooth="yes"/>
      <point x="42" y="-342"/>
      <point x="50" y="-352"/>
    </contour>
    <contour>
      <point x="348" y="204" type="curve" smooth="yes"/>
      <point x="320" y="204"/>
      <point x="302" y="212"/>
      <point x="264" y="234" type="curve"/>
      <point x="290" y="290"/>
      <point x="314" y="320"/>
      <point x="344" y="320" type="curve" smooth="yes"/>
      <point x="372" y="320"/>
      <point x="390" y="292"/>
      <point x="390" y="256" type="curve" smooth="yes"/>
      <point x="390" y="224"/>
      <point x="374" y="202"/>
    </contour>
  </outline>
</glyph>
<glyph name="meem-ar.init" format="2">
  <advance width="600"/>
  <anchor x="356" y="-22" name="bottom"/>
  <anchor x="346" y="576" name="top"/>
  <outline>
    <contour>
      <point x="330" y="-8" type="curve" smooth="yes"/>
      <point x="486" y="-16"/>
      <point x="556" y="122"/>
      <point x="556" y="248" type="curve" smooth="yes"/>
      <point x="556" y="428"/>
      <point x="458" y="516"/>
      <point x="342" y="516" type="curve" smooth="yes"/>
      <point x="258" y="516"/>
      <point x="176" y="470"/>
      <point x="102" y="328" type="curve" smooth="yes"/>
      <point x="64" y="252"/>
      <point x="46" y="244"/>
      <point x="10" y="244" type="curve" smooth="yes"/>
      <point x="-8" y="244"/>
      <point x="-20" y="232"/>
      <point x="-20" y="210" type="curve" smooth="yes"/>
      <point x="-20" y="6" type="line" smooth="yes"/>
      <point x="-20" y="-4"/>
      <point x="-14" y="-12"/>
      <point x="-4" y="-12" type="curve" smooth="yes"/>
      <point x="40" y="-12"/>
      <point x="94" y="14"/>
      <point x="132" y="54" type="curve"/>
      <point x="210" y="12"/>
      <point x="252" y="-6"/>
    </contour>
    <contour>
      <point x="332" y="204" type="curve" smooth="yes"/>
      <point x="300" y="204"/>
      <point x="278" y="212"/>
      <point x="232" y="234" type="curve"/>
      <point x="262" y="290"/>
      <point x="292" y="320"/>
      <point x="328" y="320" type="curve" smooth="yes"/>
      <point x="360" y="320"/>
      <point x="382" y="292"/>
      <point x="382" y="256" type="curve" smooth="yes"/>
      <point x="382" y="224"/>
      <point x="362" y="202"/>
    </contour>
  </outline>
</glyph>
<glyph name="meem-ar.medi" format="2">
  <advance width="600"/>
  <anchor x="334" y="-12" name="bottom"/>
  <anchor x="314" y="580" name="top"/>
  <outline>
    <contour>
      <point x="308" y="-18" type="curve" smooth="yes"/>
      <point x="368" y="-18"/>
      <point x="440" y="2"/>
      <point x="476" y="64" type="curve"/>
      <point x="510" y="4"/>
      <point x="548" y="-12"/>
      <point x="596" y="-12" type="curve" smooth="yes"/>
      <point x="614" y="-12"/>
      <point x="624" y="2"/>
      <point x="624" y="22" type="curve" smooth="yes"/>
      <point x="624" y="228" type="line" smooth="yes"/>
      <point x="624" y="238"/>
      <point x="618" y="244"/>
      <point x="610" y="244" type="curve" smooth="yes"/>
      <point x="558" y="244"/>
      <point x="542" y="254"/>
      <point x="524" y="316" type="curve" smooth="yes"/>
      <point x="482" y="468"/>
      <point x="398" y="506"/>
      <point x="308" y="506" type="curve" smooth="yes"/>
      <point x="226" y="506"/>
      <point x="144" y="456"/>
      <point x="84" y="314" type="curve" smooth="yes"/>
      <point x="60" y="256"/>
      <point x="38" y="244"/>
      <point x="10" y="244" type="curve" smooth="yes"/>
      <point x="-8" y="244"/>
      <point x="-20" y="232"/>
      <point x="-20" y="210" type="curve" smooth="yes"/>
      <point x="-20" y="6" type="line" smooth="yes"/>
      <point x="-20" y="-4"/>
      <point x="-14" y="-12"/>
      <point x="-4" y="-12" type="curve" smooth="yes"/>
      <point x="40" y="-12"/>
      <point x="90" y="18"/>
      <point x="124" y="46" type="curve"/>
      <point x="174" y="12"/>
      <point x="236" y="-18"/>
    </contour>
    <contour>
      <point x="312" y="204" type="curve" smooth="yes"/>
      <point x="278" y="204"/>
      <point x="258" y="212"/>
      <point x="212" y="234" type="curve"/>
      <point x="242" y="290"/>
      <point x="272" y="320"/>
      <point x="306" y="320" type="curve" smooth="yes"/>
      <point x="340" y="320"/>
      <point x="360" y="292"/>
      <point x="360" y="256" type="curve" smooth="yes"/>
      <point x="360" y="224"/>
      <point x="340" y="202"/>
    </contour>
  </outline>
</glyph>
<glyph name="nine.tf" format="2">
	<advance width="712"/>
	<outline>
		<contour>
			<point x="354" y="760" type="curve"/>
			<point x="170" y="760"/>
			<point x="54" y="660"/>
			<point x="54" y="500" type="curve"/>
			<point x="54" y="344"/>
			<point x="172" y="240"/>
			<point x="326" y="240" type="curve"/>
			<point x="412" y="240"/>
			<point x="472" y="284"/>
			<point x="504" y="320" type="curve"/>
			<point x="512" y="320" type="line"/>
			<point x="512" y="164"/>
			<point x="450" y="128"/>
			<point x="362" y="128" type="curve"/>
			<point x="302" y="128"/>
			<point x="270" y="156"/>
			<point x="262" y="192" type="curve"/>
			<point x="246" y="208" type="line"/>
			<point x="106" y="208" type="line"/>
			<point x="90" y="192" type="line"/>
			<point x="90" y="176" type="line"/>
			<point x="106" y="88"/>
			<point x="182" y="-16"/>
			<point x="362" y="-16" type="curve"/>
			<point x="550" y="-16"/>
			<point x="658" y="128"/>
			<point x="658" y="378" type="curve"/>
			<point x="658" y="660"/>
			<point x="524" y="760"/>
		</contour>
		<contour>
			<point x="342" y="616" type="curve"/>
			<point x="422" y="616"/>
			<point x="474" y="568"/>
			<point x="474" y="500" type="curve"/>
			<point x="474" y="432"/>
			<point x="422" y="384"/>
			<point x="342" y="384" type="curve"/>
			<point x="262" y="384"/>
			<point x="210" y="432"/>
			<point x="210" y="500" type="curve"/>
			<point x="210" y="568"/>
			<point x="262" y="616"/>
		</contour>
	</outline>
</glyph>
<glyph name=".notdef" format="2">
	<advance width="600"/>
	<outline>
		<contour>
			<point x="64" y="0" type="line"/>
			<point x="536" y="0" type="line"/>
			<point x="536" y="768" type="line"/>
			<point x="64" y="768" type="line"/>
		</contour>
		<contour>
			<point x="128" y="64" type="line"/>
			<point x="128" y="704" type="line"/>
			<point x="472" y="704" type="line"/>
			<point x="472" y="64" type="line"/>
		</contour>
	</outline>
</glyph>
<glyph name="one.tf" format="2">
	<advance width="712"/>
	<outline>
		<contour>
			<point x="120" y="0" type="line"/>
			<point x="592" y="0" type="line"/>
			<point x="608" y="16" type="line"/>
			<point x="608" y="120" type="line"/>
			<point x="592" y="136" type="line"/>
			<point x="448" y="136" type="line"/>
			<point x="440" y="144" type="line"/>
			<point x="440" y="728" type="line"/>
			<point x="424" y="744" type="line"/>
			<point x="320" y="744" type="line"/>
			<point x="304" y="728" type="line"/>
			<point x="288" y="636"/>
			<point x="216" y="576"/>
			<point x="100" y="576" type="curve"/>
			<point x="84" y="560" type="line"/>
			<point x="84" y="488" type="line"/>
			<point x="100" y="472" type="line"/>
			<point x="264" y="472" type="line"/>
			<point x="272" y="464" type="line"/>
			<point x="272" y="144" type="line"/>
			<point x="264" y="136" type="line"/>
			<point x="120" y="136" type="line"/>
			<point x="104" y="120" type="line"/>
			<point x="104" y="16" type="line"/>
		</contour>
	</outline>
</glyph>
<glyph name="qafDotless-ar.fina" format="2">
  <advance width="600"/>
  <anchor x="292" y="-248" name="bottom"/>
  <anchor x="382" y="662" name="top"/>
  <anchor x="380" y="544" name="topDots"/>
  <outline>
    <contour>
      <point x="274" y="-286" type="curve" smooth="yes"/>
      <point x="288" y="-286" type="line" smooth="yes"/>
      <point x="418" y="-286"/>
      <point x="502" y="-192"/>
      <point x="536" y="-12" type="curve"/>
      <point x="596" y="-12" type="line" smooth="yes"/>
      <point x="610" y="-12"/>
      <point x="616" y="2"/>
      <point x="616" y="22" type="curve" smooth="yes"/>
      <point x="616" y="228" type="line" smooth="yes"/>
      <point x="616" y="238"/>
      <point x="612" y="244"/>
      <point x="606" y="244" type="curve" smooth="yes"/>
      <point x="552" y="244" type="line"/>
      <point x="546" y="430"/>
      <point x="480" y="544"/>
      <point x="380" y="544" type="curve" smooth="yes"/>
      <point x="276" y="544"/>
      <point x="216" y="398"/>
      <point x="216" y="254" type="curve" smooth="yes"/>
      <point x="216" y="116"/>
      <point x="272" y="16"/>
      <point x="370" y="16" type="curve" smooth="yes"/>
      <point x="424" y="16" type="line"/>
      <point x="402" y="-28"/>
      <point x="362" y="-46"/>
      <point x="306" y="-46" type="curve" smooth="yes"/>
      <point x="294" y="-46" type="line" smooth="yes"/>
      <point x="206" y="-46"/>
      <point x="136" y="16"/>
      <point x="136" y="152" type="curve" smooth="yes"/>
      <point x="136" y="190"/>
      <point x="142" y="230"/>
      <point x="152" y="274" type="curve" smooth="yes"/>
      <point x="160" y="308"/>
      <point x="152" y="314"/>
      <point x="132" y="322" type="curve" smooth="yes"/>
      <point x="84" y="344" type="line" smooth="yes"/>
      <point x="64" y="352"/>
      <point x="54" y="340"/>
      <point x="48" y="308" type="curve" smooth="yes"/>
      <point x="32" y="250"/>
      <point x="20" y="166"/>
      <point x="20" y="108" type="curve" smooth="yes"/>
      <point x="20" y="-144"/>
      <point x="138" y="-286"/>
    </contour>
    <contour>
      <point x="366" y="242" type="line"/>
      <point x="344" y="242"/>
      <point x="322" y="254"/>
      <point x="322" y="286" type="curve" smooth="yes"/>
      <point x="322" y="314"/>
      <point x="340" y="336"/>
      <point x="364" y="336" type="curve" smooth="yes"/>
      <point x="390" y="336"/>
      <point x="422" y="310"/>
      <point x="438" y="244" type="curve"/>
    </contour>
  </outline>
</glyph>
<glyph name="qafThreedotsabove-ar.medi" format="2">
  <advance width="600"/>
  <outline>
    <contour>
      <point x="-24" y="128" type="line"/>
      <point x="624" y="128" type="line"/>
      <point x="624" y="212" type="line"/>
      <point x="-24" y="212" type="line"/>
    </contour>
    <contour>
      <point x="224" y="296" type="line"/>
      <point x="164" y="208" type="line"/>
      <point x="232" y="152" type="line"/>
      <point x="420" y="152" type="line"/>
      <point x="468" y="220" type="line"/>
      <point x="388" y="296" type="line"/>
    </contour>
    <contour>
      <point x="212" y="572" type="line"/>
      <point x="276" y="572" type="line"/>
      <point x="276" y="636" type="line"/>
      <point x="212" y="636" type="line"/>
    </contour>
    <contour>
      <point x="324" y="572" type="line"/>
      <point x="388" y="572" type="line"/>
      <point x="388" y="636" type="line"/>
      <point x="324" y="636" type="line"/>
    </contour>
    <contour>
      <point x="268" y="636" type="line"/>
      <point x="332" y="636" type="line"/>
      <point x="332" y="700" type="line"/>
      <point x="268" y="700" type="line"/>
    </contour>
  </outline>
</glyph>
<glyph name="sad-ar.fina" format="2">
  <advance width="600"/>
  <anchor x="378" y="0" name="bottom"/>
  <anchor x="328" y="576" name="top"/>
  <anchor x="478" y="550" name="topDots"/>
  <outline>
    <contour>
      <point x="598" y="-12" type="curve" smooth="yes"/>
      <point x="606" y="-12"/>
      <point x="612" y="2"/>
      <point x="612" y="22" type="curve" smooth="yes"/>
      <point x="612" y="228" type="line" smooth="yes"/>
      <point x="612" y="238"/>
      <point x="608" y="244"/>
      <point x="604" y="244" type="curve" smooth="yes"/>
      <point x="590" y="244"/>
      <point x="578" y="250"/>
      <point x="568" y="266" type="curve"/>
      <point x="514" y="58" type="line"/>
      <point x="534" y="8"/>
      <point x="560" y="-12"/>
    </contour>
    <contour>
      <point x="156" y="-224" type="curve" smooth="yes"/>
      <point x="234" y="-224"/>
      <point x="294" y="-118"/>
      <point x="306" y="40" type="curve"/>
      <point x="330" y="12"/>
      <point x="370" y="-6"/>
      <point x="428" y="-6" type="curve" smooth="yes"/>
      <point x="526" y="-8"/>
      <point x="576" y="126"/>
      <point x="576" y="310" type="curve" smooth="yes"/>
      <point x="576" y="430"/>
      <point x="546" y="546"/>
      <point x="478" y="546" type="curve" smooth="yes"/>
      <point x="418" y="546"/>
      <point x="354" y="430"/>
      <point x="312" y="246" type="curve"/>
      <point x="310" y="276"/>
      <point x="308" y="308"/>
      <point x="304" y="338" type="curve" smooth="yes"/>
      <point x="296" y="408" type="line" smooth="yes"/>
      <point x="294" y="426"/>
      <point x="290" y="436"/>
      <point x="282" y="432" type="curve" smooth="yes"/>
      <point x="224" y="398" type="line" smooth="yes"/>
      <point x="214" y="392"/>
      <point x="210" y="378"/>
      <point x="214" y="354" type="curve" smooth="yes"/>
      <point x="222" y="282"/>
      <point x="226" y="222"/>
      <point x="228" y="172" type="curve" smooth="yes"/>
      <point x="228" y="66"/>
      <point x="210" y="8"/>
      <point x="162" y="8" type="curve" smooth="yes"/>
      <point x="116" y="8"/>
      <point x="94" y="72"/>
      <point x="94" y="162" type="curve" smooth="yes"/>
      <point x="94" y="198"/>
      <point x="98" y="238"/>
      <point x="104" y="278" type="curve" smooth="yes"/>
      <point x="108" y="304"/>
      <point x="108" y="316"/>
      <point x="96" y="324" type="curve" smooth="yes"/>
      <point x="52" y="352" type="line" smooth="yes"/>
      <point x="42" y="358"/>
      <point x="38" y="348"/>
      <point x="32" y="314" type="curve" smooth="yes"/>
      <point x="20" y="256"/>
      <point x="14" y="180"/>
      <point x="14" y="110" type="curve" smooth="yes"/>
      <point x="14" y="-84"/>
      <point x="70" y="-224"/>
    </contour>
    <contour>
      <point x="382" y="244" type="line"/>
      <point x="408" y="296"/>
      <point x="440" y="334"/>
      <point x="468" y="336" type="curve" smooth="yes"/>
      <point x="488" y="338"/>
      <point x="504" y="324"/>
      <point x="504" y="292" type="curve" smooth="yes"/>
      <point x="504" y="262"/>
      <point x="492" y="244"/>
      <point x="462" y="244" type="curve" smooth="yes"/>
    </contour>
  </outline>
</glyph>
<glyph name="sad-ar.init" format="2">
  <advance width="600"/>
  <anchor x="300" y="-6" name="bottom"/>
  <anchor x="234" y="576" name="top"/>
  <anchor x="410" y="544" name="topDots"/>
  <outline>
    <contour>
      <point x="-4" y="-12" type="curve" smooth="yes"/>
      <point x="34" y="-12"/>
      <point x="74" y="6"/>
      <point x="96" y="74" type="curve"/>
      <point x="120" y="10"/>
      <point x="162" y="-12"/>
      <point x="214" y="-12" type="curve" smooth="yes"/>
      <point x="364" y="-12" type="line" smooth="yes"/>
      <point x="508" y="-12"/>
      <point x="580" y="122"/>
      <point x="580" y="304" type="curve" smooth="yes"/>
      <point x="580" y="426"/>
      <point x="536" y="544"/>
      <point x="438" y="544" type="curve" smooth="yes"/>
      <point x="346" y="544"/>
      <point x="248" y="416"/>
      <point x="188" y="220" type="curve"/>
      <point x="282" y="220" type="line"/>
      <point x="326" y="282"/>
      <point x="378" y="328"/>
      <point x="424" y="332" type="curve" smooth="yes"/>
      <point x="450" y="334"/>
      <point x="476" y="320"/>
      <point x="476" y="288" type="curve" smooth="yes"/>
      <point x="476" y="258"/>
      <point x="458" y="244"/>
      <point x="414" y="244" type="curve" smooth="yes"/>
      <point x="210" y="244" type="line" smooth="yes"/>
      <point x="164" y="244"/>
      <point x="164" y="260"/>
      <point x="164" y="344" type="curve" smooth="yes"/>
      <point x="164" y="392" type="line" smooth="yes"/>
      <point x="164" y="414"/>
      <point x="158" y="428"/>
      <point x="144" y="428" type="curve" smooth="yes"/>
      <point x="66" y="428" type="line" smooth="yes"/>
      <point x="54" y="428"/>
      <point x="46" y="414"/>
      <point x="46" y="392" type="curve" smooth="yes"/>
      <point x="46" y="322" type="line" smooth="yes"/>
      <point x="46" y="250"/>
      <point x="40" y="244"/>
      <point x="6" y="244" type="curve" smooth="yes"/>
      <point x="-6" y="244"/>
      <point x="-14" y="232"/>
      <point x="-14" y="210" type="curve" smooth="yes"/>
      <point x="-14" y="6" type="line" smooth="yes"/>
      <point x="-14" y="-4"/>
      <point x="-10" y="-12"/>
    </contour>
  </outline>
</glyph>
<glyph name="sad-ar.medi" format="2">
  <advance width="600"/>
  <anchor x="292" y="-6" name="bottom"/>
  <anchor x="228" y="576" name="top"/>
  <anchor x="400" y="544" name="topDots"/>
  <outline>
    <contour>
      <point x="596" y="-12" type="curve" smooth="yes"/>
      <point x="608" y="-12"/>
      <point x="616" y="2"/>
      <point x="616" y="22" type="curve" smooth="yes"/>
      <point x="616" y="228" type="line" smooth="yes"/>
      <point x="616" y="238"/>
      <point x="612" y="244"/>
      <point x="606" y="244" type="curve" smooth="yes"/>
      <point x="584" y="244"/>
      <point x="570" y="250"/>
      <point x="556" y="266" type="curve"/>
      <point x="476" y="58" type="line"/>
      <point x="506" y="8"/>
      <point x="544" y="-12"/>
    </contour>
    <contour>
      <point x="-4" y="-12" type="curve" smooth="yes"/>
      <point x="32" y="-12"/>
      <point x="72" y="6"/>
      <point x="94" y="74" type="curve"/>
      <point x="118" y="10"/>
      <point x="158" y="-12"/>
      <point x="208" y="-12" type="curve" smooth="yes"/>
      <point x="356" y="-12" type="line" smooth="yes"/>
      <point x="496" y="-12"/>
      <point x="566" y="122"/>
      <point x="566" y="304" type="curve" smooth="yes"/>
      <point x="566" y="426"/>
      <point x="522" y="544"/>
      <point x="426" y="544" type="curve" smooth="yes"/>
      <point x="338" y="544"/>
      <point x="240" y="416"/>
      <point x="184" y="220" type="curve"/>
      <point x="274" y="220" type="line"/>
      <point x="316" y="282"/>
      <point x="368" y="328"/>
      <point x="412" y="332" type="curve" smooth="yes"/>
      <point x="440" y="334"/>
      <point x="462" y="320"/>
      <point x="462" y="288" type="curve" smooth="yes"/>
      <point x="462" y="258"/>
      <point x="446" y="244"/>
      <point x="404" y="244" type="curve" smooth="yes"/>
      <point x="206" y="244" type="line" smooth="yes"/>
      <point x="160" y="244"/>
      <point x="160" y="260"/>
      <point x="160" y="344" type="curve" smooth="yes"/>
      <point x="160" y="392" type="line" smooth="yes"/>
      <point x="160" y="414"/>
      <point x="154" y="428"/>
      <point x="140" y="428" type="curve" smooth="yes"/>
      <point x="64" y="428" type="line" smooth="yes"/>
      <point x="52" y="428"/>
      <point x="44" y="414"/>
      <point x="44" y="392" type="curve" smooth="yes"/>
      <point x="44" y="322" type="line" smooth="yes"/>
      <point x="44" y="250"/>
      <point x="40" y="244"/>
      <point x="6" y="244" type="curve" smooth="yes"/>
      <point x="-6" y="244"/>
      <point x="-12" y="232"/>
      <point x="-12" y="210" type="curve" smooth="yes"/>
      <point x="-12" y="6" type="line" smooth="yes"/>
      <point x="-12" y="-4"/>
      <point x="-8" y="-12"/>
    </contour>
  </outline>
</glyph>
<glyph name="seen-ar.medi" format="2">
  <advance width="600"/>
  <anchor x="284" y="0" name="bottom"/>
  <anchor x="300" y="580" name="top"/>
  <anchor x="300" y="428" name="topDots"/>
  <outline>
    <contour>
      <point x="194" y="-12" type="curve" smooth="yes"/>
      <point x="222" y="-12"/>
      <point x="260" y="-2"/>
      <point x="288" y="64" type="curve"/>
      <point x="316" y="2"/>
      <point x="354" y="-12"/>
      <point x="386" y="-12" type="curve" smooth="yes"/>
      <point x="414" y="-12"/>
      <point x="452" y="2"/>
      <point x="480" y="64" type="curve"/>
      <point x="502" y="6"/>
      <point x="544" y="-12"/>
      <point x="596" y="-12" type="curve" smooth="yes"/>
      <point x="610" y="-12"/>
      <point x="618" y="2"/>
      <point x="618" y="22" type="curve" smooth="yes"/>
      <point x="618" y="228" type="line" smooth="yes"/>
      <point x="618" y="238"/>
      <point x="612" y="244"/>
      <point x="606" y="244" type="curve" smooth="yes"/>
      <point x="596" y="244" type="line" smooth="yes"/>
      <point x="564" y="244"/>
      <point x="552" y="262"/>
      <point x="552" y="320" type="curve" smooth="yes"/>
      <point x="552" y="400" type="line" smooth="yes"/>
      <point x="552" y="418"/>
      <point x="544" y="428"/>
      <point x="536" y="428" type="curve" smooth="yes"/>
      <point x="444" y="428" type="line" smooth="yes"/>
      <point x="434" y="428"/>
      <point x="430" y="416"/>
      <point x="430" y="400" type="curve" smooth="yes"/>
      <point x="430" y="324" type="line" smooth="yes"/>
      <point x="430" y="270"/>
      <point x="420" y="244"/>
      <point x="396" y="244" type="curve" smooth="yes"/>
      <point x="370" y="244"/>
      <point x="362" y="264"/>
      <point x="362" y="306" type="curve" smooth="yes"/>
      <point x="362" y="392" type="line" smooth="yes"/>
      <point x="362" y="414"/>
      <point x="354" y="428"/>
      <point x="340" y="428" type="curve" smooth="yes"/>
      <point x="260" y="428" type="line" smooth="yes"/>
      <point x="246" y="428"/>
      <point x="238" y="414"/>
      <point x="238" y="392" type="curve" smooth="yes"/>
      <point x="238" y="324" type="line" smooth="yes"/>
      <point x="238" y="270"/>
      <point x="230" y="244"/>
      <point x="204" y="244" type="curve" smooth="yes"/>
      <point x="180" y="244"/>
      <point x="170" y="264"/>
      <point x="170" y="304" type="curve" smooth="yes"/>
      <point x="170" y="392" type="line" smooth="yes"/>
      <point x="170" y="418"/>
      <point x="162" y="428"/>
      <point x="150" y="428" type="curve" smooth="yes"/>
      <point x="68" y="428" type="line" smooth="yes"/>
      <point x="56" y="428"/>
      <point x="48" y="412"/>
      <point x="48" y="390" type="curve" smooth="yes"/>
      <point x="48" y="318" type="line" smooth="yes"/>
      <point x="48" y="258"/>
      <point x="42" y="244"/>
      <point x="6" y="244" type="curve" smooth="yes"/>
      <point x="-6" y="244"/>
      <point x="-14" y="232"/>
      <point x="-14" y="210" type="curve" smooth="yes"/>
      <point x="-14" y="6" type="line" smooth="yes"/>
      <point x="-14" y="-4"/>
      <point x="-10" y="-12"/>
      <point x="-4" y="-12" type="curve" smooth="yes"/>
      <point x="30" y="-12"/>
      <point x="76" y="6"/>
      <point x="98" y="64" type="curve"/>
      <point x="120" y="4"/>
      <point x="162" y="-12"/>
    </contour>
  </outline>
</glyph>
<glyph name="seenSixdots-ar.fina" format="2">
	<advance width="864" />
	<outline>
		<contour>
			<point x="72" y="176" type="line" />
			<point x="144" y="112" type="line" />
			<point x="640" y="112" type="line" />
			<point x="776" y="196" type="line" />
			<point x="736" y="276" type="line" />
			<point x="592" y="220" type="line" />
			<point x="144" y="220" type="line" />
		</contour>
		<contour>
			<point x="132" y="216" type="line" />
			<point x="216" y="216" type="line" />
			<point x="216" y="340" type="line" />
			<point x="132" y="340" type="line" />
		</contour>
		<contour>
			<point x="264" y="216" type="line" />
			<point x="348" y="216" type="line" />
			<point x="348" y="340" type="line" />
			<point x="264" y="340" type="line" />
		</contour>
		<contour>
			<point x="396" y="216" type="line" />
			<point x="480" y="216" type="line" />
			<point x="480" y="340" type="line" />
			<point x="396" y="340" type="line" />
		</contour>
		<contour>
			<point x="272" y="572" type="line" />
			<point x="336" y="572" type="line" />
			<point x="336" y="636" type="line" />
			<point x="272" y="636" type="line" />
		</contour>
		<contour>
			<point x="384" y="572" type="line" />
			<point x="448" y="572" type="line" />
			<point x="448" y="636" type="line" />
			<point x="384" y="636" type="line" />
		</contour>
		<contour>
			<point x="328" y="636" type="line" />
			<point x="392" y="636" type="line" />
			<point x="392" y="700" type="line" />
			<point x="328" y="700" type="line" />
		</contour>
		<contour>
			<point x="272" y="-120" type="line" />
			<point x="336" y="-120" type="line" />
			<point x="336" y="-56" type="line" />
			<point x="272" y="-56" type="line" />
		</contour>
		<contour>
			<point x="384" y="-120" type="line" />
			<point x="448" y="-120" type="line" />
			<point x="448" y="-56" type="line" />
			<point x="384" y="-56" type="line" />
		</contour>
		<contour>
			<point x="328" y="-184" type="line" />
			<point x="392" y="-184" type="line" />
			<point x="392" y="-120" type="line" />
			<point x="328" y="-120" type="line" />
		</contour>
	</outline>
</glyph>
<glyph name="seenSixdots-ar.medi" format="2">
	<advance width="600" />
	<outline>
		<contour>
			<point x="-24" y="128" type="line" />
			<point x="624" y="128" type="line" />
			<point x="624" y="212" type="line" />
			<point x="-24" y="212" type="line" />
		</contour>
		<contour>
			<point x="112" y="184" type="line" />
			<point x="196" y="184" type="line" />
			<point x="196" y="300" type="line" />
			<point x="112" y="300" type="line" />
		</contour>
		<contour>
			<point x="244" y="184" type="line" />
			<point x="328" y="184" type="line" />
			<point x="328" y="300" type="line" />
			<point x="244" y="300" type="line" />
		</contour>
		<contour>
			<point x="376" y="184" type="line" />
			<point x="460" y="184" type="line" />
			<point x="460" y="300" type="line" />
			<point x="376" y="300" type="line" />
		</contour>
		<contour>
			<point x="212" y="572" type="line" />
			<point x="276" y="572" type="line" />
			<point x="276" y="636" type="line" />
			<point x="212" y="636" type="line" />
		</contour>
		<contour>
			<point x="324" y="572" type="line" />
			<point x="388" y="572" type="line" />
			<point x="388" y="636" type="line" />
			<point x="324" y="636" type="line" />
		</contour>
		<contour>
			<point x="268" y="636" type="line" />
			<point x="332" y="636" type="line" />
			<point x="332" y="700" type="line" />
			<point x="268" y="700" type="line" />
		</contour>
		<contour>
			<point x="212" y="-120" type="line" />
			<point x="276" y="-120" type="line" />
			<point x="276" y="-56" type="line" />
			<point x="212" y="-56" type="line" />
		</contour>
		<contour>
			<point x="324" y="-120" type="line" />
			<point x="388" y="-120" type="line" />
			<point x="388" y="-56" type="line" />
			<point x="324" y="-56" type="line" />
		</contour>
		<contour>
			<point x="268" y="-184" type="line" />
			<point x="332" y="-184" type="line" />
			<point x="332" y="-120" type="line" />
			<point x="268" y="-120" type="line" />
		</contour>
	</outline>
</glyph>
<glyph name="seven.tf" format="2">
	<advance width="712"/>
	<outline>
		<contour>
			<point x="198" y="0" type="line"/>
			<point x="358" y="0" type="line"/>
			<point x="374" y="16" type="line"/>
			<point x="384" y="250"/>
			<point x="458" y="490"/>
			<point x="634" y="632" type="curve"/>
			<point x="634" y="728" type="line"/>
			<point x="618" y="744" type="line"/>
			<point x="78" y="744" type="line"/>
			<point x="62" y="728" type="line"/>
			<point x="62" y="632" type="line"/>
			<point x="78" y="616" type="line"/>
			<point x="432" y="616" type="line"/>
			<point x="432" y="608" type="line"/>
			<point x="312" y="502"/>
			<point x="182" y="282"/>
			<point x="182" y="16" type="curve"/>
		</contour>
	</outline>
</glyph>
<glyph name="shaddaDamma-ar" format="2">
	<advance width="0" />
	<outline>
		<contour>
			<point x="180" y="612" type="line" />
			<point x="228" y="612" type="line" />
			<point x="268" y="724" type="line" />
			<point x="308" y="612" type="line" />
			<point x="356" y="612" type="line" />
			<point x="308" y="796" type="line" />
			<point x="268" y="796" type="line" />
		</contour>
		<contour>
			<point x="410" y="710" type="line" />
			<point x="454" y="710" type="line" />
			<point x="454" y="754" type="line" />
			<point x="410" y="754" type="line" />
		</contour>
	</outline>
</glyph>
<glyph name="shaddaFathatan-ar" format="2">
	<advance width="0" />
	<outline>
		<contour>
			<point x="180" y="612" type="line" />
			<point x="228" y="612" type="line" />
			<point x="268" y="724" type="line" />
			<point x="308" y="612" type="line" />
			<point x="356" y="612" type="line" />
			<point x="308" y="796" type="line" />
			<point x="268" y="796" type="line" />
		</contour>
		<contour>
			<point x="372" y="808" type="line" />
			<point x="552" y="808" type="line" />
			<point x="552" y="850" type="line" />
			<point x="372" y="850" type="line" />
		</contour>
		<contour>
			<point x="372" y="870" type="line" />
			<point x="552" y="870" type="line" />
			<point x="552" y="912" type="line" />
			<point x="372" y="912" type="line" />
		</contour>
	</outline>
</glyph>
<glyph name="six.tf" format="2">
	<advance width="712"/>
	<outline>
		<contour>
			<point x="354" y="-16" type="curve"/>
			<point x="538" y="-16"/>
			<point x="654" y="84"/>
			<point x="654" y="244" type="curve"/>
			<point x="654" y="400"/>
			<point x="536" y="504"/>
			<point x="382" y="504" type="curve"/>
			<point x="296" y="504"/>
			<point x="236" y="460"/>
			<point x="204" y="424" type="curve"/>
			<point x="196" y="424" type="line"/>
			<point x="196" y="580"/>
			<point x="258" y="616"/>
			<point x="346" y="616" type="curve"/>
			<point x="406" y="616"/>
			<point x="438" y="588"/>
			<point x="446" y="552" type="curve"/>
			<point x="462" y="536" type="line"/>
			<point x="602" y="536" type="line"/>
			<point x="618" y="552" type="line"/>
			<point x="618" y="568" type="line"/>
			<point x="602" y="656"/>
			<point x="526" y="760"/>
			<point x="346" y="760" type="curve"/>
			<point x="158" y="760"/>
			<point x="50" y="616"/>
			<point x="50" y="366" type="curve"/>
			<point x="50" y="84"/>
			<point x="184" y="-16"/>
		</contour>
		<contour>
			<point x="366" y="128" type="curve"/>
			<point x="286" y="128"/>
			<point x="234" y="176"/>
			<point x="234" y="244" type="curve"/>
			<point x="234" y="312"/>
			<point x="286" y="360"/>
			<point x="366" y="360" type="curve"/>
			<point x="446" y="360"/>
			<point x="498" y="312"/>
			<point x="498" y="244" type="curve"/>
			<point x="498" y="176"/>
			<point x="446" y="128"/>
		</contour>
	</outline>
</glyph>
<glyph name="tah-ar.fina" format="2">
  <advance width="600"/>
  <anchor x="292" y="0" name="bottom"/>
  <anchor x="404" y="580" name="top"/>
  <anchor x="398" y="544" name="topDots"/>
  <outline>
    <contour>
      <point x="600" y="-12" type="curve" smooth="yes"/>
      <point x="610" y="-12"/>
      <point x="618" y="2"/>
      <point x="618" y="22" type="curve" smooth="yes"/>
      <point x="618" y="228" type="line" smooth="yes"/>
      <point x="618" y="238"/>
      <point x="614" y="244"/>
      <point x="608" y="244" type="curve" smooth="yes"/>
      <point x="584" y="244"/>
      <point x="560" y="244"/>
      <point x="536" y="244" type="curve"/>
      <point x="480" y="132" type="line"/>
      <point x="484" y="82"/>
      <point x="518" y="-12"/>
    </contour>
    <contour>
      <point x="60" y="-12" type="curve" smooth="yes"/>
      <point x="316" y="-12" type="line" smooth="yes"/>
      <point x="478" y="-12"/>
      <point x="558" y="122"/>
      <point x="558" y="304" type="curve" smooth="yes"/>
      <point x="558" y="426"/>
      <point x="510" y="544"/>
      <point x="398" y="544" type="curve" smooth="yes"/>
      <point x="300" y="544"/>
      <point x="194" y="426"/>
      <point x="126" y="244" type="curve"/>
      <point x="46" y="244" type="line" smooth="yes"/>
      <point x="32" y="244"/>
      <point x="20" y="230"/>
      <point x="22" y="208" type="curve" smooth="yes"/>
      <point x="36" y="24" type="line" smooth="yes"/>
      <point x="40" y="2"/>
      <point x="46" y="-12"/>
    </contour>
    <contour>
      <point x="244" y="244" type="line"/>
      <point x="288" y="294"/>
      <point x="338" y="328"/>
      <point x="382" y="332" type="curve" smooth="yes"/>
      <point x="412" y="334"/>
      <point x="440" y="320"/>
      <point x="440" y="288" type="curve" smooth="yes"/>
      <point x="440" y="258"/>
      <point x="420" y="244"/>
      <point x="372" y="244" type="curve" smooth="yes"/>
    </contour>
    <contour>
      <point x="126" y="198" type="line"/>
      <point x="222" y="364" type="line"/>
      <point x="244" y="500"/>
      <point x="258" y="480"/>
      <point x="258" y="616" type="curve" smooth="yes"/>
      <point x="258" y="806" type="line" smooth="yes"/>
      <point x="258" y="820"/>
      <point x="252" y="830"/>
      <point x="242" y="830" type="curve" smooth="yes"/>
      <point x="142" y="830" type="line" smooth="yes"/>
      <point x="132" y="830"/>
      <point x="126" y="820"/>
      <point x="126" y="806" type="curve" smooth="yes"/>
    </contour>
  </outline>
</glyph>
<glyph name="tah-ar.init" format="2">
  <advance width="600"/>
  <anchor x="234" y="0" name="bottom"/>
  <anchor x="392" y="580" name="top"/>
  <anchor x="386" y="544" name="topDots"/>
  <outline>
    <contour>
      <point x="10" y="-12" type="curve" smooth="yes"/>
      <point x="292" y="-12" type="line" smooth="yes"/>
      <point x="480" y="-12"/>
      <point x="574" y="122"/>
      <point x="574" y="304" type="curve" smooth="yes"/>
      <point x="574" y="426"/>
      <point x="516" y="544"/>
      <point x="386" y="544" type="curve" smooth="yes"/>
      <point x="274" y="544"/>
      <point x="148" y="426"/>
      <point x="70" y="244" type="curve"/>
      <point x="10" y="244" type="line" smooth="yes"/>
      <point x="-6" y="244"/>
      <point x="-18" y="230"/>
      <point x="-18" y="208" type="curve" smooth="yes"/>
      <point x="-18" y="24" type="line" smooth="yes"/>
      <point x="-18" y="2"/>
      <point x="-8" y="-12"/>
    </contour>
    <contour>
      <point x="206" y="244" type="line"/>
      <point x="258" y="294"/>
      <point x="318" y="328"/>
      <point x="368" y="332" type="curve" smooth="yes"/>
      <point x="404" y="334"/>
      <point x="436" y="320"/>
      <point x="436" y="288" type="curve" smooth="yes"/>
      <point x="436" y="258"/>
      <point x="412" y="244"/>
      <point x="356" y="244" type="curve" smooth="yes"/>
    </contour>
    <contour>
      <point x="68" y="198" type="line"/>
      <point x="198" y="364" type="line"/>
      <point x="224" y="506"/>
      <point x="224" y="480"/>
      <point x="224" y="616" type="curve" smooth="yes"/>
      <point x="224" y="806" type="line" smooth="yes"/>
      <point x="224" y="820"/>
      <point x="216" y="830"/>
      <point x="204" y="830" type="curve" smooth="yes"/>
      <point x="88" y="830" type="line" smooth="yes"/>
      <point x="78" y="830"/>
      <point x="68" y="820"/>
      <point x="68" y="806" type="curve" smooth="yes"/>
    </contour>
  </outline>
</glyph>
<glyph name="tah-ar.medi" format="2">
  <advance width="600"/>
  <anchor x="228" y="0" name="bottom"/>
  <anchor x="382" y="580" name="top"/>
  <anchor x="378" y="544" name="topDots"/>
  <outline>
    <contour>
      <point x="600" y="-12" type="curve" smooth="yes"/>
      <point x="612" y="-12"/>
      <point x="622" y="2"/>
      <point x="622" y="22" type="curve" smooth="yes"/>
      <point x="622" y="228" type="line" smooth="yes"/>
      <point x="622" y="238"/>
      <point x="616" y="244"/>
      <point x="608" y="244" type="curve" smooth="yes"/>
      <point x="582" y="244"/>
      <point x="554" y="244"/>
      <point x="528" y="244" type="curve"/>
      <point x="464" y="132" type="line"/>
      <point x="468" y="82"/>
      <point x="506" y="-12"/>
    </contour>
    <contour>
      <point x="10" y="-12" type="curve" smooth="yes"/>
      <point x="284" y="-12" type="line" smooth="yes"/>
      <point x="470" y="-12"/>
      <point x="562" y="122"/>
      <point x="562" y="304" type="curve" smooth="yes"/>
      <point x="562" y="426"/>
      <point x="504" y="544"/>
      <point x="378" y="544" type="curve" smooth="yes"/>
      <point x="268" y="544"/>
      <point x="144" y="426"/>
      <point x="68" y="244" type="curve"/>
      <point x="10" y="244" type="line" smooth="yes"/>
      <point x="-6" y="244"/>
      <point x="-16" y="230"/>
      <point x="-16" y="208" type="curve" smooth="yes"/>
      <point x="-16" y="24" type="line" smooth="yes"/>
      <point x="-16" y="2"/>
      <point x="-8" y="-12"/>
    </contour>
    <contour>
      <point x="202" y="244" type="line"/>
      <point x="252" y="294"/>
      <point x="310" y="328"/>
      <point x="360" y="332" type="curve" smooth="yes"/>
      <point x="396" y="334"/>
      <point x="426" y="320"/>
      <point x="426" y="288" type="curve" smooth="yes"/>
      <point x="426" y="258"/>
      <point x="404" y="244"/>
      <point x="348" y="244" type="curve" smooth="yes"/>
    </contour>
    <contour>
      <point x="68" y="198" type="line"/>
      <point x="194" y="364" type="line"/>
      <point x="220" y="506"/>
      <point x="220" y="480"/>
      <point x="220" y="616" type="curve" smooth="yes"/>
      <point x="220" y="806" type="line" smooth="yes"/>
      <point x="220" y="820"/>
      <point x="212" y="830"/>
      <point x="200" y="830" type="curve" smooth="yes"/>
      <point x="86" y="830" type="line" smooth="yes"/>
      <point x="76" y="830"/>
      <point x="68" y="820"/>
      <point x="68" y="806" type="curve" smooth="yes"/>
    </contour>
  </outline>
</glyph>
<glyph name="tcheh-ar.fina" format="2">
	<advance width="600" />
	<outline>
		<contour>
			<point x="104" y="176" type="line" />
			<point x="180" y="128" type="line" />
			<point x="440" y="128" type="line" />
			<point x="520" y="204" type="line" />
			<point x="508" y="336" type="line" />
			<point x="420" y="420" type="line" />
			<point x="232" y="420" type="line" />
			<point x="152" y="352" type="line" />
			<point x="196" y="292" type="line" />
			<point x="356" y="292" type="line" />
			<point x="412" y="248" type="line" />
			<point x="376" y="216" type="line" />
			<point x="184" y="216" type="line" />
		</contour>
		<contour>
			<point x="212" y="-120" type="line" />
			<point x="276" y="-120" type="line" />
			<point x="276" y="-56" type="line" />
			<point x="212" y="-56" type="line" />
		</contour>
		<contour>
			<point x="324" y="-120" type="line" />
			<point x="388" y="-120" type="line" />
			<point x="388" y="-56" type="line" />
			<point x="324" y="-56" type="line" />
		</contour>
		<contour>
			<point x="268" y="-184" type="line" />
			<point x="332" y="-184" type="line" />
			<point x="332" y="-120" type="line" />
			<point x="268" y="-120" type="line" />
		</contour>
	</outline>
</glyph>
<glyph name="tcheh-ar.medi" format="2">
	<advance width="600" />
	<outline>
		<contour>
			<point x="-24" y="128" type="line" />
			<point x="624" y="128" type="line" />
			<point x="624" y="212" type="line" />
			<point x="-24" y="212" type="line" />
		</contour>
		<contour>
			<point x="136" y="168" type="line" />
			<point x="216" y="128" type="line" />
			<point x="448" y="128" type="line" />
			<point x="520" y="196" type="line" />
			<point x="492" y="292" type="line" />
			<point x="376" y="336" type="line" />
			<point x="240" y="316" type="line" />
			<point x="184" y="252" type="line" />
			<point x="244" y="212" type="line" />
			<point x="388" y="220" type="line" />
			<point x="420" y="196" type="line" />
			<point x="392" y="176" type="line" />
		</contour>
		<contour>
			<point x="212" y="-120" type="line" />
			<point x="276" y="-120" type="line" />
			<point x="276" y="-56" type="line" />
			<point x="212" y="-56" type="line" />
		</contour>
		<contour>
			<point x="324" y="-120" type="line" />
			<point x="388" y="-120" type="line" />
			<point x="388" y="-56" type="line" />
			<point x="324" y="-56" type="line" />
		</contour>
		<contour>
			<point x="268" y="-184" type="line" />
			<point x="332" y="-184" type="line" />
			<point x="332" y="-120" type="line" />
			<point x="268" y="-120" type="line" />
		</contour>
	</outline>
</glyph>
<glyph name="tehMarbutaGoal-ar.fina" format="2">
	<advance width="528" />
	<outline>
		<contour>
			<point x="104" y="176" type="line" />
			<point x="176" y="112" type="line" />
			<point x="360" y="112" type="line" />
			<point x="464" y="196" type="line" />
			<point x="464" y="328" type="line" />
			<point x="392" y="408" type="line" />
			<point x="272" y="408" type="line" />
			<point x="208" y="344" type="line" />
			<point x="236" y="288" type="line" />
			<point x="344" y="288" type="line" />
			<point x="376" y="236" type="line" />
			<point x="332" y="192" type="line" />
			<point x="184" y="192" type="line" />
		</contour>
		<contour>
			<point x="184" y="516" type="line" />
			<point x="248" y="516" type="line" />
			<point x="248" y="580" type="line" />
			<point x="184" y="580" type="line" />
		</contour>
		<contour>
			<point x="280" y="516" type="line" />
			<point x="344" y="516" type="line" />
			<point x="344" y="580" type="line" />
			<point x="280" y="580" type="line" />
		</contour>
	</outline>
</glyph>
<glyph name="tehRing-ar.medi" format="2">
  <advance width="600"/>
  <outline>
    <contour>
      <point x="-24" y="128" type="line"/>
      <point x="624" y="128" type="line"/>
      <point x="624" y="212" type="line"/>
      <point x="-24" y="212" type="line"/>
    </contour>
    <contour>
      <point x="96" y="176" type="line"/>
      <point x="176" y="128" type="line"/>
      <point x="416" y="128" type="line"/>
      <point x="496" y="196" type="line"/>
      <point x="456" y="264" type="line"/>
      <point x="208" y="264" type="line"/>
    </contour>
    <contour>
      <point x="300" y="684" type="line"/>
      <point x="224" y="608" type="line"/>
      <point x="300" y="532" type="line"/>
      <point x="376" y="608" type="line"/>
    </contour>
    <contour>
      <point x="300" y="646" type="line"/>
      <point x="338" y="608" type="line"/>
      <point x="300" y="570" type="line"/>
      <point x="262" y="608" type="line"/>
    </contour>
  </outline>
</glyph>
<glyph name="tehThreedotsdown-ar.fina" format="2">
	<advance width="600" />
	<outline>
		<contour>
			<point x="88" y="192" type="line" />
			<point x="132" y="128" type="line" />
			<point x="452" y="128" type="line" />
			<point x="520" y="192" type="line" />
			<point x="520" y="332" type="line" />
			<point x="440" y="252" type="line" />
			<point x="176" y="252" type="line" />
			<point x="88" y="332" type="line" />
		</contour>
		<contour>
			<point x="212" y="572" type="line" />
			<point x="276" y="572" type="line" />
			<point x="276" y="636" type="line" />
			<point x="212" y="636" type="line" />
		</contour>
		<contour>
			<point x="324" y="572" type="line" />
			<point x="388" y="572" type="line" />
			<point x="388" y="636" type="line" />
			<point x="324" y="636" type="line" />
		</contour>
		<contour>
			<point x="268" y="636" type="line" />
			<point x="332" y="636" type="line" />
			<point x="332" y="700" type="line" />
			<point x="268" y="700" type="line" />
		</contour>
	</outline>
</glyph>
<glyph name="tehThreedotsdown-ar.medi" format="2">
	<advance width="600" />
	<outline>
		<contour>
			<point x="-24" y="128" type="line" />
			<point x="624" y="128" type="line" />
			<point x="624" y="212" type="line" />
			<point x="-24" y="212" type="line" />
		</contour>
		<contour>
			<point x="96" y="176" type="line" />
			<point x="176" y="128" type="line" />
			<point x="416" y="128" type="line" />
			<point x="496" y="196" type="line" />
			<point x="456" y="264" type="line" />
			<point x="208" y="264" type="line" />
		</contour>
		<contour>
			<point x="212" y="572" type="line" />
			<point x="276" y="572" type="line" />
			<point x="276" y="636" type="line" />
			<point x="212" y="636" type="line" />
		</contour>
		<contour>
			<point x="324" y="572" type="line" />
			<point x="388" y="572" type="line" />
			<point x="388" y="636" type="line" />
			<point x="324" y="636" type="line" />
		</contour>
		<contour>
			<point x="268" y="636" type="line" />
			<point x="332" y="636" type="line" />
			<point x="332" y="700" type="line" />
			<point x="268" y="700" type="line" />
		</contour>
	</outline>
</glyph>
<glyph name="three.tf" format="2">
	<advance width="712"/>
	<outline>
		<contour>
			<point x="360" y="-16" type="curve"/>
			<point x="544" y="-16"/>
			<point x="658" y="74"/>
			<point x="658" y="224" type="curve"/>
			<point x="658" y="308"/>
			<point x="604" y="378"/>
			<point x="512" y="400" type="curve"/>
			<point x="512" y="408" type="line"/>
			<point x="584" y="434"/>
			<point x="630" y="490"/>
			<point x="630" y="578" type="curve"/>
			<point x="630" y="686"/>
			<point x="526" y="760"/>
			<point x="358" y="760" type="curve"/>
			<point x="192" y="760"/>
			<point x="84" y="676"/>
			<point x="68" y="532" type="curve"/>
			<point x="68" y="516" type="line"/>
			<point x="84" y="500" type="line"/>
			<point x="224" y="500" type="line"/>
			<point x="240" y="516" type="line"/>
			<point x="248" y="584"/>
			<point x="284" y="616"/>
			<point x="358" y="616" type="curve"/>
			<point x="424" y="616"/>
			<point x="462" y="580"/>
			<point x="462" y="538" type="curve"/>
			<point x="462" y="482"/>
			<point x="436" y="448"/>
			<point x="354" y="448" type="curve"/>
			<point x="274" y="448" type="line"/>
			<point x="258" y="432" type="line"/>
			<point x="258" y="352" type="line"/>
			<point x="274" y="336" type="line"/>
			<point x="354" y="336" type="line"/>
			<point x="436" y="336"/>
			<point x="490" y="292"/>
			<point x="490" y="224" type="curve"/>
			<point x="490" y="156"/>
			<point x="436" y="128"/>
			<point x="360" y="128" type="curve"/>
			<point x="276" y="128"/>
			<point x="228" y="168"/>
			<point x="218" y="244" type="curve"/>
			<point x="202" y="260" type="line"/>
			<point x="58" y="260" type="line"/>
			<point x="42" y="244" type="line"/>
			<point x="42" y="228" type="line"/>
			<point x="58" y="78"/>
			<point x="180" y="-16"/>
		</contour>
	</outline>
</glyph>
<glyph name="threedotsdownabove-ar" format="2">
	<advance width="600" />
	<outline>
		<contour>
			<point x="216" y="656" type="line" />
			<point x="272" y="656" type="line" />
			<point x="272" y="712" type="line" />
			<point x="216" y="712" type="line" />
		</contour>
		<contour>
			<point x="328" y="656" type="line" />
			<point x="384" y="656" type="line" />
			<point x="384" y="712" type="line" />
			<point x="328" y="712" type="line" />
		</contour>
		<contour>
			<point x="272" y="584" type="line" />
			<point x="328" y="584" type="line" />
			<point x="328" y="640" type="line" />
			<point x="272" y="640" type="line" />
		</contour>
	</outline>
</glyph>
<glyph name="threedotsupbelow-ar" format="2">
	<advance width="600" />
	<outline>
		<contour>
			<point x="216" y="-112" type="line" />
			<point x="272" y="-112" type="line" />
			<point x="272" y="-56" type="line" />
			<point x="216" y="-56" type="line" />
		</contour>
		<contour>
			<point x="328" y="-112" type="line" />
			<point x="384" y="-112" type="line" />
			<point x="384" y="-56" type="line" />
			<point x="328" y="-56" type="line" />
		</contour>
		<contour>
			<point x="272" y="-40" type="line" />
			<point x="328" y="-40" type="line" />
			<point x="328" y="16" type="line" />
			<point x="272" y="16" type="line" />
		</contour>
	</outline>
</glyph>
